<svg xmlns="http://www.w3.org/2000/svg" xmlns:xlink="http://www.w3.org/1999/xlink" width="500" zoomAndPan="magnify" viewBox="0 0 375 374.999991" height="500" preserveAspectRatio="xMidYMid meet" version="1.0"><defs><clipPath id="3886389f84"><path d="M 190 19.894531 L 303 19.894531 L 303 155 L 190 155 Z M 190 19.894531 " clip-rule="nonzero"/></clipPath><clipPath id="36fd159ced"><path d="M 194 28.21875 L 372.492188 28.21875 L 372.492188 355.113281 L 194 355.113281 Z M 194 28.21875 " clip-rule="nonzero"/></clipPath><clipPath id="5cb1776c12"><path d="M 2.808594 110 L 24 110 L 24 126 L 2.808594 126 Z M 2.808594 110 " clip-rule="nonzero"/></clipPath></defs><path fill="#000000" d="M 201.066406 285.894531 C 197.804688 284.542969 194.5625 283.164062 191.347656 281.738281 C 188.136719 280.308594 184.949219 278.828125 181.859375 277.234375 C 181.476562 277.035156 181.097656 276.832031 180.714844 276.625 C 180.328125 276.421875 179.960938 276.210938 179.585938 276.003906 C 179.394531 275.898438 179.210938 275.792969 179.03125 275.683594 L 178.484375 275.359375 C 178.296875 275.25 178.132812 275.136719 177.953125 275.023438 L 177.429688 274.6875 C 176.011719 273.722656 174.621094 272.714844 173.292969 271.640625 C 171.960938 270.5625 170.65625 269.453125 169.425781 268.261719 L 168.960938 267.824219 L 168.507812 267.375 L 167.597656 266.472656 L 166.277344 265.078125 L 165.851562 264.605469 L 164.996094 263.648438 L 164.175781 262.671875 L 163.761719 262.183594 L 162.566406 260.683594 L 161.410156 259.148438 L 161.046875 258.628906 L 160.300781 257.589844 L 159.59375 256.527344 L 159.234375 255.996094 L 158.894531 255.453125 L 158.214844 254.375 L 157.558594 253.277344 L 157.234375 252.730469 L 156.921875 252.171875 L 156.296875 251.058594 L 155.699219 249.925781 L 155.402344 249.363281 L 155.117188 248.792969 L 154.550781 247.648438 L 153.742188 245.910156 L 153.488281 245.324219 L 152.976562 244.15625 L 152.507812 242.976562 C 152.179688 242.199219 151.902344 241.398438 151.613281 240.605469 C 151.542969 240.40625 151.460938 240.210938 151.398438 240.003906 L 150.804688 238.195312 C 149.796875 234.960938 149.015625 231.640625 148.398438 228.273438 C 147.773438 224.90625 147.359375 221.476562 147.015625 218.027344 C 146.839844 216.300781 146.710938 214.566406 146.578125 212.828125 L 146.398438 210.203125 C 146.339844 209.316406 146.28125 208.429688 146.210938 207.542969 C 146.144531 206.65625 146.066406 205.765625 145.992188 204.878906 C 145.910156 203.996094 145.832031 203.109375 145.738281 202.226562 C 145.566406 200.457031 145.359375 198.691406 145.144531 196.929688 C 144.710938 193.402344 144.171875 189.890625 143.554688 186.394531 C 143.40625 185.523438 143.238281 184.652344 143.078125 183.78125 L 142.824219 182.476562 L 142.566406 181.160156 L 142.433594 180.5 L 142.367188 180.167969 C 142.34375 180.058594 142.324219 179.953125 142.292969 179.832031 C 142.175781 179.34375 142.0625 178.914062 141.933594 178.460938 C 141.675781 177.570312 141.371094 176.679688 141.019531 175.808594 C 140.667969 174.933594 140.253906 174.074219 139.78125 173.242188 C 139.664062 173.035156 139.539062 172.832031 139.414062 172.628906 C 139.28125 172.429688 139.15625 172.222656 139.015625 172.027344 C 138.75 171.632812 138.449219 171.238281 138.132812 170.863281 C 137.5 170.117188 136.78125 169.429688 135.96875 168.847656 C 135.164062 168.265625 134.257812 167.785156 133.296875 167.476562 C 132.339844 167.160156 131.339844 167.011719 130.367188 166.996094 C 129.390625 166.976562 128.441406 167.085938 127.527344 167.257812 C 125.695312 167.59375 124.007812 168.164062 122.335938 168.574219 C 120.632812 169 118.914062 169.402344 117.195312 169.816406 C 116.476562 169.992188 115.757812 170.167969 115.042969 170.339844 C 115.402344 170.039062 115.761719 169.746094 116.125 169.460938 C 117.046875 168.730469 117.992188 168.027344 118.964844 167.359375 C 119.449219 167.027344 119.941406 166.703125 120.441406 166.394531 C 120.941406 166.085938 121.453125 165.792969 121.972656 165.515625 C 122.488281 165.234375 123.023438 164.980469 123.566406 164.757812 C 124.109375 164.53125 124.671875 164.339844 125.253906 164.214844 C 124.660156 164.273438 124.078125 164.40625 123.5 164.570312 C 122.929688 164.734375 122.363281 164.933594 121.804688 165.15625 C 121.25 165.378906 120.699219 165.621094 120.160156 165.875 C 119.617188 166.132812 119.085938 166.402344 118.554688 166.683594 C 117.5 167.25 116.464844 167.855469 115.445312 168.492188 C 114.9375 168.808594 114.429688 169.136719 113.933594 169.464844 C 113.925781 169.472656 113.917969 169.476562 113.910156 169.480469 L 113.917969 169.457031 L 114.265625 168.613281 L 114.957031 166.933594 C 115.195312 166.375 115.441406 165.816406 115.695312 165.257812 C 116.691406 163.023438 117.730469 160.761719 118.449219 158.320312 C 118.804688 157.089844 119.050781 155.847656 119.257812 154.625 C 119.472656 153.398438 119.648438 152.191406 119.878906 151.019531 C 119.992188 150.433594 120.121094 149.855469 120.269531 149.296875 L 120.382812 148.882812 C 120.421875 148.742188 120.46875 148.609375 120.511719 148.472656 C 120.558594 148.339844 120.597656 148.199219 120.648438 148.066406 L 120.792969 147.667969 C 121.199219 146.601562 121.726562 145.59375 122.34375 144.652344 C 122.957031 143.710938 123.683594 142.847656 124.480469 142.058594 C 124.675781 141.859375 124.890625 141.675781 125.09375 141.484375 C 125.304688 141.300781 125.519531 141.121094 125.734375 140.941406 L 126.066406 140.683594 C 126.175781 140.597656 126.285156 140.511719 126.402344 140.429688 C 126.640625 140.265625 126.867188 140.089844 127.105469 139.929688 C 128.996094 138.640625 131.0625 137.609375 133.222656 136.8125 C 134.296875 136.417969 135.398438 136.078125 136.515625 135.796875 C 136.792969 135.726562 137.074219 135.664062 137.355469 135.59375 C 137.632812 135.53125 137.917969 135.472656 138.199219 135.410156 C 138.480469 135.351562 138.761719 135.308594 139.042969 135.253906 C 139.1875 135.226562 139.324219 135.207031 139.464844 135.1875 L 139.875 135.125 C 142.089844 134.8125 144.34375 134.824219 146.585938 135.117188 C 148.828125 135.410156 151.054688 135.992188 153.226562 136.78125 C 155.398438 137.570312 157.515625 138.574219 159.5625 139.730469 C 161.613281 140.878906 163.597656 142.179688 165.511719 143.585938 C 165.992188 143.9375 166.464844 144.296875 166.9375 144.660156 C 167.410156 145.027344 167.875 145.410156 168.347656 145.78125 C 168.820312 146.152344 169.277344 146.542969 169.742188 146.929688 L 170.4375 147.503906 L 171.121094 148.097656 C 174.78125 151.234375 178.226562 154.640625 181.515625 158.210938 C 184.8125 161.78125 187.902344 165.558594 190.898438 169.441406 L 190.902344 169.441406 C 190.972656 169.535156 191.101562 169.5625 191.207031 169.507812 C 191.328125 169.441406 191.371094 169.292969 191.308594 169.175781 C 190.144531 167.007812 188.878906 164.890625 187.539062 162.816406 C 186.878906 161.773438 186.171875 160.757812 185.472656 159.738281 L 184.394531 158.230469 L 183.289062 156.738281 L 183.011719 156.367188 L 182.722656 156 L 182.152344 155.269531 C 181.960938 155.023438 181.769531 154.777344 181.578125 154.539062 L 180.992188 153.816406 C 180.597656 153.335938 180.207031 152.851562 179.800781 152.386719 L 179.195312 151.679688 C 178.996094 151.441406 178.792969 151.203125 178.585938 150.976562 L 177.34375 149.582031 L 176.070312 148.222656 C 175.207031 147.324219 174.34375 146.429688 173.445312 145.566406 L 172.773438 144.914062 L 172.089844 144.273438 C 171.632812 143.855469 171.183594 143.417969 170.710938 143.011719 C 170.242188 142.597656 169.777344 142.179688 169.304688 141.769531 C 168.828125 141.359375 168.339844 140.960938 167.851562 140.5625 C 165.886719 138.976562 163.8125 137.507812 161.632812 136.1875 C 160.539062 135.53125 159.421875 134.910156 158.269531 134.335938 C 157.117188 133.769531 155.941406 133.238281 154.730469 132.777344 C 153.519531 132.3125 152.289062 131.902344 151.019531 131.566406 C 149.757812 131.230469 148.46875 130.960938 147.160156 130.789062 C 144.542969 130.4375 141.847656 130.457031 139.214844 130.90625 L 138.722656 130.996094 C 138.558594 131.023438 138.394531 131.054688 138.234375 131.089844 C 137.917969 131.160156 137.601562 131.226562 137.285156 131.300781 C 136.96875 131.386719 136.648438 131.457031 136.339844 131.542969 C 136.027344 131.632812 135.710938 131.71875 135.398438 131.8125 C 134.152344 132.1875 132.929688 132.636719 131.738281 133.160156 C 129.351562 134.207031 127.085938 135.550781 125.054688 137.195312 C 124.796875 137.398438 124.550781 137.621094 124.304688 137.828125 C 124.179688 137.933594 124.054688 138.046875 123.933594 138.15625 L 123.566406 138.496094 C 123.332031 138.730469 123.09375 138.964844 122.863281 139.203125 C 122.640625 139.453125 122.40625 139.691406 122.195312 139.949219 C 121.332031 140.964844 120.566406 142.058594 119.9375 143.226562 C 119.308594 144.394531 118.796875 145.621094 118.4375 146.882812 L 118.308594 147.355469 C 118.265625 147.515625 118.230469 147.675781 118.195312 147.835938 C 118.15625 147.992188 118.113281 148.152344 118.085938 148.3125 L 117.988281 148.792969 C 117.871094 149.429688 117.785156 150.054688 117.710938 150.679688 C 117.5625 151.925781 117.464844 153.152344 117.335938 154.355469 C 117.207031 155.558594 117.039062 156.730469 116.769531 157.871094 C 116.21875 160.167969 115.28125 162.410156 114.324219 164.660156 C 114.085938 165.222656 113.839844 165.789062 113.605469 166.359375 L 112.910156 168.078125 L 112.558594 168.9375 L 112.519531 169.042969 L 112.496094 169.097656 L 112.472656 169.160156 C 112.4375 169.246094 112.414062 169.328125 112.390625 169.410156 C 112.339844 169.570312 112.292969 169.726562 112.253906 169.871094 C 112.167969 170.167969 112.089844 170.4375 112 170.679688 C 111.949219 170.796875 111.902344 170.90625 111.847656 170.996094 C 111.796875 171.082031 111.742188 171.152344 111.703125 171.195312 L 111.6875 171.207031 C 111.523438 171.371094 111.4375 171.617188 111.488281 171.867188 C 111.566406 172.261719 111.953125 172.523438 112.351562 172.441406 C 114.097656 172.101562 115.824219 171.703125 117.542969 171.332031 C 119.261719 170.972656 120.988281 170.609375 122.71875 170.261719 C 124.488281 169.894531 126.179688 169.429688 127.835938 169.21875 C 128.664062 169.113281 129.480469 169.074219 130.265625 169.136719 C 131.050781 169.199219 131.808594 169.375 132.507812 169.660156 C 133.207031 169.9375 133.855469 170.339844 134.441406 170.835938 C 135.027344 171.324219 135.550781 171.90625 136.011719 172.539062 C 136.242188 172.859375 136.453125 173.183594 136.652344 173.535156 C 136.757812 173.703125 136.84375 173.886719 136.945312 174.058594 C 137.035156 174.238281 137.128906 174.417969 137.214844 174.601562 C 137.558594 175.332031 137.859375 176.085938 138.105469 176.871094 C 138.355469 177.652344 138.566406 178.449219 138.734375 179.265625 C 138.820312 179.667969 138.898438 180.09375 138.964844 180.472656 C 138.980469 180.566406 138.992188 180.679688 139.007812 180.785156 L 139.050781 181.105469 L 139.132812 181.75 L 139.464844 184.34375 C 139.566406 185.214844 139.675781 186.082031 139.773438 186.953125 C 140.585938 193.90625 141.261719 200.859375 141.578125 207.828125 C 141.625 208.699219 141.65625 209.570312 141.6875 210.441406 L 141.785156 213.097656 C 141.863281 214.871094 141.957031 216.652344 142.082031 218.4375 L 142.175781 219.777344 L 142.292969 221.117188 C 142.367188 222.007812 142.46875 222.902344 142.566406 223.796875 C 142.609375 224.242188 142.667969 224.691406 142.726562 225.136719 L 142.894531 226.476562 L 143.09375 227.816406 C 143.164062 228.265625 143.226562 228.714844 143.308594 229.160156 C 143.910156 232.726562 144.726562 236.285156 145.84375 239.765625 C 146.417969 241.503906 147.03125 243.226562 147.746094 244.914062 L 148.285156 246.183594 L 148.851562 247.421875 L 149.140625 248.042969 L 149.441406 248.65625 L 150.046875 249.878906 L 150.6875 251.089844 L 151.007812 251.691406 L 152.015625 253.472656 L 152.722656 254.640625 L 153.074219 255.226562 L 154.183594 256.945312 L 154.957031 258.074219 L 155.34375 258.636719 L 155.746094 259.1875 L 156.546875 260.289062 L 157.382812 261.371094 L 157.800781 261.910156 L 159.105469 263.488281 L 160.007812 264.515625 L 160.457031 265.027344 L 160.917969 265.527344 L 161.851562 266.527344 L 163.292969 267.980469 L 163.789062 268.445312 L 164.777344 269.382812 L 165.800781 270.292969 L 166.308594 270.742188 L 166.835938 271.179688 L 167.886719 272.046875 C 168.238281 272.332031 168.597656 272.613281 168.957031 272.886719 C 169.675781 273.4375 170.40625 273.976562 171.15625 274.496094 C 172.644531 275.53125 174.175781 276.503906 175.75 277.398438 L 176.367188 277.730469 C 176.570312 277.839844 176.777344 277.960938 176.980469 278.058594 L 177.597656 278.359375 C 177.804688 278.460938 178.007812 278.5625 178.210938 278.652344 C 178.625 278.839844 179.035156 279.042969 179.449219 279.214844 C 179.863281 279.394531 180.273438 279.574219 180.6875 279.746094 C 182.339844 280.4375 184.003906 281.066406 185.675781 281.671875 L 186.929688 282.121094 L 188.1875 282.554688 C 188.609375 282.699219 189.027344 282.835938 189.449219 282.980469 C 189.867188 283.117188 190.289062 283.257812 190.710938 283.394531 C 192.398438 283.941406 194.09375 284.457031 195.789062 284.953125 C 196.640625 285.199219 197.492188 285.445312 198.347656 285.675781 C 199.199219 285.910156 200.054688 286.132812 200.910156 286.351562 C 201.027344 286.382812 201.152344 286.324219 201.199219 286.210938 C 201.25 286.085938 201.1875 285.945312 201.066406 285.894531 " fill-opacity="1" fill-rule="nonzero"/><g clip-path="url(#3886389f84)"><path fill="#000000" d="M 199.828125 145.96875 C 202.683594 143.007812 205.515625 140.039062 208.398438 137.148438 C 211.28125 134.253906 214.210938 131.425781 217.246094 128.753906 C 217.628906 128.417969 218.007812 128.082031 218.390625 127.757812 L 219.550781 126.765625 C 220.335938 126.085938 221.128906 125.421875 221.90625 124.738281 L 223.070312 123.703125 C 223.460938 123.363281 223.847656 123.019531 224.230469 122.667969 L 225.375 121.613281 C 225.761719 121.265625 226.144531 120.914062 226.519531 120.554688 C 229.546875 117.710938 232.484375 114.753906 235.269531 111.648438 C 238.050781 108.542969 240.671875 105.28125 243.085938 101.875 C 245.492188 98.460938 247.699219 94.910156 249.691406 91.25 C 251.6875 87.59375 253.480469 83.84375 255.136719 80.046875 C 256.789062 76.246094 258.308594 72.394531 259.695312 68.503906 C 261.085938 64.613281 262.351562 60.683594 263.480469 56.707031 C 263.777344 55.71875 264.023438 54.71875 264.300781 53.722656 C 264.582031 52.726562 264.820312 51.722656 265.074219 50.722656 L 265.265625 49.96875 C 265.332031 49.71875 265.382812 49.46875 265.445312 49.214844 L 265.800781 47.707031 L 265.976562 46.953125 C 266.035156 46.699219 266.089844 46.449219 266.144531 46.195312 L 266.472656 44.679688 C 267.355469 40.636719 268.082031 36.558594 268.6875 32.460938 L 268.90625 30.921875 L 269.113281 29.402344 C 269.25 28.472656 269.46875 27.582031 269.789062 26.792969 C 269.957031 26.402344 270.148438 26.035156 270.363281 25.707031 C 270.582031 25.382812 270.828125 25.101562 271.101562 24.851562 C 271.375 24.605469 271.667969 24.398438 271.996094 24.230469 C 272.320312 24.0625 272.675781 23.933594 273.054688 23.835938 C 273.148438 23.808594 273.246094 23.789062 273.34375 23.765625 C 273.4375 23.742188 273.539062 23.726562 273.640625 23.710938 C 273.738281 23.691406 273.832031 23.683594 273.925781 23.675781 C 274.019531 23.667969 274.113281 23.648438 274.203125 23.652344 C 274.5625 23.628906 274.898438 23.664062 275.207031 23.738281 C 275.824219 23.890625 276.375 24.214844 276.886719 24.738281 C 277.394531 25.253906 277.84375 25.949219 278.222656 26.726562 C 278.601562 27.503906 278.90625 28.367188 279.160156 29.257812 C 279.289062 29.703125 279.402344 30.15625 279.503906 30.617188 C 279.550781 30.847656 279.597656 31.082031 279.644531 31.3125 L 279.769531 32.039062 C 279.8125 32.28125 279.855469 32.523438 279.894531 32.769531 L 280.003906 33.5 C 280.082031 33.984375 280.132812 34.476562 280.195312 34.964844 C 280.421875 36.925781 280.550781 38.898438 280.578125 40.886719 C 280.636719 44.859375 280.347656 48.863281 279.910156 52.882812 C 279.84375 53.515625 280.015625 54.179688 280.449219 54.710938 C 281.3125 55.773438 282.875 55.933594 283.9375 55.074219 L 283.996094 55.023438 C 284.769531 54.398438 285.621094 53.804688 286.488281 53.296875 C 286.925781 53.042969 287.363281 52.808594 287.808594 52.597656 C 288.25 52.386719 288.695312 52.207031 289.128906 52.058594 C 289.5625 51.914062 289.988281 51.800781 290.390625 51.730469 C 290.789062 51.660156 291.160156 51.640625 291.476562 51.664062 C 291.792969 51.691406 292.050781 51.753906 292.265625 51.851562 C 292.476562 51.945312 292.65625 52.070312 292.839844 52.265625 C 292.867188 52.289062 292.890625 52.3125 292.914062 52.332031 L 292.976562 52.417969 C 293.023438 52.476562 293.074219 52.523438 293.113281 52.597656 C 293.15625 52.664062 293.207031 52.730469 293.246094 52.800781 C 293.289062 52.871094 293.332031 52.945312 293.367188 53.019531 C 293.410156 53.09375 293.441406 53.179688 293.484375 53.261719 C 293.515625 53.347656 293.550781 53.425781 293.585938 53.515625 C 293.648438 53.695312 293.707031 53.890625 293.757812 54.089844 C 293.863281 54.496094 293.9375 54.949219 293.996094 55.429688 C 294.023438 55.675781 294.046875 55.921875 294.070312 56.183594 L 294.121094 56.988281 C 294.183594 58.0625 294.203125 59.148438 294.199219 60.238281 C 294.191406 60.785156 294.179688 61.332031 294.160156 61.875 L 294.121094 62.695312 C 294.109375 62.972656 294.101562 63.242188 294.078125 63.519531 C 294.035156 64.066406 294.007812 64.613281 293.949219 65.160156 C 293.902344 65.707031 293.851562 66.253906 293.78125 66.800781 L 293.6875 67.617188 C 293.652344 67.894531 293.609375 68.160156 293.574219 68.4375 L 293.457031 69.253906 L 293.324219 70.066406 C 293.144531 71.152344 292.925781 72.230469 292.695312 73.300781 C 292.636719 73.570312 292.574219 73.832031 292.507812 74.097656 L 292.316406 74.894531 C 292.246094 75.164062 292.171875 75.421875 292.101562 75.683594 C 292.027344 75.949219 291.960938 76.214844 291.878906 76.476562 L 291.644531 77.253906 L 291.523438 77.640625 L 291.394531 78.023438 L 291.132812 78.785156 C 291.09375 78.90625 291.042969 79.042969 290.992188 79.179688 L 290.84375 79.582031 L 289.664062 82.808594 C 288.875 84.957031 288.097656 87.113281 287.316406 89.265625 L 287.28125 89.355469 C 287.046875 90.027344 287.164062 90.800781 287.664062 91.371094 C 288.402344 92.214844 289.679688 92.300781 290.523438 91.566406 C 291.6875 90.550781 292.96875 89.644531 294.34375 88.910156 C 295.035156 88.539062 295.742188 88.203125 296.472656 87.917969 C 296.65625 87.847656 296.835938 87.769531 297.023438 87.707031 L 297.296875 87.609375 C 297.390625 87.574219 297.472656 87.546875 297.550781 87.523438 C 297.878906 87.414062 298.171875 87.347656 298.378906 87.328125 C 298.484375 87.316406 298.5625 87.320312 298.621094 87.324219 C 298.671875 87.328125 298.699219 87.332031 298.726562 87.339844 C 298.75 87.351562 298.773438 87.351562 298.800781 87.378906 C 298.816406 87.382812 298.828125 87.410156 298.851562 87.421875 C 298.867188 87.449219 298.890625 87.46875 298.90625 87.511719 C 298.988281 87.644531 299.0625 87.898438 299.105469 88.195312 C 299.121094 88.347656 299.136719 88.503906 299.136719 88.671875 C 299.144531 88.753906 299.136719 88.839844 299.140625 88.925781 C 299.136719 89.019531 299.136719 89.09375 299.125 89.199219 L 299.023438 90.40625 C 299.011719 90.609375 298.980469 90.808594 298.953125 91.011719 L 298.871094 91.613281 C 298.84375 91.8125 298.824219 92.019531 298.78125 92.214844 L 298.671875 92.820312 C 298.59375 93.21875 298.527344 93.625 298.421875 94.019531 C 298.066406 95.621094 297.574219 97.207031 297 98.769531 C 296.71875 99.554688 296.398438 100.332031 296.082031 101.105469 L 295.574219 102.261719 C 295.410156 102.644531 295.222656 103.023438 295.046875 103.40625 C 293.609375 106.460938 291.941406 109.4375 290.246094 112.402344 L 290.652344 112.671875 C 292.742188 109.960938 294.769531 107.183594 296.5625 104.21875 C 297.464844 102.742188 298.292969 101.210938 299.050781 99.632812 C 299.792969 98.050781 300.480469 96.425781 301.003906 94.726562 C 301.539062 93.03125 301.957031 91.289062 302.195312 89.5 C 302.21875 89.394531 302.230469 89.257812 302.242188 89.136719 C 302.253906 89.007812 302.265625 88.882812 302.269531 88.75 C 302.289062 88.496094 302.289062 88.222656 302.277344 87.949219 C 302.257812 87.667969 302.234375 87.390625 302.171875 87.085938 C 302.160156 87.011719 302.144531 86.9375 302.125 86.859375 C 302.105469 86.78125 302.085938 86.707031 302.0625 86.628906 C 302.011719 86.472656 301.964844 86.320312 301.890625 86.15625 C 301.636719 85.523438 301.109375 84.839844 300.414062 84.433594 C 300.074219 84.222656 299.695312 84.074219 299.332031 83.992188 C 298.964844 83.910156 298.621094 83.878906 298.296875 83.878906 C 297.652344 83.882812 297.097656 83.992188 296.605469 84.113281 C 296.480469 84.144531 296.359375 84.175781 296.246094 84.207031 L 295.914062 84.300781 C 295.6875 84.363281 295.46875 84.4375 295.246094 84.507812 C 294.644531 84.703125 294.046875 84.925781 293.460938 85.175781 C 293.566406 84.917969 293.675781 84.660156 293.78125 84.402344 L 295.105469 81.238281 L 295.269531 80.839844 C 295.328125 80.707031 295.378906 80.578125 295.4375 80.433594 L 295.925781 79.15625 L 296.367188 77.878906 C 297.128906 75.601562 297.71875 73.289062 298.179688 70.957031 L 298.351562 70.078125 C 298.402344 69.789062 298.453125 69.492188 298.5 69.199219 C 298.550781 68.90625 298.601562 68.613281 298.648438 68.320312 L 298.769531 67.4375 C 298.941406 66.261719 299.070312 65.078125 299.171875 63.894531 C 299.371094 61.519531 299.433594 59.125 299.3125 56.703125 L 299.261719 55.792969 C 299.238281 55.484375 299.207031 55.164062 299.171875 54.839844 C 299.097656 54.183594 298.992188 53.503906 298.8125 52.800781 C 298.722656 52.449219 298.617188 52.09375 298.484375 51.734375 C 298.421875 51.554688 298.34375 51.375 298.269531 51.195312 C 298.1875 51.011719 298.109375 50.835938 298.015625 50.65625 C 297.925781 50.476562 297.828125 50.300781 297.722656 50.125 C 297.617188 49.953125 297.5 49.78125 297.386719 49.613281 C 297.277344 49.441406 297.132812 49.273438 297 49.109375 C 296.933594 49.027344 296.867188 48.945312 296.796875 48.863281 L 296.566406 48.625 C 295.953125 47.996094 295.183594 47.453125 294.34375 47.089844 C 293.507812 46.726562 292.628906 46.546875 291.804688 46.5 C 290.976562 46.453125 290.199219 46.523438 289.472656 46.65625 C 288.746094 46.796875 288.066406 46.992188 287.425781 47.226562 C 286.636719 47.511719 285.902344 47.84375 285.199219 48.214844 C 285.21875 47.839844 285.230469 47.460938 285.242188 47.085938 C 285.304688 44.980469 285.304688 42.863281 285.207031 40.742188 C 285.117188 38.617188 284.917969 36.492188 284.605469 34.382812 C 284.523438 33.851562 284.449219 33.324219 284.351562 32.800781 L 284.207031 32.011719 C 284.15625 31.75 284.101562 31.484375 284.046875 31.226562 L 283.886719 30.4375 C 283.824219 30.167969 283.757812 29.898438 283.691406 29.628906 C 283.554688 29.089844 283.398438 28.554688 283.230469 28.015625 C 282.886719 26.941406 282.453125 25.875 281.886719 24.828125 C 281.601562 24.304688 281.28125 23.789062 280.914062 23.285156 C 280.546875 22.78125 280.117188 22.296875 279.625 21.851562 C 279.132812 21.402344 278.570312 20.992188 277.941406 20.671875 C 277.316406 20.347656 276.628906 20.113281 275.929688 19.996094 C 275.230469 19.875 274.527344 19.863281 273.867188 19.949219 C 273.699219 19.960938 273.542969 19.992188 273.378906 20.019531 C 273.214844 20.046875 273.054688 20.070312 272.90625 20.109375 C 272.753906 20.144531 272.601562 20.179688 272.449219 20.226562 C 272.300781 20.265625 272.148438 20.3125 271.996094 20.363281 C 271.390625 20.566406 270.792969 20.835938 270.226562 21.179688 C 269.664062 21.527344 269.140625 21.953125 268.679688 22.425781 C 268.226562 22.910156 267.839844 23.441406 267.523438 23.996094 C 267.214844 24.546875 266.96875 25.121094 266.777344 25.691406 C 266.402344 26.839844 266.226562 27.976562 266.144531 29.085938 L 266.050781 30.632812 L 265.945312 32.164062 C 265.371094 40.296875 264.136719 48.410156 262.027344 56.3125 C 260.976562 60.261719 259.726562 64.160156 258.261719 67.972656 C 256.789062 71.785156 255.109375 75.515625 253.21875 79.132812 C 251.332031 82.746094 249.246094 86.253906 247.015625 89.648438 C 244.78125 93.035156 242.382812 96.300781 239.867188 99.472656 C 237.355469 102.644531 234.730469 105.722656 232.019531 108.730469 C 229.304688 111.738281 226.496094 114.667969 223.59375 117.519531 C 223.238281 117.878906 222.871094 118.230469 222.507812 118.582031 L 221.410156 119.644531 C 221.046875 120 220.671875 120.34375 220.300781 120.695312 L 219.191406 121.746094 C 218.449219 122.441406 217.695312 123.132812 216.949219 123.828125 L 215.808594 124.882812 C 215.421875 125.238281 215.046875 125.601562 214.671875 125.964844 C 213.167969 127.414062 211.710938 128.902344 210.289062 130.417969 C 208.867188 131.933594 207.488281 133.484375 206.132812 135.050781 C 205.453125 135.828125 204.785156 136.621094 204.121094 137.414062 C 203.457031 138.203125 202.796875 139 202.148438 139.796875 L 200.207031 142.207031 C 199.5625 143.011719 198.925781 143.820312 198.289062 144.632812 C 195.738281 147.871094 193.261719 151.171875 190.910156 154.5625 L 191.285156 154.867188 C 194.144531 151.902344 196.96875 148.917969 199.828125 145.96875 " fill-opacity="1" fill-rule="nonzero"/></g><g clip-path="url(#36fd159ced)"><path fill="#000000" d="M 289.984375 342.050781 C 289.976562 342.0625 289.972656 342.078125 289.96875 342.089844 C 289.96875 342.089844 289.964844 342.089844 289.964844 342.089844 L 289.988281 342.023438 C 289.992188 342.011719 289.984375 342.046875 289.984375 342.050781 Z M 288.625 342.65625 C 288.621094 342.652344 288.585938 342.632812 288.601562 342.644531 L 288.632812 342.65625 C 288.632812 342.65625 288.628906 342.65625 288.625 342.65625 Z M 239.160156 331.925781 L 239.171875 331.875 C 239.183594 331.824219 239.175781 331.871094 239.160156 331.925781 Z M 372.488281 77.492188 C 372.484375 77.292969 372.484375 77.09375 372.464844 76.894531 C 372.425781 76.09375 372.289062 75.277344 372.054688 74.46875 C 371.820312 73.664062 371.46875 72.867188 370.972656 72.136719 C 370.480469 71.414062 369.855469 70.769531 369.148438 70.257812 C 368.445312 69.742188 367.671875 69.355469 366.890625 69.070312 C 366.105469 68.78125 365.304688 68.597656 364.511719 68.476562 C 362.921875 68.234375 361.351562 68.242188 359.816406 68.367188 C 358.28125 68.488281 356.777344 68.738281 355.296875 69.0625 C 355.082031 69.109375 354.867188 69.160156 354.648438 69.214844 C 354.769531 68.976562 354.890625 68.738281 355.011719 68.5 C 355.683594 67.113281 356.296875 65.703125 356.851562 64.273438 C 357.398438 62.839844 357.890625 61.390625 358.328125 59.921875 C 358.441406 59.558594 358.539062 59.1875 358.648438 58.816406 C 358.746094 58.445312 358.851562 58.074219 358.945312 57.703125 C 358.992188 57.515625 359.039062 57.328125 359.085938 57.136719 L 359.152344 56.851562 L 359.214844 56.570312 L 359.476562 55.527344 C 359.839844 54.105469 360.21875 52.652344 360.578125 51.195312 C 360.941406 49.730469 361.28125 48.25 361.570312 46.738281 C 361.855469 45.230469 362.09375 43.695312 362.234375 42.136719 C 362.375 40.574219 362.402344 38.980469 362.300781 37.386719 L 362.265625 36.785156 C 362.246094 36.585938 362.222656 36.386719 362.195312 36.183594 L 362.128906 35.585938 L 362.113281 35.433594 C 362.105469 35.386719 362.101562 35.335938 362.089844 35.28125 L 362.039062 34.945312 C 361.953125 34.503906 361.851562 34.058594 361.707031 33.617188 C 361.640625 33.394531 361.554688 33.175781 361.472656 32.957031 C 361.378906 32.738281 361.292969 32.519531 361.183594 32.308594 C 360.976562 31.878906 360.722656 31.457031 360.429688 31.054688 C 360.136719 30.65625 359.796875 30.269531 359.410156 29.925781 C 359.019531 29.574219 358.585938 29.265625 358.113281 29.003906 C 357.644531 28.746094 357.125 28.554688 356.597656 28.417969 C 356.074219 28.289062 355.527344 28.226562 354.996094 28.226562 C 354.464844 28.234375 353.941406 28.296875 353.445312 28.40625 C 352.457031 28.640625 351.5625 29.039062 350.78125 29.523438 C 349.226562 30.480469 347.972656 31.761719 346.972656 33.128906 C 345.972656 34.5 345.210938 35.960938 344.574219 37.414062 C 343.964844 38.804688 343.390625 40.195312 342.828125 41.582031 C 341.691406 44.34375 340.601562 47.078125 339.371094 49.699219 C 338.757812 50.992188 338.089844 52.320312 337.421875 53.625 C 336.746094 54.929688 336.054688 56.226562 335.351562 57.523438 C 333.941406 60.109375 332.46875 62.664062 330.957031 65.203125 L 326.382812 72.863281 C 324.851562 75.40625 323.300781 77.925781 321.71875 80.417969 C 320.132812 82.90625 318.507812 85.363281 316.8125 87.761719 C 316.382812 88.355469 315.960938 88.957031 315.527344 89.546875 L 314.878906 90.433594 C 314.660156 90.730469 314.441406 91.023438 314.21875 91.3125 C 313.34375 92.480469 312.417969 93.625 311.507812 94.777344 C 311.050781 95.351562 310.570312 95.90625 310.105469 96.472656 L 309.402344 97.320312 C 309.167969 97.605469 308.921875 97.878906 308.6875 98.15625 L 307.242188 99.824219 L 305.765625 101.457031 L 305.023438 102.273438 L 304.269531 103.074219 L 302.753906 104.675781 L 301.207031 106.25 C 300.949219 106.515625 300.695312 106.78125 300.433594 107.035156 L 299.644531 107.808594 C 291.253906 116.066406 281.960938 123.417969 272.121094 129.949219 L 270.269531 131.164062 C 269.652344 131.566406 269.023438 131.957031 268.398438 132.351562 L 267.464844 132.945312 C 267.152344 133.144531 266.835938 133.332031 266.519531 133.527344 L 264.632812 134.683594 C 264 135.066406 263.359375 135.4375 262.726562 135.816406 L 261.773438 136.382812 C 261.453125 136.566406 261.128906 136.746094 260.808594 136.929688 L 258.882812 138.03125 L 256.941406 139.105469 L 255.96875 139.636719 L 254.992188 140.160156 L 253.03125 141.203125 L 251.058594 142.214844 L 250.070312 142.71875 L 249.074219 143.210938 L 247.085938 144.1875 L 245.082031 145.144531 C 244.417969 145.464844 243.742188 145.773438 243.070312 146.078125 C 242.394531 146.386719 241.726562 146.699219 241.050781 147.003906 C 239.695312 147.597656 238.34375 148.207031 236.976562 148.773438 L 235.953125 149.203125 C 235.613281 149.351562 235.269531 149.496094 234.925781 149.632812 L 232.871094 150.46875 C 232.183594 150.746094 231.492188 151.011719 230.804688 151.28125 L 228.722656 152.097656 C 228.023438 152.371094 227.320312 152.640625 226.625 152.933594 C 225.929688 153.21875 225.230469 153.503906 224.546875 153.808594 C 221.777344 155 219.058594 156.304688 216.410156 157.75 C 215.089844 158.488281 213.777344 159.230469 212.5 160.042969 C 211.855469 160.4375 211.226562 160.863281 210.59375 161.277344 L 209.664062 161.925781 C 209.507812 162.035156 209.351562 162.140625 209.199219 162.25 L 208.742188 162.585938 L 208.285156 162.925781 C 208.128906 163.035156 207.980469 163.148438 207.832031 163.265625 L 206.933594 163.964844 C 206.347656 164.445312 205.757812 164.921875 205.191406 165.429688 C 204.050781 166.425781 202.953125 167.480469 201.921875 168.601562 C 199.863281 170.835938 198.0625 173.339844 196.734375 176.085938 C 196.644531 176.257812 196.570312 176.433594 196.492188 176.605469 C 196.414062 176.78125 196.332031 176.953125 196.257812 177.128906 C 196.113281 177.484375 195.960938 177.832031 195.835938 178.191406 C 195.5625 178.90625 195.339844 179.636719 195.136719 180.371094 C 194.746094 181.847656 194.503906 183.359375 194.433594 184.878906 C 194.359375 186.398438 194.453125 187.925781 194.722656 189.417969 C 194.855469 190.160156 195.027344 190.902344 195.25 191.625 C 195.363281 191.984375 195.484375 192.347656 195.621094 192.699219 C 195.761719 193.054688 195.902344 193.398438 196.085938 193.75 L 196.515625 193.53125 C 196.371094 193.210938 196.246094 192.859375 196.128906 192.519531 C 196.015625 192.171875 195.914062 191.820312 195.820312 191.464844 C 195.640625 190.757812 195.507812 190.035156 195.410156 189.3125 C 195.222656 187.859375 195.199219 186.390625 195.328125 184.941406 C 195.457031 183.488281 195.75 182.054688 196.179688 180.667969 C 196.394531 179.976562 196.636719 179.289062 196.921875 178.621094 C 197.054688 178.285156 197.21875 177.960938 197.367188 177.628906 C 197.441406 177.460938 197.527344 177.304688 197.609375 177.140625 C 197.691406 176.976562 197.765625 176.8125 197.859375 176.65625 C 199.222656 174.089844 201.019531 171.761719 203.074219 169.695312 C 204.101562 168.660156 205.1875 167.675781 206.316406 166.753906 C 206.878906 166.285156 207.460938 165.84375 208.042969 165.398438 L 208.933594 164.753906 C 209.078125 164.644531 209.226562 164.542969 209.382812 164.4375 L 210.289062 163.816406 C 210.4375 163.714844 210.59375 163.617188 210.75 163.515625 L 211.671875 162.917969 C 212.296875 162.535156 212.914062 162.140625 213.554688 161.777344 C 214.8125 161.027344 216.117188 160.339844 217.421875 159.664062 C 220.046875 158.332031 222.738281 157.136719 225.472656 156.039062 C 226.15625 155.757812 226.847656 155.5 227.535156 155.238281 C 228.222656 154.96875 228.917969 154.722656 229.613281 154.472656 L 231.71875 153.714844 L 232.773438 153.335938 C 233.125 153.207031 233.480469 153.082031 233.828125 152.945312 L 235.933594 152.152344 C 236.28125 152.019531 236.632812 151.882812 236.980469 151.742188 L 238.027344 151.332031 C 239.425781 150.789062 240.804688 150.207031 242.195312 149.636719 C 244.953125 148.460938 247.707031 147.265625 250.414062 145.972656 L 251.433594 145.496094 L 254.46875 144.019531 L 256.480469 143.003906 L 257.484375 142.496094 L 258.480469 141.972656 L 260.476562 140.925781 L 262.453125 139.84375 C 262.78125 139.664062 263.113281 139.488281 263.4375 139.304688 L 264.421875 138.75 C 265.070312 138.375 265.726562 138.011719 266.375 137.632812 C 267.667969 136.867188 268.972656 136.125 270.25 135.332031 C 270.890625 134.9375 271.53125 134.550781 272.171875 134.152344 L 274.078125 132.945312 C 284.199219 126.464844 293.785156 119.085938 302.46875 110.710938 L 303.285156 109.925781 C 303.558594 109.664062 303.820312 109.394531 304.089844 109.128906 L 305.691406 107.53125 L 308.042969 105.085938 L 310.34375 102.582031 L 311.839844 100.882812 C 312.089844 100.601562 312.34375 100.320312 312.585938 100.03125 L 314.046875 98.300781 C 314.285156 98.011719 314.539062 97.726562 314.773438 97.429688 C 315.714844 96.25 316.675781 95.082031 317.589844 93.875 C 317.824219 93.574219 318.054688 93.273438 318.277344 92.96875 L 318.957031 92.0625 C 319.40625 91.453125 319.847656 90.839844 320.292969 90.230469 C 322.046875 87.769531 323.726562 85.265625 325.351562 82.742188 C 326.980469 80.214844 328.550781 77.664062 330.101562 75.105469 C 331.652344 72.550781 333.179688 69.996094 334.710938 67.4375 C 336.253906 64.859375 337.746094 62.25 339.183594 59.605469 C 339.902344 58.28125 340.605469 56.949219 341.289062 55.605469 C 341.632812 54.933594 341.972656 54.257812 342.304688 53.582031 C 342.472656 53.242188 342.636719 52.910156 342.804688 52.5625 C 342.972656 52.214844 343.136719 51.871094 343.292969 51.523438 C 344.582031 48.742188 345.679688 45.933594 346.777344 43.175781 C 347.328125 41.796875 347.878906 40.433594 348.449219 39.085938 C 348.992188 37.808594 349.609375 36.609375 350.355469 35.566406 C 351.097656 34.519531 351.96875 33.632812 352.949219 33.011719 C 353.1875 32.859375 353.425781 32.734375 353.667969 32.625 C 353.90625 32.515625 354.144531 32.4375 354.371094 32.375 C 354.601562 32.320312 354.824219 32.292969 355.035156 32.285156 C 355.25 32.277344 355.453125 32.300781 355.648438 32.34375 C 356.039062 32.429688 356.402344 32.621094 356.746094 32.914062 C 356.917969 33.058594 357.074219 33.234375 357.226562 33.433594 C 357.378906 33.625 357.515625 33.84375 357.636719 34.082031 C 357.699219 34.195312 357.75 34.324219 357.808594 34.449219 C 357.859375 34.578125 357.914062 34.703125 357.953125 34.835938 C 358.050781 35.105469 358.121094 35.382812 358.179688 35.671875 L 358.21875 35.886719 C 358.226562 35.917969 358.230469 35.964844 358.234375 36.007812 L 358.253906 36.136719 L 358.320312 36.644531 C 358.34375 36.8125 358.367188 36.980469 358.386719 37.152344 L 358.429688 37.667969 C 358.539062 39.039062 358.546875 40.433594 358.441406 41.835938 C 358.34375 43.246094 358.160156 44.660156 357.921875 46.082031 C 357.683594 47.503906 357.386719 48.933594 357.0625 50.367188 C 356.746094 51.808594 356.402344 53.246094 356.0625 54.71875 L 355.808594 55.847656 L 355.757812 56.113281 L 355.703125 56.371094 C 355.667969 56.542969 355.628906 56.71875 355.585938 56.894531 C 355.511719 57.242188 355.417969 57.59375 355.335938 57.941406 C 355.246094 58.292969 355.160156 58.644531 355.0625 58.992188 C 354.679688 60.386719 354.246094 61.769531 353.765625 63.128906 C 353.277344 64.492188 352.734375 65.828125 352.140625 67.136719 C 351.539062 68.441406 350.867188 69.699219 350.140625 70.917969 L 350.117188 70.957031 C 349.886719 71.347656 349.828125 71.832031 350.007812 72.289062 C 350.316406 73.078125 351.230469 73.449219 352.023438 73.144531 L 352.203125 73.078125 L 352.445312 72.992188 L 352.9375 72.820312 C 353.269531 72.707031 353.601562 72.597656 353.9375 72.5 C 354.609375 72.292969 355.289062 72.101562 355.96875 71.933594 C 357.332031 71.597656 358.707031 71.335938 360.082031 71.1875 C 361.453125 71.042969 362.824219 71.007812 364.125 71.175781 C 365.429688 71.335938 366.660156 71.710938 367.628906 72.382812 C 368.113281 72.71875 368.53125 73.121094 368.867188 73.597656 C 369.210938 74.070312 369.472656 74.613281 369.660156 75.199219 C 369.84375 75.789062 369.976562 76.417969 370.023438 77.074219 C 370.042969 77.234375 370.050781 77.398438 370.054688 77.570312 C 370.058594 77.734375 370.074219 77.898438 370.066406 78.066406 C 370.0625 78.402344 370.0625 78.734375 370.03125 79.074219 C 369.941406 80.4375 369.691406 81.8125 369.347656 83.179688 C 369.003906 84.546875 368.5625 85.902344 368.074219 87.242188 C 367.953125 87.578125 367.832031 87.914062 367.699219 88.25 L 367.304688 89.25 C 367.171875 89.582031 367.027344 89.90625 366.890625 90.234375 L 366.679688 90.722656 L 366.628906 90.839844 L 366.578125 90.949219 L 366.457031 91.195312 C 365.824219 92.492188 365.167969 93.792969 364.503906 95.082031 C 363.171875 97.660156 361.785156 100.21875 360.339844 102.734375 C 358.890625 105.25 357.386719 107.730469 355.777344 110.132812 C 354.96875 111.332031 354.140625 112.515625 353.265625 113.652344 C 352.390625 114.796875 351.476562 115.902344 350.492188 116.914062 L 350.488281 116.921875 C 350.292969 117.128906 350.207031 117.421875 350.296875 117.714844 C 350.421875 118.128906 350.867188 118.355469 351.289062 118.257812 C 351.421875 118.222656 351.570312 118.191406 351.710938 118.164062 C 351.867188 118.125 352.023438 118.097656 352.175781 118.066406 C 352.488281 118.003906 352.804688 117.953125 353.117188 117.902344 C 353.746094 117.800781 354.378906 117.722656 355.011719 117.664062 C 356.28125 117.554688 357.550781 117.53125 358.78125 117.664062 C 359.394531 117.730469 360 117.84375 360.574219 118.011719 C 361.148438 118.175781 361.683594 118.414062 362.148438 118.722656 L 362.238281 118.777344 L 362.484375 118.964844 L 362.714844 119.171875 C 362.738281 119.195312 362.761719 119.21875 362.78125 119.242188 L 362.921875 119.390625 C 362.964844 119.4375 363.003906 119.492188 363.046875 119.546875 C 363.136719 119.644531 363.195312 119.765625 363.273438 119.875 C 363.546875 120.335938 363.707031 120.867188 363.769531 121.433594 C 363.832031 121.996094 363.792969 122.589844 363.699219 123.1875 C 363.660156 123.484375 363.585938 123.785156 363.515625 124.082031 C 363.429688 124.382812 363.355469 124.679688 363.253906 124.976562 C 362.867188 126.160156 362.332031 127.320312 361.726562 128.449219 C 361.125 129.574219 360.460938 130.679688 359.746094 131.757812 C 359.039062 132.832031 358.28125 133.898438 357.523438 134.921875 C 357.425781 135.054688 357.328125 135.164062 357.230469 135.289062 L 356.917969 135.667969 L 355.046875 137.9375 L 352.539062 140.957031 C 350.863281 142.96875 349.1875 144.972656 347.496094 146.964844 C 345.804688 148.960938 344.109375 150.949219 342.386719 152.910156 C 341.960938 153.40625 341.523438 153.894531 341.09375 154.382812 L 340.445312 155.113281 L 339.132812 156.554688 L 338.464844 157.261719 L 338.132812 157.613281 L 337.96875 157.792969 L 337.800781 157.957031 L 337.125 158.625 L 337.113281 158.632812 C 337.023438 158.722656 336.953125 158.839844 336.910156 158.96875 C 336.78125 159.398438 337.019531 159.851562 337.449219 159.984375 C 337.503906 159.996094 337.589844 160.027344 337.664062 160.054688 L 337.894531 160.136719 C 338.046875 160.191406 338.203125 160.253906 338.355469 160.316406 C 338.660156 160.445312 338.964844 160.585938 339.265625 160.734375 C 339.863281 161.027344 340.449219 161.359375 341 161.730469 C 341.558594 162.097656 342.085938 162.5 342.582031 162.9375 C 343.078125 163.375 343.535156 163.847656 343.949219 164.355469 C 344.78125 165.363281 345.429688 166.507812 345.835938 167.738281 C 346.039062 168.351562 346.1875 168.984375 346.277344 169.628906 C 346.363281 170.273438 346.398438 170.925781 346.382812 171.582031 C 346.363281 172.234375 346.308594 172.894531 346.195312 173.546875 L 346.15625 173.792969 L 346.105469 174.039062 C 346.070312 174.203125 346.042969 174.367188 346.003906 174.53125 C 345.921875 174.851562 345.847656 175.175781 345.753906 175.5 C 345.570312 176.144531 345.347656 176.78125 345.109375 177.414062 C 344.859375 178.039062 344.59375 178.664062 344.300781 179.273438 C 343.132812 181.714844 341.640625 184.011719 340 186.207031 C 339.644531 186.601562 339.265625 187.011719 338.886719 187.410156 C 338.503906 187.816406 338.113281 188.21875 337.71875 188.621094 C 336.933594 189.421875 336.132812 190.210938 335.320312 190.988281 C 333.695312 192.535156 332.019531 194.03125 330.289062 195.445312 C 329.425781 196.152344 328.542969 196.835938 327.648438 197.496094 C 326.753906 198.160156 325.839844 198.785156 324.910156 199.375 C 324.445312 199.679688 323.972656 199.953125 323.5 200.234375 C 323.023438 200.5 322.546875 200.769531 322.0625 201.007812 C 321.09375 201.5 320.105469 201.929688 319.109375 202.261719 C 318.820312 202.359375 318.5625 202.558594 318.394531 202.84375 C 318.050781 203.433594 318.25 204.195312 318.808594 204.582031 L 318.832031 204.597656 L 318.921875 204.660156 L 319.03125 204.738281 C 319.105469 204.789062 319.179688 204.84375 319.25 204.902344 C 319.398438 205.011719 319.546875 205.132812 319.6875 205.25 C 319.976562 205.492188 320.25 205.746094 320.511719 206.007812 C 321.035156 206.53125 321.503906 207.101562 321.871094 207.695312 C 322.238281 208.285156 322.503906 208.902344 322.628906 209.515625 C 322.75 210.125 322.726562 210.722656 322.558594 211.308594 C 322.394531 211.894531 322.074219 212.464844 321.664062 213.003906 C 321.238281 213.542969 320.726562 214.054688 320.152344 214.519531 C 319.003906 215.453125 317.652344 216.242188 316.246094 216.9375 C 316.210938 216.953125 316.183594 216.96875 316.152344 216.988281 L 316.058594 217.046875 L 315.863281 217.171875 C 315.792969 217.214844 315.710938 217.265625 315.636719 217.308594 C 315.484375 217.398438 315.328125 217.488281 315.167969 217.578125 L 314.929688 217.710938 L 314.6875 217.835938 C 314.519531 217.921875 314.359375 218.007812 314.191406 218.089844 L 313.691406 218.335938 L 313.441406 218.453125 L 313.1875 218.566406 C 312.847656 218.714844 312.511719 218.867188 312.164062 219.003906 C 311.820312 219.140625 311.476562 219.285156 311.125 219.40625 L 310.332031 219.691406 C 310.246094 219.71875 310.15625 219.746094 310.066406 219.777344 L 309 220.109375 L 307.917969 220.402344 C 307.5625 220.507812 307.195312 220.574219 306.832031 220.660156 C 306.464844 220.738281 306.105469 220.832031 305.734375 220.886719 L 304.636719 221.078125 C 304.453125 221.117188 304.269531 221.128906 304.082031 221.152344 L 303.527344 221.222656 C 302.792969 221.332031 302.046875 221.363281 301.304688 221.421875 C 300.933594 221.457031 300.5625 221.445312 300.1875 221.457031 L 299.074219 221.480469 C 298.488281 221.488281 297.898438 221.796875 297.566406 222.394531 C 297.195312 223.066406 297.339844 223.910156 297.878906 224.457031 L 297.988281 224.566406 L 298.109375 224.691406 L 298.351562 224.945312 C 298.511719 225.117188 298.671875 225.296875 298.824219 225.480469 C 299.136719 225.839844 299.441406 226.210938 299.726562 226.589844 C 300.300781 227.347656 300.820312 228.136719 301.253906 228.941406 C 301.683594 229.746094 302.023438 230.570312 302.210938 231.367188 C 302.40625 232.164062 302.429688 232.925781 302.273438 233.585938 C 302.113281 234.242188 301.78125 234.828125 301.257812 235.363281 C 301 235.628906 300.695312 235.878906 300.355469 236.109375 C 300.019531 236.34375 299.652344 236.558594 299.257812 236.75 C 299.066406 236.855469 298.855469 236.9375 298.65625 237.03125 L 297.960938 237.316406 L 296.574219 237.890625 C 296.34375 237.988281 296.109375 238.070312 295.875 238.160156 L 295.171875 238.417969 L 294.464844 238.679688 C 294.230469 238.765625 294 238.859375 293.757812 238.933594 C 289.972656 240.234375 286.078125 241.207031 282.132812 241.882812 C 281.644531 241.976562 281.144531 242.039062 280.648438 242.113281 L 279.164062 242.324219 L 277.671875 242.488281 C 277.171875 242.539062 276.679688 242.605469 276.179688 242.636719 L 274.679688 242.75 C 274.429688 242.761719 274.179688 242.789062 273.929688 242.800781 L 271.679688 242.894531 C 271.179688 242.910156 270.679688 242.90625 270.179688 242.910156 L 269.054688 242.921875 C 268.929688 242.921875 268.804688 242.914062 268.679688 242.914062 L 266.429688 242.855469 L 265.679688 242.8125 L 264.183594 242.726562 C 263.933594 242.714844 263.6875 242.683594 263.433594 242.664062 L 261.941406 242.523438 C 261.691406 242.5 261.445312 242.484375 261.195312 242.445312 L 259.710938 242.257812 L 258.964844 242.167969 L 258.226562 242.054688 C 254.300781 241.449219 250.417969 240.441406 246.585938 239.214844 C 244.667969 238.59375 242.757812 237.925781 240.859375 237.210938 L 239.433594 236.675781 C 238.964844 236.492188 238.5 236.3125 238.039062 236.121094 C 237.574219 235.9375 237.121094 235.738281 236.660156 235.546875 C 236.207031 235.347656 235.746094 235.148438 235.296875 234.9375 C 234.390625 234.527344 233.5 234.09375 232.621094 233.640625 C 231.738281 233.191406 230.875 232.710938 230.023438 232.214844 C 229.175781 231.722656 228.351562 231.191406 227.539062 230.652344 C 226.734375 230.109375 225.957031 229.53125 225.199219 228.941406 C 225.1875 228.933594 225.167969 228.914062 225.15625 228.90625 C 224.125 228.109375 222.644531 228.300781 221.851562 229.332031 C 221.398438 229.910156 221.25 230.683594 221.441406 231.386719 C 221.617188 232.027344 221.933594 232.640625 222.160156 233.257812 C 222.859375 235.152344 223.351562 237.113281 224.035156 239.011719 C 224.222656 239.53125 224.421875 240.050781 224.609375 240.570312 C 224.671875 240.734375 224.730469 240.902344 224.792969 241.070312 L 225.960938 244.242188 L 226.546875 245.824219 L 226.839844 246.617188 L 227.144531 247.40625 C 227.554688 248.457031 227.96875 249.507812 228.386719 250.554688 C 229.234375 252.644531 230.109375 254.726562 231.011719 256.796875 C 232.820312 260.9375 234.757812 265.027344 236.84375 269.050781 C 238.933594 273.066406 241.171875 277.019531 243.574219 280.871094 C 248.390625 288.574219 253.917969 295.886719 260.21875 302.5 C 260.613281 302.910156 261.003906 303.324219 261.40625 303.730469 L 262.617188 304.945312 L 263.839844 306.144531 C 264.25 306.546875 264.667969 306.929688 265.082031 307.324219 C 266.75 308.886719 268.464844 310.398438 270.226562 311.863281 C 271.988281 313.328125 273.789062 314.71875 275.617188 316.085938 C 277.449219 317.441406 279.316406 318.742188 281.203125 320.011719 C 283.09375 321.277344 285.011719 322.492188 286.945312 323.683594 C 288.886719 324.855469 290.84375 326 292.824219 327.105469 C 294.804688 328.203125 296.792969 329.28125 298.804688 330.316406 C 299.304688 330.574219 299.8125 330.828125 300.316406 331.085938 L 301.074219 331.46875 L 301.832031 331.84375 C 302.84375 332.347656 303.855469 332.847656 304.878906 333.332031 C 305.902344 333.820312 306.929688 334.300781 307.957031 334.769531 L 309.507812 335.46875 L 310.285156 335.8125 C 310.535156 335.921875 310.773438 336.03125 311.015625 336.140625 C 311.964844 336.574219 312.855469 337.03125 313.628906 337.542969 C 314.015625 337.792969 314.371094 338.0625 314.675781 338.335938 C 314.832031 338.472656 314.96875 338.613281 315.097656 338.75 C 315.21875 338.886719 315.339844 339.027344 315.429688 339.164062 C 315.535156 339.300781 315.605469 339.433594 315.679688 339.566406 C 315.738281 339.699219 315.800781 339.824219 315.835938 339.957031 C 315.882812 340.082031 315.898438 340.210938 315.921875 340.347656 C 315.925781 340.414062 315.933594 340.480469 315.9375 340.550781 C 315.929688 340.621094 315.941406 340.6875 315.933594 340.765625 L 315.929688 340.875 C 315.925781 340.882812 315.925781 340.894531 315.925781 340.902344 L 315.917969 340.953125 C 315.917969 341.003906 315.894531 341.050781 315.890625 341.097656 C 315.859375 341.199219 315.832031 341.304688 315.769531 341.414062 L 315.75 341.453125 L 315.726562 341.496094 L 315.675781 341.578125 C 315.636719 341.632812 315.609375 341.695312 315.558594 341.746094 C 315.480469 341.863281 315.371094 341.972656 315.261719 342.082031 C 315.035156 342.296875 314.761719 342.496094 314.46875 342.644531 C 314.402344 342.683594 314.316406 342.71875 314.234375 342.757812 C 314.148438 342.792969 314.0625 342.828125 313.972656 342.863281 C 313.796875 342.929688 313.601562 342.984375 313.40625 343.035156 C 312.613281 343.238281 311.675781 343.3125 310.648438 343.316406 C 308.550781 343.324219 306.433594 343.15625 304.335938 342.847656 C 302.234375 342.527344 300.152344 342.050781 298.101562 341.453125 C 297.84375 341.386719 297.589844 341.300781 297.335938 341.222656 L 296.574219 340.980469 L 295.8125 340.722656 C 295.558594 340.636719 295.304688 340.550781 295.054688 340.457031 L 294.304688 340.175781 C 294.050781 340.085938 293.804688 339.980469 293.554688 339.882812 C 293.304688 339.78125 293.054688 339.6875 292.808594 339.582031 L 292.070312 339.265625 L 291.703125 339.105469 L 291.335938 338.941406 L 290.605469 338.609375 L 290.441406 338.535156 C 290.351562 338.496094 290.265625 338.457031 290.167969 338.425781 C 289.984375 338.363281 289.792969 338.316406 289.597656 338.285156 C 289.207031 338.222656 288.804688 338.222656 288.417969 338.292969 C 288.035156 338.363281 287.660156 338.5 287.320312 338.691406 C 286.980469 338.886719 286.667969 339.140625 286.410156 339.4375 C 286.144531 339.734375 285.945312 340.082031 285.800781 340.445312 L 285.75 340.582031 L 285.707031 340.707031 L 285.679688 340.796875 L 285.621094 340.976562 C 285.546875 341.226562 285.460938 341.476562 285.378906 341.726562 C 285.289062 341.976562 285.207031 342.230469 285.113281 342.480469 L 284.980469 342.851562 L 284.925781 342.996094 L 284.851562 343.15625 C 284.492188 344.023438 284.035156 344.820312 283.492188 345.496094 C 282.949219 346.164062 282.3125 346.691406 281.621094 347.054688 C 280.925781 347.414062 280.160156 347.597656 279.332031 347.621094 C 279.28125 347.625 279.226562 347.628906 279.179688 347.628906 L 279.019531 347.621094 L 278.703125 347.609375 C 278.597656 347.613281 278.476562 347.589844 278.363281 347.578125 L 278.019531 347.535156 C 277.785156 347.515625 277.558594 347.457031 277.324219 347.410156 C 277.207031 347.386719 277.09375 347.371094 276.980469 347.34375 L 276.632812 347.25 C 276.40625 347.183594 276.171875 347.128906 275.945312 347.042969 L 275.605469 346.925781 C 275.496094 346.886719 275.378906 346.847656 275.269531 346.800781 L 274.601562 346.519531 L 273.949219 346.191406 C 273.09375 345.738281 272.277344 345.195312 271.519531 344.582031 L 270.96875 344.105469 L 270.449219 343.597656 C 270.359375 343.515625 270.285156 343.421875 270.203125 343.335938 L 269.960938 343.066406 C 269.792969 342.890625 269.652344 342.695312 269.507812 342.507812 C 268.921875 341.753906 268.429688 340.941406 268.0625 340.089844 L 268.039062 340.035156 C 267.800781 339.488281 267.316406 339.050781 266.6875 338.894531 C 265.613281 338.621094 264.519531 339.300781 264.238281 340.371094 C 263.90625 341.632812 263.527344 342.875 263.078125 344.066406 C 262.625 345.269531 262.097656 346.425781 261.46875 347.476562 C 260.847656 348.523438 260.113281 349.460938 259.285156 350.152344 C 258.871094 350.496094 258.429688 350.773438 257.980469 350.976562 C 257.519531 351.179688 257.042969 351.3125 256.566406 351.359375 C 255.613281 351.464844 254.550781 351.246094 253.53125 350.773438 C 253.019531 350.539062 252.523438 350.242188 252.046875 349.90625 C 251.929688 349.816406 251.808594 349.734375 251.695312 349.644531 C 251.578125 349.550781 251.464844 349.460938 251.351562 349.367188 L 251.019531 349.074219 L 250.671875 348.738281 C 249.742188 347.859375 248.894531 346.882812 248.085938 345.859375 C 247.28125 344.84375 246.546875 343.742188 245.84375 342.621094 C 244.441406 340.371094 243.214844 337.957031 242 335.507812 C 241.390625 334.28125 240.785156 333.042969 240.160156 331.800781 L 239.691406 330.871094 L 239.632812 330.753906 C 239.636719 330.765625 239.597656 330.6875 239.566406 330.636719 C 239.535156 330.582031 239.5 330.53125 239.464844 330.476562 C 239.382812 330.371094 239.300781 330.269531 239.195312 330.183594 C 238.988281 330 238.738281 329.867188 238.480469 329.792969 C 238.222656 329.71875 237.964844 329.703125 237.707031 329.738281 C 237.453125 329.773438 237.207031 329.863281 236.980469 330.003906 C 236.753906 330.144531 236.550781 330.34375 236.402344 330.574219 C 236.332031 330.683594 236.273438 330.804688 236.230469 330.925781 C 236.1875 331.03125 236.144531 331.210938 236.152344 331.183594 L 236.132812 331.28125 C 236.066406 331.554688 235.980469 331.851562 235.882812 332.152344 C 235.785156 332.464844 235.675781 332.761719 235.554688 333.152344 C 235.367188 333.746094 235.152344 334.316406 234.890625 334.839844 C 234.632812 335.367188 234.328125 335.835938 233.988281 336.207031 C 233.820312 336.402344 233.640625 336.546875 233.460938 336.6875 C 233.414062 336.722656 233.367188 336.746094 233.316406 336.773438 C 233.273438 336.800781 233.230469 336.839844 233.179688 336.859375 C 233.132812 336.882812 233.085938 336.902344 233.035156 336.925781 L 232.964844 336.964844 L 232.890625 336.984375 C 232.839844 337.003906 232.792969 337.019531 232.742188 337.039062 C 232.695312 337.058594 232.640625 337.058594 232.585938 337.074219 L 232.433594 337.109375 C 232.386719 337.113281 232.339844 337.125 232.292969 337.121094 C 232.097656 337.136719 231.882812 337.121094 231.644531 337.070312 C 231.414062 337.023438 231.164062 336.941406 230.90625 336.839844 C 230.648438 336.734375 230.386719 336.609375 230.113281 336.457031 L 229.703125 336.222656 C 229.5625 336.140625 229.425781 336.070312 229.292969 335.980469 L 228.890625 335.722656 L 228.6875 335.59375 C 228.621094 335.546875 228.558594 335.5 228.492188 335.453125 C 227.4375 334.71875 226.449219 333.871094 225.507812 332.949219 C 223.628906 331.101562 221.960938 328.984375 220.398438 326.777344 C 219.609375 325.675781 218.878906 324.527344 218.128906 323.394531 L 217.992188 323.183594 L 217.859375 322.964844 L 216.527344 320.792969 L 216.019531 319.910156 C 215.683594 319.320312 215.335938 318.730469 215.007812 318.136719 L 214.046875 316.335938 C 213.714844 315.738281 213.425781 315.125 213.117188 314.515625 L 212.664062 313.601562 C 212.589844 313.449219 212.507812 313.296875 212.4375 313.144531 L 212.222656 312.679688 L 211.359375 310.824219 C 211.078125 310.203125 210.8125 309.574219 210.539062 308.953125 L 210.128906 308.015625 L 209.742188 307.066406 C 209.488281 306.433594 209.226562 305.804688 208.976562 305.164062 C 208.496094 303.886719 207.996094 302.617188 207.554688 301.320312 L 207.214844 300.355469 L 207.042969 299.871094 L 206.882812 299.382812 L 206.242188 297.433594 C 206.03125 296.785156 205.835938 296.128906 205.636719 295.472656 L 205.335938 294.488281 L 204.492188 291.527344 L 203.964844 289.542969 C 203.285156 286.886719 202.652344 284.21875 202.089844 281.53125 C 201.527344 278.84375 201.03125 276.148438 200.679688 273.425781 L 200.199219 273.476562 C 200.433594 276.226562 200.820312 278.964844 201.28125 281.679688 C 201.394531 282.359375 201.515625 283.039062 201.640625 283.71875 L 202.019531 285.75 C 202.140625 286.433594 202.292969 287.105469 202.429688 287.78125 C 202.570312 288.457031 202.703125 289.132812 202.859375 289.804688 L 203.320312 291.828125 C 203.480469 292.496094 203.648438 293.164062 203.8125 293.835938 L 204.066406 294.84375 L 204.335938 295.84375 C 204.515625 296.507812 204.6875 297.179688 204.878906 297.84375 C 205.265625 299.167969 205.640625 300.503906 206.070312 301.820312 C 206.476562 303.140625 206.941406 304.445312 207.386719 305.757812 C 207.617188 306.410156 207.863281 307.058594 208.101562 307.707031 L 208.464844 308.683594 L 208.847656 309.648438 C 209.105469 310.289062 209.355469 310.9375 209.625 311.578125 L 210.445312 313.488281 L 210.652344 313.96875 C 210.71875 314.128906 210.796875 314.285156 210.867188 314.441406 L 211.304688 315.386719 C 211.597656 316.015625 211.875 316.652344 212.195312 317.269531 L 213.121094 319.136719 C 213.441406 319.757812 213.777344 320.363281 214.101562 320.980469 L 214.59375 321.898438 L 215.898438 324.160156 L 216.027344 324.386719 L 216.167969 324.609375 C 216.898438 325.792969 217.617188 326.988281 218.398438 328.144531 C 219.949219 330.46875 221.632812 332.746094 223.632812 334.808594 C 224.628906 335.839844 225.707031 336.816406 226.890625 337.683594 C 226.964844 337.742188 227.035156 337.796875 227.113281 337.851562 L 227.339844 338.007812 L 227.800781 338.316406 C 227.949219 338.425781 228.113281 338.515625 228.273438 338.613281 L 228.753906 338.898438 C 229.074219 339.09375 229.425781 339.273438 229.804688 339.4375 C 230.179688 339.605469 230.582031 339.75 231.019531 339.851562 C 231.457031 339.957031 231.929688 340.015625 232.425781 339.992188 C 232.546875 339.992188 232.671875 339.976562 232.796875 339.96875 C 232.914062 339.949219 233.03125 339.929688 233.148438 339.910156 C 233.265625 339.882812 233.386719 339.871094 233.5 339.835938 L 233.839844 339.726562 L 234.011719 339.671875 L 234.179688 339.605469 L 234.503906 339.457031 C 234.613281 339.410156 234.710938 339.34375 234.8125 339.285156 C 234.914062 339.226562 235.015625 339.167969 235.109375 339.105469 C 235.488281 338.839844 235.839844 338.546875 236.136719 338.230469 C 236.742188 337.601562 237.195312 336.90625 237.5625 336.210938 C 237.785156 335.78125 237.980469 335.351562 238.152344 334.914062 C 238.460938 335.578125 238.769531 336.238281 239.082031 336.90625 C 240.25 339.410156 241.46875 341.9375 242.925781 344.390625 C 243.660156 345.613281 244.429688 346.824219 245.308594 347.980469 C 246.179688 349.136719 247.113281 350.261719 248.164062 351.292969 L 248.550781 351.683594 C 248.695312 351.820312 248.84375 351.953125 248.988281 352.085938 C 249.136719 352.214844 249.285156 352.339844 249.4375 352.464844 C 249.589844 352.589844 249.746094 352.707031 249.90625 352.828125 C 250.539062 353.300781 251.222656 353.726562 251.957031 354.078125 C 252.6875 354.433594 253.476562 354.722656 254.308594 354.90625 C 255.140625 355.089844 256.027344 355.160156 256.917969 355.085938 C 257.027344 355.074219 257.136719 355.0625 257.25 355.050781 L 257.582031 355 L 257.914062 354.941406 L 258.234375 354.859375 C 258.34375 354.832031 258.449219 354.808594 258.554688 354.773438 L 258.871094 354.671875 C 259.082031 354.609375 259.285156 354.519531 259.488281 354.4375 C 260.292969 354.09375 261.035156 353.636719 261.6875 353.113281 C 262.339844 352.589844 262.914062 352.007812 263.425781 351.398438 C 263.9375 350.789062 264.386719 350.152344 264.792969 349.507812 C 265.578125 348.238281 266.203125 346.929688 266.734375 345.605469 C 266.773438 345.648438 266.808594 345.691406 266.847656 345.730469 L 267.15625 346.09375 C 267.261719 346.210938 267.363281 346.335938 267.480469 346.445312 L 268.148438 347.117188 L 268.855469 347.746094 C 270.78125 349.375 273.015625 350.636719 275.492188 351.339844 L 275.953125 351.472656 C 276.109375 351.511719 276.269531 351.539062 276.425781 351.574219 C 276.742188 351.640625 277.058594 351.722656 277.382812 351.757812 L 277.867188 351.828125 C 278.03125 351.847656 278.183594 351.878906 278.363281 351.882812 L 279.144531 351.929688 C 279.226562 351.929688 279.320312 351.925781 279.40625 351.921875 C 280.8125 351.90625 282.277344 351.589844 283.582031 350.9375 C 284.882812 350.28125 286 349.347656 286.878906 348.296875 C 287.753906 347.238281 288.421875 346.082031 288.9375 344.898438 L 289.035156 344.675781 C 289.078125 344.574219 289.105469 344.503906 289.132812 344.429688 L 289.292969 344.015625 C 289.394531 343.742188 289.496094 343.46875 289.597656 343.191406 C 289.601562 343.167969 289.609375 343.148438 289.617188 343.125 L 289.835938 343.226562 L 290.234375 343.40625 C 292.359375 344.355469 294.535156 345.195312 296.773438 345.875 C 299.007812 346.554688 301.289062 347.101562 303.609375 347.480469 C 305.925781 347.847656 308.28125 348.0625 310.652344 348.082031 C 311.859375 348.085938 313.171875 348.027344 314.554688 347.699219 C 315.246094 347.527344 315.941406 347.300781 316.636719 346.953125 C 317.347656 346.601562 317.996094 346.152344 318.585938 345.605469 C 318.878906 345.328125 319.160156 345.03125 319.410156 344.695312 C 319.542969 344.539062 319.660156 344.355469 319.777344 344.183594 C 319.835938 344.089844 319.886719 343.996094 319.945312 343.90625 L 320.023438 343.765625 L 320.097656 343.617188 C 320.304688 343.238281 320.460938 342.8125 320.589844 342.375 C 320.640625 342.152344 320.699219 341.929688 320.730469 341.699219 L 320.757812 341.527344 L 320.769531 341.441406 L 320.777344 341.363281 L 320.800781 341.058594 C 320.820312 340.855469 320.8125 340.640625 320.816406 340.433594 C 320.8125 340.222656 320.792969 340.015625 320.777344 339.804688 C 320.726562 339.382812 320.648438 338.960938 320.523438 338.554688 C 320.40625 338.144531 320.246094 337.761719 320.066406 337.386719 C 319.882812 337.023438 319.679688 336.671875 319.457031 336.355469 C 319.234375 336.03125 318.992188 335.738281 318.746094 335.457031 C 318.496094 335.183594 318.238281 334.925781 317.980469 334.691406 C 317.457031 334.214844 316.914062 333.804688 316.371094 333.441406 C 315.285156 332.710938 314.183594 332.140625 313.105469 331.632812 C 312.835938 331.511719 312.566406 331.386719 312.308594 331.269531 L 311.550781 330.925781 L 310.050781 330.234375 C 309.050781 329.773438 308.050781 329.296875 307.0625 328.8125 C 306.070312 328.332031 305.082031 327.839844 304.09375 327.339844 L 303.355469 326.964844 L 302.617188 326.585938 C 302.128906 326.328125 301.636719 326.078125 301.148438 325.820312 C 299.191406 324.792969 297.25 323.734375 295.328125 322.652344 C 293.410156 321.566406 291.511719 320.445312 289.636719 319.292969 C 287.765625 318.136719 285.914062 316.949219 284.089844 315.722656 C 282.273438 314.488281 280.476562 313.222656 278.71875 311.917969 C 276.964844 310.601562 275.234375 309.257812 273.554688 307.863281 C 270.210938 305.058594 267.007812 302.078125 263.996094 298.90625 C 262.488281 297.320312 261.019531 295.699219 259.59375 294.039062 C 258.171875 292.375 256.792969 290.671875 255.457031 288.9375 C 252.773438 285.472656 250.277344 281.851562 247.917969 278.144531 C 245.566406 274.433594 243.375 270.609375 241.316406 266.714844 C 239.269531 262.8125 237.339844 258.839844 235.535156 254.800781 C 234.636719 252.785156 233.765625 250.75 232.921875 248.707031 C 232.5 247.683594 232.082031 246.65625 231.671875 245.632812 L 231.367188 244.855469 L 231.070312 244.078125 L 230.488281 242.527344 L 229.308594 239.417969 C 228.949219 238.46875 228.582031 237.519531 228.246094 236.558594 C 228.996094 236.976562 229.75 237.382812 230.515625 237.765625 C 231.46875 238.242188 232.429688 238.703125 233.402344 239.132812 C 233.886719 239.351562 234.375 239.554688 234.863281 239.765625 C 235.351562 239.96875 235.839844 240.175781 236.335938 240.367188 C 236.828125 240.5625 237.324219 240.75 237.816406 240.9375 L 239.28125 241.476562 C 241.246094 242.1875 243.222656 242.867188 245.230469 243.492188 C 249.242188 244.734375 253.355469 245.773438 257.578125 246.382812 L 258.367188 246.496094 L 259.15625 246.585938 L 260.730469 246.769531 C 260.992188 246.804688 261.261719 246.820312 261.519531 246.84375 L 262.3125 246.90625 L 263.101562 246.972656 C 263.367188 246.992188 263.628906 247.019531 263.894531 247.027344 L 266.273438 247.144531 L 267.0625 247.15625 L 268.648438 247.179688 C 268.78125 247.179688 268.910156 247.1875 269.042969 247.183594 L 269.441406 247.175781 L 270.234375 247.164062 C 270.761719 247.152344 271.289062 247.148438 271.820312 247.125 L 273.402344 247.042969 L 274.195312 247.003906 C 274.460938 246.988281 274.71875 246.957031 274.984375 246.9375 L 276.5625 246.796875 C 277.089844 246.761719 277.613281 246.683594 278.140625 246.621094 L 279.710938 246.429688 L 281.277344 246.179688 C 281.800781 246.097656 282.324219 246.027344 282.839844 245.917969 C 287 245.15625 291.09375 244.054688 295.070312 242.621094 C 295.320312 242.539062 295.566406 242.433594 295.8125 242.339844 L 297.292969 241.765625 C 297.535156 241.671875 297.78125 241.578125 298.023438 241.472656 L 299.480469 240.84375 L 300.207031 240.527344 C 300.472656 240.402344 300.738281 240.285156 301 240.140625 C 301.523438 239.871094 302.039062 239.558594 302.542969 239.199219 C 303.046875 238.835938 303.53125 238.425781 303.980469 237.949219 C 304.429688 237.472656 304.839844 236.925781 305.167969 236.320312 C 305.496094 235.714844 305.742188 235.054688 305.890625 234.382812 C 306.03125 233.707031 306.074219 233.027344 306.042969 232.371094 C 306.015625 231.714844 305.902344 231.085938 305.746094 230.488281 C 305.441406 229.289062 304.953125 228.214844 304.390625 227.21875 C 303.890625 226.324219 303.328125 225.496094 302.722656 224.710938 C 303.140625 224.667969 303.554688 224.621094 303.96875 224.550781 L 304.574219 224.460938 C 304.777344 224.433594 304.980469 224.410156 305.183594 224.363281 L 306.386719 224.128906 C 306.789062 224.058594 307.183594 223.949219 307.582031 223.855469 C 307.976562 223.753906 308.378906 223.667969 308.769531 223.546875 L 309.945312 223.203125 L 311.105469 222.808594 C 311.203125 222.773438 311.300781 222.742188 311.394531 222.710938 L 311.683594 222.597656 L 312.257812 222.378906 C 312.640625 222.234375 313.015625 222.070312 313.390625 221.910156 C 313.769531 221.753906 314.136719 221.574219 314.511719 221.402344 L 314.789062 221.269531 L 315.066406 221.128906 L 315.613281 220.851562 C 315.796875 220.753906 315.980469 220.652344 316.160156 220.554688 L 316.429688 220.402344 L 316.699219 220.242188 C 316.882812 220.140625 317.0625 220.035156 317.242188 219.917969 C 317.332031 219.863281 317.417969 219.808594 317.511719 219.742188 C 317.585938 219.695312 317.652344 219.65625 317.730469 219.597656 C 319.222656 218.8125 320.691406 217.921875 322.042969 216.769531 C 322.738281 216.183594 323.394531 215.507812 323.96875 214.734375 C 324.539062 213.953125 325.03125 213.058594 325.292969 212.039062 C 325.554688 211.03125 325.570312 209.9375 325.339844 208.9375 C 325.117188 207.929688 324.679688 207.027344 324.164062 206.230469 C 323.640625 205.433594 323.03125 204.734375 322.378906 204.109375 C 322.28125 204.015625 322.183594 203.925781 322.085938 203.835938 C 322.472656 203.652344 322.855469 203.457031 323.234375 203.253906 C 323.757812 202.980469 324.261719 202.679688 324.773438 202.382812 C 325.269531 202.074219 325.769531 201.765625 326.25 201.4375 C 327.226562 200.789062 328.167969 200.113281 329.085938 199.40625 C 330.003906 198.699219 330.902344 197.972656 331.777344 197.222656 C 333.53125 195.730469 335.214844 194.164062 336.84375 192.550781 C 337.660156 191.742188 338.460938 190.925781 339.25 190.089844 C 339.644531 189.675781 340.035156 189.253906 340.421875 188.832031 C 340.808594 188.402344 341.1875 187.984375 341.574219 187.535156 L 341.585938 187.523438 C 341.601562 187.507812 341.617188 187.488281 341.628906 187.46875 C 342.460938 186.308594 343.257812 185.121094 344.003906 183.894531 C 344.746094 182.667969 345.4375 181.398438 346.039062 180.085938 C 346.34375 179.429688 346.617188 178.757812 346.875 178.078125 C 347.121094 177.390625 347.355469 176.699219 347.539062 175.992188 C 347.640625 175.636719 347.71875 175.277344 347.800781 174.921875 C 347.839844 174.738281 347.867188 174.558594 347.902344 174.378906 L 347.953125 174.105469 L 347.992188 173.832031 C 348.109375 173.101562 348.167969 172.359375 348.175781 171.613281 C 348.183594 170.867188 348.140625 170.117188 348.027344 169.371094 C 347.914062 168.625 347.730469 167.890625 347.488281 167.175781 C 346.992188 165.746094 346.21875 164.421875 345.25 163.273438 C 344.765625 162.699219 344.242188 162.171875 343.675781 161.683594 C 343.117188 161.199219 342.523438 160.757812 341.902344 160.355469 C 341.285156 159.953125 340.640625 159.59375 339.980469 159.273438 C 339.699219 159.136719 339.410156 159.011719 339.125 158.890625 L 339.285156 158.714844 L 339.625 158.351562 L 340.296875 157.621094 L 340.957031 156.882812 L 341.613281 156.148438 L 342.257812 155.40625 C 342.691406 154.914062 343.125 154.417969 343.550781 153.921875 C 345.265625 151.9375 346.953125 149.933594 348.640625 147.925781 C 350.324219 145.921875 352 143.910156 353.671875 141.894531 L 356.171875 138.867188 L 357.421875 137.351562 L 358.042969 136.589844 L 358.355469 136.210938 C 358.460938 136.082031 358.578125 135.945312 358.671875 135.8125 C 359.476562 134.734375 360.230469 133.664062 360.964844 132.558594 C 361.695312 131.453125 362.386719 130.316406 363.015625 129.136719 C 363.648438 127.957031 364.222656 126.734375 364.652344 125.4375 C 364.765625 125.113281 364.855469 124.777344 364.949219 124.445312 C 365.027344 124.109375 365.113281 123.773438 365.160156 123.425781 C 365.273438 122.730469 365.324219 122.007812 365.246094 121.273438 C 365.171875 120.539062 364.960938 119.785156 364.566406 119.113281 C 364.171875 118.449219 363.617188 117.875 362.988281 117.46875 C 362.367188 117.050781 361.691406 116.753906 361.011719 116.554688 C 360.332031 116.347656 359.640625 116.21875 358.953125 116.132812 C 357.585938 115.976562 356.222656 115.992188 354.878906 116.101562 C 354.339844 116.144531 353.800781 116.207031 353.265625 116.277344 C 353.714844 115.75 354.152344 115.210938 354.578125 114.671875 C 355.496094 113.507812 356.355469 112.308594 357.195312 111.101562 C 358.867188 108.675781 360.433594 106.1875 361.9375 103.667969 C 363.441406 101.148438 364.882812 98.597656 366.28125 96.019531 C 366.984375 94.730469 367.671875 93.441406 368.34375 92.128906 L 368.464844 91.886719 L 368.539062 91.746094 L 368.597656 91.617188 L 368.824219 91.105469 C 368.980469 90.761719 369.136719 90.421875 369.285156 90.078125 L 369.714844 89.054688 C 369.859375 88.710938 369.992188 88.363281 370.128906 88.019531 C 370.671875 86.632812 371.160156 85.21875 371.566406 83.765625 C 371.96875 82.308594 372.285156 80.8125 372.421875 79.261719 C 372.464844 78.875 372.472656 78.480469 372.492188 78.089844 C 372.5 77.890625 372.488281 77.691406 372.488281 77.492188 " fill-opacity="1" fill-rule="nonzero"/></g><path fill="#000000" d="M 136.453125 154.605469 C 145.433594 155.613281 144.425781 149.363281 144.425781 149.363281 C 136.957031 149.058594 136.453125 154.605469 136.453125 154.605469 " fill-opacity="1" fill-rule="nonzero"/><path fill="#000000" d="M 128.484375 203.898438 C 128.484375 203.914062 128.488281 203.886719 128.488281 203.875 L 128.492188 203.824219 L 128.503906 203.710938 L 128.519531 203.46875 C 128.527344 203.300781 128.539062 203.128906 128.539062 202.953125 C 128.550781 202.605469 128.554688 202.253906 128.550781 201.894531 C 128.539062 201.183594 128.5 200.460938 128.429688 199.742188 C 128.304688 198.300781 128.070312 196.855469 127.746094 195.429688 C 127.425781 194.003906 127.003906 192.597656 126.507812 191.21875 C 126 189.84375 125.414062 188.492188 124.746094 187.183594 C 123.402344 184.5625 121.734375 182.097656 119.796875 179.84375 C 118.828125 178.710938 117.796875 177.636719 116.710938 176.609375 C 116.4375 176.359375 116.167969 176.101562 115.886719 175.855469 L 115.039062 175.113281 L 114.171875 174.398438 C 113.882812 174.15625 113.582031 173.933594 113.289062 173.699219 C 112.097656 172.78125 110.863281 171.914062 109.585938 171.101562 C 109.269531 170.894531 108.945312 170.703125 108.625 170.5 L 108.140625 170.207031 L 107.648438 169.917969 C 107.320312 169.730469 106.996094 169.535156 106.664062 169.355469 L 105.664062 168.808594 C 104.316406 168.101562 102.957031 167.421875 101.558594 166.808594 C 100.863281 166.488281 100.15625 166.203125 99.453125 165.902344 C 99.101562 165.757812 98.742188 165.625 98.386719 165.480469 C 98.03125 165.34375 97.675781 165.199219 97.316406 165.070312 L 96.238281 164.675781 L 95.695312 164.480469 L 95.152344 164.296875 L 94.058594 163.925781 C 93.695312 163.804688 93.328125 163.695312 92.960938 163.582031 C 92.59375 163.46875 92.230469 163.347656 91.859375 163.238281 L 90.753906 162.917969 L 88.5 162.261719 L 86.230469 161.59375 L 85.945312 161.511719 L 85.664062 161.417969 L 85.101562 161.234375 L 82.855469 160.496094 C 82.480469 160.367188 82.101562 160.253906 81.734375 160.113281 L 79.511719 159.304688 L 78.402344 158.894531 C 78.03125 158.757812 77.667969 158.601562 77.300781 158.457031 L 75.105469 157.578125 C 74.738281 157.429688 74.382812 157.269531 74.019531 157.113281 L 72.9375 156.632812 L 71.855469 156.15625 L 71.316406 155.917969 C 71.136719 155.839844 70.957031 155.75 70.78125 155.667969 C 69.359375 154.976562 67.929688 154.320312 66.539062 153.574219 L 65.492188 153.03125 C 65.144531 152.847656 64.792969 152.671875 64.453125 152.472656 L 62.390625 151.316406 C 59.667969 149.734375 56.988281 148.074219 54.425781 146.25 C 51.855469 144.433594 49.351562 142.53125 46.972656 140.472656 C 42.203125 136.382812 37.816406 131.851562 33.988281 126.890625 C 32.074219 124.410156 30.300781 121.824219 28.6875 119.148438 L 28.382812 118.644531 C 28.28125 118.476562 28.1875 118.304688 28.089844 118.136719 L 27.503906 117.117188 L 26.945312 116.085938 C 26.855469 115.914062 26.761719 115.742188 26.667969 115.574219 L 26.40625 115.050781 C 25.691406 113.660156 25.027344 112.242188 24.445312 110.796875 C 25.074219 112.226562 25.785156 113.617188 26.542969 114.976562 L 26.824219 115.488281 C 26.917969 115.660156 27.019531 115.828125 27.117188 115.996094 L 27.707031 117.003906 L 28.320312 117.996094 C 28.421875 118.164062 28.523438 118.328125 28.628906 118.492188 L 28.949219 118.980469 C 30.640625 121.59375 32.492188 124.105469 34.472656 126.5 C 38.433594 131.300781 42.925781 135.640625 47.765625 139.515625 C 50.175781 141.46875 52.707031 143.265625 55.296875 144.964844 C 57.878906 146.679688 60.566406 148.222656 63.292969 149.691406 L 65.351562 150.757812 C 65.691406 150.941406 66.046875 151.101562 66.390625 151.269531 L 67.441406 151.773438 C 68.824219 152.460938 70.253906 153.058594 71.664062 153.6875 C 71.84375 153.761719 72.015625 153.84375 72.199219 153.917969 L 72.734375 154.132812 L 73.808594 154.5625 L 74.886719 155 C 75.246094 155.140625 75.601562 155.289062 75.96875 155.414062 L 78.148438 156.210938 C 78.511719 156.339844 78.871094 156.476562 79.234375 156.605469 L 80.335938 156.964844 L 82.542969 157.6875 C 82.90625 157.8125 83.28125 157.914062 83.652344 158.023438 L 84.761719 158.347656 L 85.875 158.675781 L 86.429688 158.839844 L 86.707031 158.917969 L 86.988281 158.992188 L 89.234375 159.570312 L 91.496094 160.152344 L 92.648438 160.445312 C 93.03125 160.542969 93.414062 160.652344 93.796875 160.757812 C 94.179688 160.863281 94.5625 160.964844 94.945312 161.078125 L 96.082031 161.421875 L 96.652344 161.59375 L 97.21875 161.78125 L 98.355469 162.148438 C 98.734375 162.273438 99.105469 162.414062 99.484375 162.542969 C 99.859375 162.679688 100.234375 162.804688 100.605469 162.949219 C 101.351562 163.230469 102.101562 163.507812 102.839844 163.816406 C 104.320312 164.410156 105.777344 165.078125 107.21875 165.777344 L 108.292969 166.316406 C 108.652344 166.5 109 166.691406 109.355469 166.882812 L 109.886719 167.167969 L 110.414062 167.464844 C 110.761719 167.664062 111.113281 167.859375 111.457031 168.066406 C 112.84375 168.890625 114.195312 169.777344 115.511719 170.71875 C 115.835938 170.957031 116.167969 171.191406 116.488281 171.4375 L 117.449219 172.183594 L 118.394531 172.953125 C 118.707031 173.210938 119.011719 173.484375 119.316406 173.75 C 120.539062 174.824219 121.707031 175.964844 122.816406 177.167969 C 125.023438 179.582031 126.972656 182.257812 128.574219 185.140625 C 129.371094 186.582031 130.082031 188.074219 130.703125 189.609375 C 131.316406 191.144531 131.84375 192.71875 132.261719 194.324219 C 132.683594 195.929688 133.003906 197.5625 133.210938 199.222656 C 133.3125 200.054688 133.390625 200.886719 133.429688 201.734375 C 133.453125 202.15625 133.464844 202.582031 133.464844 203.015625 C 133.464844 203.230469 133.460938 203.449219 133.453125 203.671875 L 133.441406 204.011719 L 133.433594 204.191406 L 133.429688 204.285156 L 133.417969 204.40625 L 128.484375 203.898438 " fill-opacity="1" fill-rule="nonzero"/><path fill="#000000" d="M 22.351562 109.035156 C 34.363281 107.917969 20.125 88.230469 20.125 88.230469 C 20.125 88.230469 13.089844 109.894531 22.351562 109.035156 " fill-opacity="1" fill-rule="nonzero"/><path fill="#000000" d="M 40.386719 123.75 C 55.183594 126.652344 45.078125 98.03125 45.078125 98.03125 C 45.078125 98.03125 28.980469 121.507812 40.386719 123.75 " fill-opacity="1" fill-rule="nonzero"/><path fill="#000000" d="M 60.988281 141.789062 C 76.550781 139.785156 57.136719 114.863281 57.136719 114.863281 C 57.136719 114.863281 48.992188 143.335938 60.988281 141.789062 " fill-opacity="1" fill-rule="nonzero"/><path fill="#000000" d="M 80.308594 152.992188 C 95.773438 153.105469 80.132812 126.183594 80.132812 126.183594 C 80.132812 126.183594 68.386719 152.90625 80.308594 152.992188 " fill-opacity="1" fill-rule="nonzero"/><path fill="#000000" d="M 76.066406 166.707031 C 70.539062 152.503906 51.535156 176.628906 51.535156 176.628906 C 51.535156 176.628906 80.332031 177.65625 76.066406 166.707031 " fill-opacity="1" fill-rule="nonzero"/><path fill="#000000" d="M 55.6875 157.738281 C 54.808594 142.796875 29.753906 159.621094 29.753906 159.621094 C 29.753906 159.621094 56.367188 169.261719 55.6875 157.738281 " fill-opacity="1" fill-rule="nonzero"/><path fill="#000000" d="M 38.101562 144.804688 C 44.046875 128.757812 10.085938 134.882812 10.085938 134.882812 C 10.085938 134.882812 33.519531 157.175781 38.101562 144.804688 " fill-opacity="1" fill-rule="nonzero"/><g clip-path="url(#5cb1776c12)"><path fill="#000000" d="M 22.222656 124.007812 C 29.882812 112.972656 2.871094 110.992188 2.871094 110.992188 C 2.871094 110.992188 16.320312 132.519531 22.222656 124.007812 " fill-opacity="1" fill-rule="nonzero"/></g></svg>