<svg xmlns="http://www.w3.org/2000/svg" width="500" viewBox="0 0 375 375" height="500" version="1.0"><defs><clipPath id="a"><path d="M193 5h125.258v362H193zm0 0"/></clipPath></defs><path fill="#efe9e1" d="M199.656 56.992c-.824 1.488-2.312 2.317-5.687 4.438-3.375 2.12-.2 1.258-1.688 7.386-1.488 6.094-2.515 14.743.2 16.23 2.746 1.493 2.316 5.9-2.747 9.708-5.062 3.808-5.46 13.91-3.144 19.805 2.316 5.898 6.12 12.027 2.746 16.863-3.375 4.836-1.258 16.23.629 22.324 1.887 6.129 3.144 16.66 4.004 23.816.828 7.153-.63 11.79 1.687 18.981 2.317 7.152 3.375 21.066 4.434 23.613 1.058 2.52 4.828 4.207-2.317 5.7-7.148 1.492-23.984 15.37-33.68 23.386-9.69 8.016-9.69 12.024-17.698 18.117-8.004 6.13-18.528 24.016-26.102 31.403-7.574 7.386-25.473 21.297-28.617 26.562-3.14 5.27-12.836 14.113-12.207 18.75.629 4.637.629 12.024-.63 12.852 0 0-11.378 3.578-11.577 5.695-.2 2.121-10.754 4.836 2.515 5.07 13.266.2 22.297-1.261 28.614-2.949 6.32-1.687 20.414-2.32 22.101-1.058 1.688 1.257 13.895 7.152 22.297 5.695 8.402-1.488 21.668-1.059 23.785-.629 2.117.43 8.637-.629 8.637-.629s1.887-8.016 1.059-9.273c-.829-1.262 1.687-2.75 5.886-1.262 4.203 1.492 9.696-.828 10.324-2.746.63-1.89 5.06 4.207 6.317 6.523 1.258 2.32 8.207-4.636 12.012-3.379 3.804 1.258-5.461 4.207 5.687 5.7 11.149 1.488 22.102 1.058 25.477.828 3.37-.2 24.613.199 30.101-1.262 5.461-1.488 18.528-29.281 17.469-30.77-1.059-1.492-.828-38.554-1.688-39.418-.824-.828-19.98-107.882-19.98-107.882l-12.406-68.266s-7.313-8.582-10.52-10.734c-18.328-12.223-29.246-44.883-29.246-44.883zm0 0"/><g clip-path="url(#a)"><path d="M306.582 244.105c3.805-12.949 0-28.453.957-31.3.961-2.848 3.477-9.176 3.477-9.176l7.242.96s-.328-21.495-5.059-33.187c-4.73-11.695-7.246-35.078-4.402-46.144 2.848-11.063 8.535-37.625 3.144-48.063-1.722-3.441-3.308-6.492-4.832-8.972l.332.195s-2.812-7.02-2.812-8.61c0-1.59-1.324-6.226-4.465-8.515-2.45-1.754-5.691-1.39-6.285-.527-.598-.133-1.192-.2-1.621-.133-1.457.199-1.887-5.07-1.887-5.07s3.574.632 4.633-5.266c1.058-5.895 3.14-10.332 2.512-11.594-.63-1.258-3.805-9.074-5.887-12.422-2.086-3.343-7.973-9.437-17.238-10.73-9.262-1.258-12.637.629-15.582 2.52-2.942 1.886-4 1.058-5.688 1.488-1.687.43-4.434 9.707-1.687 11.394v.762s-1.028 7.785.296 11.164c1.325 3.379 1.622 4.105.594 6.89-1.023 2.782-1.453 6.16-1.453 6.622 0 .433 0 1.46 3.805 1.16.726 2.785 2.644 3.676 2.644 3.676s-.86 2.054.297 2.652c1.16.594 1.754 1.621 1.621 3.246-.164 1.621.301 5.563 8.075 4.105 1.156 1.625-7.344 7.356-10.72 9.11-3.374 1.758-11.445 4.836-14.226 6.594-2.777 1.754-4.996 2.484-7.476 2.78-.727-2.948.726-4.405 3.078-4.538 2.347-.133 4.828-.895 4.996-3.512.133-2.648-.3-4.703-.598-5.133-.297-.43.598-.597.43-2.484-.133-1.922.234-1.227 1.324-2.781 1.156-1.657-1.223-2.22-1.523-2.653-.297-.43-4.496-3.21-4.926-6.59-.434-3.378-4.535-7.355-4.535-7.355s-.297-3.375-1.754-4.535c-1.453-1.16-11.742-6.89-22.297-.598-10.55 6.328-12.473 15.867-10.254 17.754 2.215 1.922 3.375 7.188-.297 10.27-3.676 3.082-5.426 11.46-2.781 15.433 2.648 3.977 2.348 9.707 1.457 11.461-.86 1.758-2.184 2.484-3.211 5.863-1.023 3.38 2.48 6.329 3.672 6.625 1.16.297 4.996.73 3.078 5.004-1.918 4.27 2.945 5.73.727 8.512-2.184 2.781-2.778 6.89-.297 8.941 2.48 2.055 5.855-.43 5.558 2.786-.297 3.246.297 20.27.297 20.27s-3.078 2.054-2.347 4.273c-.297 1.324-1.16 4.406.132 4.835 1.32.43 2.348 3.38 2.778 3.38.43 0 1.457 17.62 2.78 29.081.595 7.188 1.321 11.594-1.323 14.11-2.649 2.484-4.102 7.187-2.782 8.945 1.325 1.754 1.16 2.649 1.16 2.649s-2.351 5.3.594 6.89c2.946 1.625 5.723.895 5.723.895s-2.348-1.325-.594-3.977c1.754-2.648 2.48-10.433 4.531-11.59.895 2.946.43 8.942.43 8.942s3.508 1.191 3.508-5.434c0-6.59-2.777-15.137-2.945-20.105-.133-5 1.027-19.676 1.16-25.54.133-5.859 1.023-7.78 1.023-7.78l6.32 7.35s11.282-5.429 16.442-9.241c5.129-3.809 9.098-6.16 10.254-6.621 1.16-.434 3.078 13.511 1.922 18.648-1.16 5.133-1.621 19.543-2.485 24.973-.89 5.433.73 9.707.73 9.707h4.829s4.996 29.808 5.426 35.242c.43 5.434 4.27 24.676 5.426 29.812 1.16 5.133 6.152 19.973 6.32 27.325.133 7.355 5.426 30.242 4.398 37.73-1.023 7.485-2.644 9.703-3.074 9.703-.433 0 3.371 2.219 3.371 2.219l-5.426 2.188-.328 6.328s-2.515 1.886-5.36 2.847c-2.847.961-9.46 2.219-9.46 2.219s-6.95 2.848 1.254 2.848c8.207 0 12.012-.332 12.012-.332s2.843 1.89 8.832 1.89c5.988 0 21.77-3.148 21.77-3.148l1.257 2.848 9.46-1.59s1.587-3.774-.3-8.844c-1.883-5.067-2.512-8.543-2.512-8.543l3.473-.961s1.887-33.191.961-51.21c-.96-18.118-13.598-38.356-9.793-51.31zm-54.52-130.242c-3.375-4.437-11.382-12.023-10.523-19.375 0 0 10.953-7.386 14.094-9.906l3.144-2.516s-7.742 22.954-6.714 31.797zm0 0"/></g><path fill="#efe9e1" d="M245.379 105.586l-7.774 2.316s-9.695-8.015-15.78-11.394c-6.122-3.38-10.09-2.75-12.837-.63-2.746 2.122-5.691 5.067-5.89 8.845 2.515-4.008 10.09-9.703 15.351-5.696 5.262 4.008 15.582 11.395 15.98 12.223.43.828-6.12 1.688-8.007 4.836-1.887 3.144-4.828 19.375-4.828 21.496v5.266s10.52-2.75 16.836-7.157c6.32-4.437 13.699-10.101 13.699-10.101l.43-12.024zM232.906 87.96s6.32 1.063 8.008 7.587c.195-8.215-4.07-12.121-7.047-12.984-1.125 2.617-.96 5.398-.96 5.398zm0 0"/><path d="M212.297 228.074s1.687 3.778-1.258 5.07c-2.945 1.258-9.695 1.258-8.832 1.688.824.43 4 2.75 4 2.75s-1.883 3.578-1.883 5.066c0 1.493 3.371 1.258 3.371 1.258s-.43 3.578-1.254 3.578h-7.777s-1.488 3.809 2.516 3.809c-.2 3.379 4.632 3.148 5.261 1.691.63-1.492 3.141.2 2.942 1.688-.196 1.492.828 3.578 2.117 3.379 1.258-.2 1.887.629 3.375-.2 1.488-.828.828-2.75.828-2.75l3.774.829s2.742 1.691 3.8.632c1.059-1.062 2.946-2.75 2.946-2.75 1.058-1.062 4.203.2 4.203.2s3.14-.2 3.375-2.121c.195-1.887 1.883-3.809 1.883-3.809l3.375-5.7s-2.512-1.058-2.942-1.687c-.433-.629-1.258-1.492-1.887-2.32-.628-.828-1.457-2.75-1.457-2.75l-.859-1.059s-.828.43 1.258-2.316c2.117-2.75-.629-3.813-2.117-3.813-1.457 0-6.75.434-8.403.633-1.687.196-4.832-2.75-4.832-3.379-.066-.566-3.011.727-5.523 2.383zm0 0"/></svg>