<svg xmlns="http://www.w3.org/2000/svg" xmlns:xlink="http://www.w3.org/1999/xlink" width="500" zoomAndPan="magnify" viewBox="0 0 375 374.999991" height="500" preserveAspectRatio="xMidYMid meet" version="1.0"><defs><clipPath id="b4d3048e5c"><path d="M 1.347656 5.070312 L 373 5.070312 L 373 369.570312 L 1.347656 369.570312 Z M 1.347656 5.070312 " clip-rule="nonzero"/></clipPath></defs><g clip-path="url(#b4d3048e5c)"><path fill="#efe9e1" d="M 320.289062 368.511719 C 318.703125 366.4375 314.320312 353.832031 312.488281 346.09375 C 311.328125 341.199219 310.496094 336.898438 310.1875 334.226562 L 310.03125 332.882812 L 306.992188 333.910156 C 305.316406 334.472656 301.9375 335.425781 299.484375 336.027344 C 290.636719 338.1875 288.179688 338.429688 276.964844 338.265625 C 270.628906 338.171875 267.195312 338.007812 263.917969 337.648438 C 256.714844 336.847656 255.53125 336.65625 246.242188 334.765625 C 241 333.699219 230.589844 332.5 224.007812 332.207031 C 219.054688 331.984375 211.882812 331.328125 201.648438 330.15625 C 198.277344 329.773438 193.894531 329.285156 191.910156 329.078125 C 187.6875 328.628906 185.816406 328.207031 184.402344 327.378906 C 183.636719 326.929688 183.375 326.628906 183.375 326.1875 C 183.375 325.175781 184.121094 324.691406 185.9375 324.523438 C 186.84375 324.441406 188.503906 324.273438 189.628906 324.15625 C 190.75 324.039062 193.402344 323.878906 195.515625 323.800781 C 197.632812 323.726562 200.769531 323.503906 202.488281 323.3125 C 204.207031 323.117188 206.671875 322.957031 207.960938 322.957031 C 211.5625 322.949219 211.375 322.808594 204.773438 320.582031 C 202.855469 319.933594 199.367188 318.75 197.019531 317.949219 C 194.671875 317.152344 192.753906 316.589844 192.753906 316.699219 C 192.753906 317.410156 186.285156 323.722656 185.460938 323.816406 C 185.171875 323.847656 184.871094 323.882812 184.785156 323.894531 C 184.699219 323.902344 184.066406 324.417969 183.378906 325.039062 C 182.113281 326.175781 180.394531 328.570312 178.117188 332.363281 C 177.433594 333.507812 176.605469 334.617188 176.277344 334.832031 C 175.601562 335.277344 175.5 335.691406 176.066406 335.691406 C 176.382812 335.691406 176.425781 335.894531 176.3125 336.832031 C 176.027344 339.269531 175.902344 341.097656 175.554688 347.832031 C 175.125 356.128906 174.761719 361.449219 174.617188 361.597656 C 174.558594 361.652344 174.378906 361.621094 174.21875 361.519531 C 174 361.382812 173.964844 360.308594 174.078125 357.109375 C 174.363281 349.082031 175.003906 339.917969 175.464844 337.289062 C 175.785156 335.480469 175.617188 335.324219 175.089844 336.945312 C 174.621094 338.402344 171.898438 342.628906 170.957031 343.371094 C 169.386719 344.605469 169.25 342.203125 170.695312 338.816406 C 171.527344 336.875 171.539062 336.816406 170.921875 337.601562 C 168.066406 341.253906 166.953125 342.445312 166.460938 342.375 C 165.597656 342.253906 165.714844 341.351562 166.875 339.171875 C 167.472656 338.050781 167.902344 337.132812 167.835938 337.132812 C 167.765625 337.132812 166.921875 337.78125 165.964844 338.578125 C 163.320312 340.761719 162.941406 340.394531 164.71875 337.371094 C 166.9375 333.597656 172.335938 327.945312 179.109375 322.296875 C 180.925781 320.78125 182.414062 319.496094 182.414062 319.441406 C 182.414062 319.386719 181.4375 320.050781 180.246094 320.914062 C 179.050781 321.777344 176.753906 323.308594 175.136719 324.320312 C 173.519531 325.332031 170.628906 327.203125 168.710938 328.480469 C 163.410156 332.007812 158.714844 334.730469 157.921875 334.730469 C 157.195312 334.730469 157.886719 333.824219 160.410156 331.457031 C 161.925781 330.03125 163.140625 328.839844 163.105469 328.804688 C 163.070312 328.769531 162.34375 328.996094 161.488281 329.308594 C 159.390625 330.066406 155.175781 331 154.683594 330.8125 C 153.363281 330.304688 155.398438 328.699219 161.035156 325.792969 C 163.734375 324.402344 166.675781 322.816406 167.570312 322.269531 C 170.261719 320.617188 176.398438 316.261719 178.449219 314.546875 C 179.503906 313.664062 180.625 312.765625 180.941406 312.554688 L 181.507812 312.171875 L 180.097656 311.453125 C 179.324219 311.058594 178.375 310.410156 177.992188 310.007812 C 177.402344 309.382812 177.320312 309.140625 177.441406 308.390625 C 177.644531 307.144531 178.210938 306.605469 179.328125 306.605469 C 180.894531 306.605469 184.980469 307.296875 189.265625 308.28125 C 191.515625 308.800781 194.433594 309.457031 195.757812 309.742188 C 197.082031 310.027344 199.894531 310.796875 202.007812 311.457031 C 205.53125 312.550781 211.023438 313.898438 211.210938 313.710938 C 211.375 313.546875 205.570312 311.253906 200.207031 309.371094 C 190.921875 306.105469 185.050781 303.636719 183.15625 302.191406 C 180.8125 300.410156 180.917969 298.246094 183.402344 296.976562 C 184.269531 296.535156 184.605469 296.511719 187.707031 296.683594 C 190.792969 296.855469 191.480469 296.792969 190.828125 296.390625 C 190.359375 296.101562 190.574219 294.644531 191.1875 293.910156 C 192.117188 292.808594 193.492188 292.371094 196.078125 292.351562 L 198.316406 292.335938 L 199.847656 290.6875 L 201.375 289.035156 L 201.03125 288.214844 C 200.839844 287.761719 200.683594 286.875 200.683594 286.242188 L 200.679688 285.089844 L 199.628906 286.234375 C 197.527344 288.511719 196.390625 287.308594 195.988281 282.386719 C 195.851562 280.691406 195.765625 280.40625 195.390625 280.40625 C 194.8125 280.40625 191.910156 282.382812 189.386719 284.5 C 188.261719 285.441406 187.027344 286.378906 186.644531 286.578125 C 185.648438 287.101562 184.457031 287.078125 183.84375 286.523438 C 182.816406 285.589844 182.59375 284.800781 182.707031 282.46875 C 182.90625 278.3125 185.121094 273.234375 187.726562 270.957031 L 188.910156 269.921875 L 188.996094 267.289062 C 189.070312 265.1875 188.996094 264.382812 188.636719 263.28125 C 188.386719 262.527344 188.0625 261.105469 187.917969 260.128906 C 187.679688 258.515625 187.699219 258.246094 188.144531 257.238281 C 188.539062 256.355469 188.570312 256.125 188.300781 256.125 C 188.113281 256.125 187.605469 255.816406 187.171875 255.4375 C 186.738281 255.058594 185.863281 254.523438 185.230469 254.246094 C 183.511719 253.492188 182.699219 252.832031 182.140625 251.730469 C 181.496094 250.46875 181.628906 248.921875 182.648438 245.925781 C 183.816406 242.476562 183.6875 241.964844 181.253906 240.390625 C 178.726562 238.757812 178.328125 238.261719 178.328125 236.765625 C 178.328125 235.660156 178.566406 235.027344 180.195312 231.816406 C 182.738281 226.8125 183.40625 226.304688 188.125 225.832031 C 192.355469 225.410156 197.5625 226.277344 197.5625 227.410156 C 197.5625 227.601562 197.535156 227.761719 197.5 227.757812 C 197.46875 227.753906 196.941406 227.605469 196.332031 227.417969 C 193.402344 226.53125 187.074219 226.761719 184.707031 227.847656 C 183.289062 228.496094 183.144531 228.679688 180.875 232.722656 C 178.589844 236.800781 178.667969 237.480469 181.671875 239.539062 C 183.726562 240.945312 184.578125 241.953125 184.578125 242.980469 C 184.578125 243.183594 184.199219 244.554688 183.738281 246.03125 C 182.28125 250.667969 182.640625 251.882812 185.898438 253.367188 C 186.832031 253.792969 187.738281 254.316406 187.917969 254.53125 C 188.382812 255.09375 190.585938 255.035156 192.511719 254.410156 C 194.878906 253.644531 197.226562 253.691406 199.542969 254.542969 C 200.625 254.941406 201.40625 255.367188 201.40625 255.558594 C 201.40625 256.015625 200.753906 255.96875 199.101562 255.386719 C 195.214844 254.015625 188.90625 255.953125 188.90625 258.515625 C 188.90625 259.613281 189.609375 262.847656 190.023438 263.644531 C 190.304688 264.1875 190.34375 264.84375 190.214844 266.78125 C 190.082031 268.734375 190.125 269.40625 190.425781 270.128906 C 190.875 271.195312 191.238281 271.371094 194.0625 271.878906 C 196.71875 272.355469 197.332031 272.605469 199.21875 273.996094 C 201.644531 275.78125 202.863281 275.734375 205.496094 273.753906 C 206.695312 272.851562 206.9375 272.550781 206.9375 271.949219 C 206.9375 270.824219 207.527344 271.261719 207.613281 272.453125 C 207.679688 273.378906 207.59375 273.566406 206.738281 274.382812 C 205.496094 275.566406 203.476562 276.558594 202.3125 276.558594 C 201.125 276.558594 200.207031 276.164062 198.210938 274.796875 C 196.484375 273.617188 195.761719 273.359375 192.671875 272.824219 C 190.917969 272.519531 190.621094 272.386719 189.886719 271.59375 L 189.0625 270.703125 L 187.863281 272.007812 C 184.078125 276.121094 182.191406 285.933594 185.179688 285.933594 C 185.78125 285.933594 187.089844 285.035156 189.492188 282.96875 C 193.011719 279.949219 195.800781 278.597656 196.582031 279.542969 C 196.761719 279.757812 197.046875 281.21875 197.222656 282.851562 C 197.398438 284.457031 197.652344 285.882812 197.785156 286.015625 C 197.949219 286.175781 198.464844 285.84375 199.355469 285.003906 C 200.496094 283.921875 200.746094 283.785156 201.164062 284.007812 C 201.582031 284.230469 201.648438 284.507812 201.648438 286.042969 C 201.648438 288.085938 201.949219 288.578125 203.199219 288.578125 C 203.828125 288.578125 204.191406 288.359375 204.964844 287.519531 C 206.105469 286.28125 206.664062 285.246094 207.808594 282.242188 C 208.753906 279.765625 208.964844 279.453125 209.398438 279.886719 C 209.636719 280.121094 209.535156 280.660156 208.898438 282.515625 C 207.941406 285.3125 206.84375 287.199219 205.382812 288.542969 C 204.457031 289.394531 204.152344 289.539062 203.246094 289.539062 C 202.277344 289.539062 202.058594 289.664062 200.578125 291.082031 L 198.96875 292.621094 L 200.367188 292.910156 C 201.136719 293.066406 201.832031 293.234375 201.910156 293.28125 C 202.269531 293.492188 207.789062 288.605469 210.105469 286.027344 C 213.464844 282.289062 215.5 280.300781 215.675781 280.585938 C 215.871094 280.902344 214.378906 282.855469 211.324219 286.265625 C 208.769531 289.117188 206.574219 291.050781 204.082031 292.648438 L 202.792969 293.472656 L 203.84375 293.785156 C 205.417969 294.253906 205.597656 294.203125 206.605469 292.964844 C 208.03125 291.207031 214.933594 283.527344 216.042969 282.464844 C 217.679688 280.890625 217.378906 281.632812 215.554688 283.664062 C 214.613281 284.714844 212.460938 287.195312 210.777344 289.179688 C 209.089844 291.160156 207.375 293.101562 206.964844 293.488281 C 206.550781 293.878906 206.214844 294.261719 206.214844 294.339844 C 206.214844 294.421875 206.703125 294.617188 207.296875 294.777344 C 208.390625 295.066406 208.773438 295.546875 207.917969 295.546875 C 207.660156 295.546875 206.066406 295.230469 204.371094 294.839844 C 199.015625 293.613281 197.144531 293.332031 195.546875 293.511719 C 192.917969 293.804688 191.40625 295.058594 192.066406 296.398438 C 192.363281 297.003906 192.625 297.109375 195.035156 297.59375 C 199.011719 298.390625 201.480469 299.214844 207.296875 301.675781 C 213.535156 304.316406 214.417969 304.683594 214.539062 304.683594 C 214.589844 304.683594 214.628906 303.789062 214.628906 302.699219 C 214.628906 300.113281 214.257812 299.390625 212.183594 297.960938 C 210.28125 296.652344 209.488281 295.738281 209.695312 295.089844 C 210.222656 293.425781 213.746094 288.667969 217.5625 284.46875 C 218.59375 283.332031 219.4375 282.347656 219.4375 282.285156 C 219.4375 282.222656 218.980469 281.941406 218.417969 281.660156 C 217.855469 281.378906 216.910156 280.648438 216.3125 280.035156 C 214.621094 278.296875 214.316406 278.199219 209.90625 278.027344 C 205.917969 277.871094 205.027344 277.648438 205.695312 276.980469 C 206.121094 276.558594 213.234375 276.566406 214.4375 276.992188 C 214.925781 277.164062 216.097656 278 217.042969 278.847656 C 217.988281 279.695312 219.339844 280.671875 220.046875 281.019531 C 221.207031 281.585938 221.398438 281.617188 222.007812 281.324219 C 222.585938 281.046875 222.683594 280.855469 222.683594 280.023438 C 222.683594 279.328125 222.875 278.796875 223.347656 278.179688 C 223.710938 277.703125 224.007812 277.15625 224.007812 276.96875 C 224.007812 276.785156 223.476562 276.300781 222.824219 275.894531 C 221.265625 274.925781 220.949219 274.382812 220.609375 272.105469 C 220.378906 270.558594 220.199219 270.070312 219.660156 269.53125 C 219.054688 268.921875 218.84375 268.867188 217.234375 268.875 C 216.265625 268.878906 214.605469 269.039062 213.550781 269.230469 C 210.949219 269.699219 210.542969 269.6875 210.542969 269.136719 C 210.542969 268.308594 213.5 264.519531 215.941406 262.222656 C 221.898438 256.613281 225.902344 251.175781 226.320312 248.121094 C 226.453125 247.152344 226.398438 246.957031 225.828125 246.386719 C 225.277344 245.835938 225.054688 245.765625 224.308594 245.90625 C 221.035156 246.519531 215.917969 250.863281 212.601562 255.847656 C 210.550781 258.925781 209.46875 261.273438 208.71875 264.246094 L 208.101562 266.695312 L 208.601562 268.03125 C 209.28125 269.847656 209.265625 270.78125 208.574219 269.46875 C 208.296875 268.9375 207.816406 268.265625 207.503906 267.976562 C 207.191406 267.683594 206.9375 267.273438 206.9375 267.066406 C 206.9375 266.855469 206.402344 265.582031 205.746094 264.230469 C 202.3125 257.160156 201.992188 250.847656 204.851562 246.574219 C 205.722656 245.265625 206.601562 245.027344 207.070312 245.96875 C 207.238281 246.300781 207.410156 249.167969 207.519531 253.417969 C 207.617188 257.222656 207.773438 260.875 207.863281 261.535156 C 208.023438 262.675781 208.042969 262.699219 208.226562 262.015625 C 208.945312 259.300781 212.40625 253.664062 215.160156 250.714844 C 218.335938 247.316406 222.296875 244.828125 224.535156 244.828125 C 225.96875 244.828125 226.53125 245.101562 227.011719 246.023438 C 227.859375 247.664062 227.21875 250.039062 225.054688 253.277344 C 223.277344 255.933594 221.734375 257.691406 217.375 262.015625 C 214.3125 265.050781 211.796875 268.035156 212.070312 268.308594 C 212.109375 268.347656 212.890625 268.21875 213.804688 268.023438 C 214.722656 267.832031 216.285156 267.671875 217.277344 267.667969 C 220.332031 267.660156 221.324219 268.566406 221.84375 271.84375 C 222.183594 274 222.3125 274.207031 223.847656 275.074219 C 224.5625 275.476562 225.199219 276.011719 225.265625 276.265625 C 225.410156 276.820312 224.878906 278.171875 224.25 278.839844 C 223.964844 279.144531 223.769531 279.761719 223.722656 280.5 C 223.660156 281.457031 223.523438 281.769531 222.988281 282.167969 C 222.628906 282.4375 221.910156 282.675781 221.394531 282.703125 C 220.875 282.726562 220.347656 282.8125 220.214844 282.894531 C 220.035156 283.003906 214.574219 289.59375 213.375 291.144531 C 213.253906 291.304688 214.035156 291.058594 215.113281 290.605469 C 217.304688 289.683594 217.695312 289.636719 219.214844 290.113281 C 219.800781 290.300781 221.253906 290.625 222.445312 290.839844 C 227.765625 291.796875 231.917969 295.226562 231.9375 298.683594 C 231.949219 301.308594 230.527344 304.691406 228.644531 306.515625 L 227.371094 307.75 L 227.613281 310.121094 C 228.007812 313.941406 229.035156 316.582031 230.128906 316.582031 C 230.390625 316.582031 231.289062 315.777344 232.28125 314.644531 C 233.21875 313.578125 234.503906 312.3125 235.136719 311.835938 C 237.464844 310.074219 240.617188 310.09375 244.839844 311.898438 C 247.519531 313.042969 248.21875 313.089844 249.058594 312.195312 C 250.074219 311.109375 250.414062 310.171875 250.59375 307.953125 C 250.800781 305.375 251.371094 304.140625 252.859375 303.0625 C 256.59375 300.34375 257.625 298.519531 256.570312 296.484375 C 255.863281 295.113281 253.578125 294.074219 247.1875 292.207031 C 245.4375 291.699219 244.390625 291.058594 243.949219 290.230469 C 243.808594 289.972656 243.539062 288.9375 243.34375 287.925781 C 242.917969 285.703125 242.691406 285.378906 241.699219 285.582031 C 240.363281 285.851562 236.660156 287.804688 235.308594 288.945312 C 233.75 290.261719 232.757812 290.742188 231.578125 290.742188 C 230.605469 290.742188 229.421875 290.210938 229.222656 289.691406 C 229.011719 289.148438 229.265625 289.078125 230.046875 289.46875 C 231.152344 290.019531 232.164062 289.683594 234.386719 288.027344 C 237.601562 285.632812 241.390625 283.976562 242.832031 284.335938 C 243.734375 284.5625 244.136719 285.300781 244.554688 287.503906 C 244.984375 289.773438 245.421875 290.273438 247.5 290.839844 C 250.265625 291.59375 254.203125 292.972656 255.339844 293.578125 C 256.769531 294.34375 257.796875 295.484375 258.164062 296.710938 C 258.390625 297.464844 258.371094 297.886719 258.0625 298.953125 C 257.503906 300.863281 256.796875 301.761719 254.707031 303.199219 C 253.679688 303.90625 252.675781 304.738281 252.46875 305.054688 C 252.246094 305.394531 252.015625 306.546875 251.898438 307.886719 C 251.667969 310.605469 251.128906 311.929688 249.769531 313.15625 C 248.429688 314.363281 247.519531 314.355469 244.742188 313.117188 C 242.039062 311.910156 241.066406 311.65625 239.152344 311.660156 C 237.082031 311.664062 235.832031 312.257812 234.269531 313.976562 C 231.351562 317.191406 230.824219 317.664062 230.140625 317.664062 C 228.417969 317.664062 226.960938 314.570312 226.71875 310.390625 L 226.582031 308.046875 L 225.835938 308.046875 C 225.132812 308.046875 224.734375 307.851562 223.191406 306.753906 C 222.605469 306.339844 222.382812 306.324219 220.378906 306.582031 C 218.097656 306.875 216.785156 306.769531 215.914062 306.222656 C 215.625 306.042969 214.652344 305.738281 213.75 305.546875 C 212.84375 305.355469 210.589844 304.53125 208.742188 303.714844 C 200.546875 300.105469 198.320312 299.351562 193.164062 298.441406 C 189.140625 297.734375 184.476562 297.378906 183.792969 297.734375 C 182.921875 298.183594 182.171875 298.964844 182.171875 299.425781 C 182.171875 300.027344 183.492188 301.464844 184.671875 302.148438 C 185.652344 302.71875 189.304688 304.320312 192.714844 305.675781 C 193.691406 306.0625 197.320312 307.363281 200.777344 308.5625 C 204.382812 309.8125 208.335938 311.371094 210.0625 312.21875 C 212.714844 313.519531 213.066406 313.765625 213.066406 314.296875 C 213.066406 314.878906 213.023438 314.894531 211.503906 314.859375 C 209.5625 314.808594 205.917969 313.949219 201.539062 312.511719 C 199.695312 311.902344 196.179688 310.976562 193.726562 310.449219 C 191.273438 309.921875 188.46875 309.273438 187.496094 309.011719 C 186.523438 308.75 184.144531 308.316406 182.210938 308.042969 C 178.886719 307.578125 178.675781 307.570312 178.390625 307.964844 C 177.976562 308.527344 177.996094 308.625 178.679688 309.4375 C 179.851562 310.828125 185.707031 313.347656 195.757812 316.785156 C 198.667969 317.777344 201.808594 318.90625 202.742188 319.292969 C 203.671875 319.679688 205.511719 320.335938 206.828125 320.746094 C 209.367188 321.542969 210.707031 322.226562 210.949219 322.855469 C 211.15625 323.402344 210.664062 323.625 208.867188 323.792969 C 208.003906 323.871094 205.78125 324.101562 203.933594 324.300781 C 202.082031 324.503906 198.347656 324.765625 195.636719 324.886719 C 189.679688 325.148438 185.089844 325.496094 184.511719 325.722656 C 183.421875 326.152344 185.914062 327.324219 188.785156 327.730469 C 190.953125 328.039062 207.101562 330.023438 210.421875 330.394531 C 215.835938 330.992188 220.941406 331.386719 225.972656 331.601562 C 230.921875 331.808594 233.46875 332.023438 240.355469 332.824219 C 241.613281 332.972656 245.019531 333.5625 247.929688 334.132812 C 259.578125 336.429688 264.34375 336.929688 274.527344 336.90625 C 286.058594 336.886719 290.800781 336.464844 297.84375 334.851562 C 305.371094 333.125 312.324219 330.433594 313.804688 328.675781 C 316.1875 325.847656 316.804688 321.480469 316.808594 307.433594 C 316.8125 301.484375 316.703125 299.148438 316.210938 294.210938 C 315.46875 286.769531 314.835938 282.085938 313.929688 277.277344 C 313.546875 275.226562 312.515625 269.386719 311.644531 264.296875 C 309.042969 249.121094 308.738281 247.65625 306.027344 237.375 C 304.953125 233.308594 301.035156 220.789062 300.835938 220.789062 C 300.789062 220.789062 299.964844 221.125 299.003906 221.53125 C 296.273438 222.695312 292.589844 223.644531 287.359375 224.535156 C 267.742188 227.875 264.140625 229.277344 260.792969 234.871094 C 260.042969 236.125 259.949219 236.460938 259.953125 237.96875 C 259.957031 239.601562 260.023438 239.792969 261.9375 243.628906 C 263.027344 245.816406 263.917969 247.679688 263.917969 247.769531 C 263.917969 247.863281 264.296875 248.71875 264.761719 249.671875 C 265.324219 250.828125 265.527344 251.488281 265.367188 251.648438 C 264.9375 252.078125 263.886719 250.804688 262.914062 248.671875 C 262.402344 247.546875 261.765625 246.25 261.5 245.789062 C 260.246094 243.597656 258.808594 240.242188 258.582031 238.976562 C 258.214844 236.945312 258.601562 235.359375 259.957031 233.304688 C 262.550781 229.367188 266.398438 227.15625 273.535156 225.507812 C 274.921875 225.1875 276.871094 224.796875 277.863281 224.636719 C 278.855469 224.476562 280.714844 224.144531 281.996094 223.894531 C 283.28125 223.648438 286.039062 223.175781 288.128906 222.84375 C 290.21875 222.515625 292.683594 222.027344 293.609375 221.761719 C 295.207031 221.300781 299.429688 219.664062 299.785156 219.363281 C 299.878906 219.289062 299.792969 218.089844 299.601562 216.703125 C 298.476562 208.617188 294.558594 194.660156 290.582031 184.582031 C 287.894531 177.777344 285.574219 173.910156 282.082031 170.417969 C 279.582031 167.921875 275.066406 164.457031 272.09375 162.757812 C 269.402344 161.21875 264.484375 157.863281 262.300781 156.082031 C 259.691406 153.949219 257.53125 151.421875 255.296875 147.886719 C 249.617188 138.90625 248.1875 133.582031 248.777344 123.628906 C 248.914062 121.339844 249.339844 117.519531 249.726562 115.140625 C 251.699219 103.027344 251.8125 100.84375 250.605469 98.488281 C 249.597656 96.511719 248.355469 95.425781 246.441406 94.828125 C 244.394531 94.195312 243.761719 94.300781 240.980469 95.746094 C 239.15625 96.695312 238.582031 96.875 237.152344 96.957031 C 236.226562 97.007812 234.90625 96.925781 234.21875 96.773438 C 232.628906 96.414062 229.601562 94.453125 227.832031 92.628906 C 226.503906 91.265625 226.125 90.746094 223.429688 86.609375 C 221.835938 84.160156 219.300781 81.398438 216.203125 78.730469 C 214.984375 77.683594 213.292969 75.929688 212.445312 74.832031 C 208.933594 70.289062 204.730469 66.613281 201.5 65.265625 C 199.335938 64.363281 196.304688 63.988281 193.789062 64.304688 C 191.886719 64.546875 190.429688 64.890625 189.925781 65.21875 C 189.457031 65.523438 189.09375 70.183594 188.296875 86.175781 C 188.109375 89.945312 187.84375 93.492188 187.703125 94.0625 C 187.371094 95.433594 186.222656 97.941406 185.34375 99.214844 C 184.957031 99.777344 183.761719 101.597656 182.683594 103.261719 C 180.292969 106.964844 180.203125 107.507812 181.753906 108.972656 C 183.253906 110.394531 184.03125 110.972656 185.519531 111.777344 C 186.253906 112.171875 186.992188 112.765625 187.160156 113.097656 C 187.347656 113.460938 187.460938 114.515625 187.449219 115.742188 C 187.441406 116.867188 187.4375 118.03125 187.445312 118.332031 C 187.46875 119.046875 189.226562 120.9375 190.457031 121.566406 C 191.035156 121.863281 192.09375 122.113281 193.066406 122.183594 C 194.085938 122.253906 194.621094 122.382812 194.480469 122.523438 C 194.191406 122.8125 191.125 122.898438 190.410156 122.636719 C 189.957031 122.472656 189.867188 122.523438 189.867188 122.949219 C 189.867188 123.230469 189.625 123.886719 189.328125 124.40625 C 188.789062 125.347656 188.789062 125.363281 189.234375 126.136719 C 190.039062 127.535156 190.160156 128.296875 190.328125 133.050781 C 190.476562 137.171875 190.5625 137.882812 191.035156 138.9375 C 192.28125 141.714844 193.785156 142.335938 198.691406 142.101562 C 202.769531 141.90625 207.289062 141.023438 210 139.890625 C 217.628906 136.707031 220.75 135.492188 220.96875 135.628906 C 221.113281 135.714844 220.933594 135.992188 220.550781 136.277344 C 219.625 136.972656 212.308594 140.375 210.089844 141.144531 C 209.082031 141.492188 208.183594 141.84375 208.089844 141.921875 C 207.996094 142 208.566406 143.136719 209.355469 144.449219 C 211.542969 148.089844 212.914062 152.9375 213 157.339844 C 213.027344 158.855469 212.933594 159.570312 212.625 160.15625 C 212.136719 161.082031 210.707031 162.1875 208.859375 163.066406 C 207.601562 163.667969 207.371094 163.695312 204.050781 163.648438 C 202.136719 163.617188 199.699219 163.429688 198.644531 163.226562 C 196.058594 162.730469 195.011719 162.742188 194.800781 163.277344 C 193.253906 167.128906 195.746094 178.683594 199.304688 184.183594 C 202.757812 189.523438 208.300781 193.605469 214.042969 195.046875 C 216.550781 195.679688 222.347656 196.382812 230.019531 196.988281 C 235.324219 197.40625 236.648438 197.4375 239.875 197.203125 C 241.925781 197.054688 244.304688 196.992188 245.164062 197.0625 C 247.597656 197.261719 251.09375 196.332031 256.613281 194.023438 C 258.050781 193.417969 261.230469 192.15625 263.675781 191.214844 C 266.125 190.277344 268.558594 189.253906 269.085938 188.945312 C 269.617188 188.636719 271.023438 187.488281 272.210938 186.398438 C 274.78125 184.039062 276.421875 182.929688 279.683594 181.351562 C 282.289062 180.089844 283.679688 179.777344 283.8125 180.425781 C 284.007812 181.355469 279.804688 185.40625 276.300781 187.667969 C 273.660156 189.371094 266.96875 192.894531 263.796875 194.253906 C 262.210938 194.933594 259.722656 195.824219 258.265625 196.226562 C 251.691406 198.0625 245.765625 199.433594 243 199.769531 C 241.347656 199.96875 237.34375 200.457031 234.105469 200.855469 C 230.867188 201.253906 227.242188 201.691406 226.050781 201.832031 C 222.550781 202.246094 218.535156 201.972656 215.832031 201.140625 C 212.964844 200.253906 208.730469 198.472656 206.695312 197.292969 C 204.738281 196.160156 202.242188 193.675781 199.019531 189.660156 C 195.117188 184.796875 192.570312 180.570312 191.699219 177.503906 C 191.210938 175.792969 190.828125 171.886719 190.824219 168.539062 C 190.820312 165.578125 190.492188 164.230469 189.59375 163.5 C 189.089844 163.089844 188.804688 163.058594 187.101562 163.21875 C 184.007812 163.503906 183.738281 163.496094 183.738281 163.101562 C 183.738281 162.628906 184.746094 162.164062 186.464844 161.84375 C 189.164062 161.34375 190.804688 162.183594 191.410156 164.378906 C 191.597656 165.0625 191.871094 167.730469 192.015625 170.308594 C 192.160156 172.886719 192.4375 175.679688 192.636719 176.519531 C 193.410156 179.785156 195.933594 184.105469 200.167969 189.414062 C 203.457031 193.535156 205.484375 195.46875 207.785156 196.671875 C 210.25 197.960938 214.097656 199.484375 216.617188 200.171875 C 219.597656 200.984375 224.570312 200.90625 231.941406 199.933594 C 235.046875 199.519531 238.890625 199.058594 240.476562 198.90625 C 242.0625 198.753906 243.414062 198.570312 243.480469 198.5 C 243.546875 198.429688 242.84375 198.441406 241.917969 198.527344 C 237.855469 198.914062 234.226562 198.964844 230.628906 198.691406 C 225.636719 198.308594 218.675781 197.554688 216.050781 197.113281 C 210.667969 196.203125 205.503906 193.492188 201.671875 189.554688 C 197.703125 185.480469 195.339844 180.746094 193.804688 173.792969 C 193.214844 171.132812 193.113281 170.152344 193.121094 167.183594 C 193.128906 163.332031 193.394531 162.273438 194.550781 161.515625 C 195.15625 161.121094 195.3125 161.121094 197.636719 161.523438 C 198.984375 161.757812 201.652344 162 203.570312 162.0625 L 207.058594 162.179688 L 208.851562 161.257812 C 211.398438 159.945312 211.644531 159.527344 211.554688 156.648438 C 211.433594 152.664062 210.316406 148.3125 208.582031 145.070312 C 207.476562 142.996094 206.742188 142.117188 206.269531 142.296875 C 205.335938 142.65625 199.484375 143.265625 196.960938 143.265625 C 194.292969 143.265625 193.972656 143.214844 192.722656 142.605469 C 191.265625 141.890625 190.347656 140.808594 189.667969 139.011719 C 189.359375 138.191406 189.273438 137.011719 189.261719 133.292969 L 189.246094 128.605469 L 187.660156 125.363281 L 188.164062 124.324219 C 188.929688 122.742188 188.824219 122.039062 187.582031 120.445312 L 186.5 119.050781 L 186.5 113.84375 L 184.757812 112.839844 C 181.320312 110.859375 180.394531 110.144531 179.816406 109.011719 C 178.875 107.179688 179.3125 105.746094 181.707031 102.761719 C 183.382812 100.675781 185.535156 96.472656 186.242188 93.894531 C 186.625 92.507812 186.785156 90.832031 186.976562 86.203125 C 187.109375 82.949219 187.269531 79.773438 187.332031 79.144531 C 187.390625 78.519531 187.355469 78.003906 187.246094 78.003906 C 186.796875 78.003906 184.332031 80.917969 183.660156 82.242188 C 182.230469 85.070312 182.164062 86.914062 183.144531 96.15625 C 183.609375 100.53125 182.921875 101.265625 177.765625 101.894531 C 175.839844 102.128906 174.78125 102.371094 174.480469 102.644531 C 174.207031 102.890625 173.929688 103.671875 173.761719 104.667969 C 173.429688 106.648438 172.875 107.601562 171.605469 108.40625 L 170.632812 109.019531 L 170.632812 111.039062 C 170.632812 113.007812 170.613281 113.074219 169.878906 113.691406 C 169.460938 114.042969 168.625 114.582031 168.015625 114.894531 C 165.914062 115.96875 165.714844 116.328125 165.128906 120.070312 C 164.632812 123.273438 164.160156 124.566406 163.03125 125.820312 C 161.976562 126.996094 161.277344 127.308594 158.957031 127.648438 C 157.605469 127.84375 153.90625 127.210938 150.644531 126.222656 C 143.074219 123.925781 139.324219 120.914062 136.265625 114.660156 C 134.6875 111.441406 132.699219 108.757812 129.667969 105.761719 C 126.78125 102.90625 124.1875 101.121094 120.078125 99.15625 C 116.472656 97.429688 114.191406 96.695312 107.523438 95.101562 C 100.035156 93.316406 100.035156 93.316406 94.78125 93.3125 C 87.753906 93.308594 86.679688 93.707031 85.148438 96.886719 C 84.109375 99.046875 84.070312 100.28125 85.042969 100.167969 C 86.109375 100.046875 89.636719 100.574219 93.578125 101.445312 C 95.695312 101.914062 100.222656 102.898438 103.644531 103.628906 C 109.691406 104.925781 116.941406 106.816406 121.585938 108.316406 C 127.527344 110.230469 134.859375 114.722656 136.164062 117.246094 C 136.5 117.894531 136.5 118.003906 136.167969 118.335938 C 135.75 118.753906 136.023438 118.898438 128.199219 114.144531 C 123.386719 111.222656 120.105469 109.761719 113.714844 107.699219 C 102.875 104.195312 98.761719 103.316406 89.402344 102.511719 C 87.765625 102.371094 85.941406 102.089844 85.34375 101.890625 C 84.699219 101.671875 83.933594 101.582031 83.460938 101.667969 C 82.082031 101.929688 79.820312 103.652344 78.4375 105.5 C 76.859375 107.613281 72.78125 114.378906 72.78125 114.890625 C 72.78125 114.964844 72.945312 115.023438 73.144531 115.023438 C 73.339844 115.023438 75.855469 115.769531 78.734375 116.6875 C 83.894531 118.328125 84.035156 118.359375 89.609375 118.984375 C 92.71875 119.332031 97.101562 119.933594 99.347656 120.324219 C 101.597656 120.714844 107.003906 121.632812 111.367188 122.363281 C 115.734375 123.09375 121.738281 124.171875 124.710938 124.761719 C 127.6875 125.347656 132.957031 126.316406 136.417969 126.910156 C 143.59375 128.136719 146.238281 128.742188 148.5625 129.6875 C 150.421875 130.445312 154.683594 133.140625 157.53125 135.363281 C 162.855469 139.515625 164.429688 140.730469 166.304688 142.136719 C 169.621094 144.625 172.375 147.058594 174.164062 149.085938 C 176.910156 152.203125 180.042969 158.171875 181.902344 163.828125 C 183.023438 167.242188 183.144531 168.527344 183.40625 179.804688 C 183.625 189.230469 183.605469 191.257812 183.261719 195.550781 C 182.734375 202.117188 182.492188 203.117188 180.800781 205.582031 C 180.054688 206.671875 179.199219 207.792969 178.898438 208.078125 L 178.351562 208.589844 L 176.726562 207.941406 C 175.832031 207.582031 174.828125 207.101562 174.492188 206.867188 C 173.304688 206.050781 173.300781 206.054688 173.65625 207.386719 C 174.824219 211.820312 174.980469 216.910156 174.042969 220.082031 C 173.347656 222.445312 172.898438 223.195312 172.175781 223.195312 C 171.347656 223.195312 170.535156 222.242188 168.953125 219.417969 C 168.230469 218.125 166.832031 215.878906 165.851562 214.433594 C 163.945312 211.621094 162.851562 209.464844 161.886719 206.601562 C 161.195312 204.550781 161.457031 204.699219 157.289062 203.976562 C 153.8125 203.371094 147.460938 202.875 143.707031 202.914062 C 138.394531 202.964844 137.429688 203.695312 138.875 206.566406 C 140.46875 209.722656 143.421875 212.164062 150.316406 216.035156 C 161.246094 222.167969 163.421875 223.554688 163.421875 224.386719 C 163.421875 225.101562 162.746094 225.167969 158.558594 224.863281 C 154.617188 224.574219 149.707031 224.679688 145.507812 225.132812 C 143.078125 225.394531 140.339844 226.203125 140.339844 226.65625 C 140.339844 226.820312 140.582031 227.179688 140.882812 227.449219 C 143.066406 229.449219 146.769531 229.628906 157.273438 228.246094 C 163.101562 227.480469 164.707031 227.382812 165.65625 227.742188 C 167.140625 228.304688 166.628906 229.480469 162.582031 234.847656 C 160.886719 237.09375 159.191406 239.582031 158.816406 240.378906 C 157.742188 242.648438 157.960938 244.613281 159.453125 246.089844 C 160.804688 247.429688 163.265625 246.648438 165.199219 244.261719 C 166.296875 242.90625 166.617188 242.226562 167.824219 238.65625 C 168.890625 235.507812 169.546875 234.238281 170.902344 232.691406 C 171.828125 231.636719 173.367188 230.804688 174.011719 231.011719 C 174.714844 231.234375 174.808594 232.085938 174.394531 234.546875 C 174.191406 235.773438 173.851562 238.667969 173.640625 240.980469 C 173.113281 246.777344 172.6875 249.246094 171.808594 251.671875 C 170.71875 254.683594 169.5625 256.261719 166.710938 258.617188 C 165.363281 259.730469 163.882812 261.039062 163.421875 261.523438 L 162.578125 262.402344 L 163.179688 262.855469 C 164.371094 263.753906 165.605469 263.902344 170.542969 263.734375 C 174.765625 263.59375 175.230469 263.617188 175.371094 263.980469 C 175.453125 264.199219 175.34375 265.253906 175.121094 266.320312 C 174.898438 267.390625 174.71875 268.917969 174.71875 269.714844 C 174.722656 271.933594 175.410156 272.621094 178.207031 273.191406 C 179 273.351562 179.851562 273.660156 180.101562 273.878906 C 180.664062 274.367188 181.210938 275.621094 181.210938 276.421875 C 181.210938 277.296875 180.683594 276.980469 180.121094 275.769531 C 179.628906 274.710938 179.453125 274.617188 176.714844 273.917969 C 175.472656 273.601562 174.285156 272.636719 173.847656 271.589844 C 173.410156 270.542969 173.433594 268.5 173.902344 266.433594 C 174.113281 265.503906 174.25 264.714844 174.203125 264.675781 C 174.15625 264.636719 173.253906 264.703125 172.195312 264.828125 C 171.136719 264.949219 169.027344 265.015625 167.507812 264.972656 C 165.128906 264.90625 164.578125 264.8125 163.554688 264.296875 C 162.898438 263.96875 162.144531 263.398438 161.878906 263.03125 C 161.402344 262.375 161.402344 262.351562 161.847656 261.523438 C 162.097656 261.058594 163.644531 259.539062 165.285156 258.140625 C 166.929688 256.742188 168.609375 255.121094 169.019531 254.535156 C 170.78125 252.039062 171.597656 249.085938 172.304688 242.65625 C 172.585938 240.082031 173.039062 236.640625 173.304688 235.007812 C 173.574219 233.378906 173.734375 231.984375 173.664062 231.914062 C 173.476562 231.726562 172.472656 232.425781 171.613281 233.34375 C 170.59375 234.433594 169.574219 236.441406 168.953125 238.578125 C 167.714844 242.851562 165.628906 245.921875 163.117188 247.179688 C 159.980469 248.742188 157.167969 246.554688 157.167969 242.546875 C 157.167969 241.3125 157.316406 240.753906 158.003906 239.390625 C 158.464844 238.480469 159.253906 237.195312 159.761719 236.535156 C 163.859375 231.203125 165.359375 229.125 165.277344 228.882812 C 165.109375 228.367188 162.734375 228.449219 156.597656 229.191406 C 147.507812 230.285156 143.804688 230.152344 141.210938 228.632812 C 140.007812 227.925781 139.617188 227.398438 139.617188 226.460938 C 139.617188 225.195312 142.363281 224.339844 147.816406 223.902344 C 151.40625 223.617188 160.34375 223.707031 161.390625 224.042969 C 162.417969 224.375 160.351562 222.933594 157.667969 221.445312 C 146.394531 215.207031 142.742188 212.863281 140.460938 210.398438 C 138.976562 208.796875 137.214844 205.828125 137.214844 204.929688 C 137.214844 204.042969 137.777344 202.972656 138.417969 202.640625 C 140.273438 201.679688 144.234375 201.53125 151.460938 202.148438 C 155.191406 202.464844 160.230469 203.265625 160.828125 203.632812 C 160.9375 203.703125 160.949219 203.289062 160.855469 202.71875 C 160.761719 202.148438 160.679688 200.851562 160.671875 199.84375 C 160.648438 196.917969 161.53125 196.425781 164.933594 197.476562 C 166.84375 198.066406 168.851562 199.507812 170.632812 201.574219 C 172.964844 204.277344 174.535156 205.667969 176.203125 206.507812 C 177.101562 206.960938 177.984375 207.328125 178.171875 207.328125 C 178.632812 207.328125 180.113281 205.65625 180.738281 204.429688 C 182.167969 201.628906 182.589844 195.003906 182.199219 181.421875 C 182.046875 176.019531 181.8125 170.628906 181.679688 169.449219 C 180.996094 163.363281 177.1875 154.550781 173.492188 150.507812 C 170.59375 147.34375 156.96875 136.289062 153.347656 134.167969 C 152.546875 133.699219 151.429688 133.191406 150.863281 133.042969 C 150.296875 132.898438 148.480469 132.355469 146.824219 131.839844 C 143.378906 130.765625 137.3125 129.265625 132.828125 128.378906 C 129.601562 127.738281 125.058594 127.21875 119.0625 126.796875 C 109.535156 126.132812 102.097656 124.679688 89.007812 120.925781 C 86.101562 120.09375 82.964844 119.335938 82.039062 119.242188 C 78.378906 118.882812 74.183594 118.136719 73.3125 117.691406 C 72.808594 117.433594 72.269531 116.945312 72.113281 116.605469 C 71.855469 116.042969 71.699219 115.984375 70.476562 115.984375 C 69.617188 115.984375 68.351562 116.242188 66.988281 116.699219 C 63.515625 117.863281 61.695312 118.902344 55.832031 123.070312 C 49.308594 127.710938 42.335938 131.773438 31.886719 137.019531 C 27.839844 139.050781 23.527344 141.382812 22.304688 142.203125 C 15.132812 147 12.863281 151.398438 10.894531 164.300781 C 10.035156 169.929688 9.800781 173.078125 9.652344 181.007812 C 9.453125 191.695312 8.578125 200.738281 6.90625 209.429688 C 5.550781 216.464844 5.484375 218.902344 6.445312 226.4375 C 6.996094 230.769531 7.035156 234.960938 6.546875 237.53125 C 6.347656 238.570312 5.75 240.933594 5.21875 242.785156 C 2.558594 252.035156 2.421875 257.203125 4.648438 264.457031 C 6.539062 270.613281 6.53125 270.582031 6.523438 274.875 C 6.515625 278.300781 6.410156 279.429688 5.726562 283.167969 C 4.988281 287.199219 4.941406 287.757812 5.050781 291.339844 C 5.140625 294.378906 5.316406 295.921875 5.890625 298.671875 C 6.722656 302.636719 7.167969 305.585938 7.875 311.773438 C 8.746094 319.425781 9.515625 323.851562 10.25 325.457031 C 10.929688 326.941406 15.476562 333.296875 17.910156 336.160156 C 19.566406 338.105469 21.699219 341.34375 22.636719 343.332031 C 23.023438 344.152344 23.417969 344.824219 23.507812 344.824219 C 23.597656 344.824219 23.746094 344.269531 23.835938 343.589844 C 24.097656 341.632812 25.25 337.414062 26.976562 332.085938 C 28.855469 326.304688 29.527344 323.636719 30.34375 318.738281 C 30.878906 315.542969 30.945312 314.441406 30.945312 308.890625 C 30.941406 300.597656 30.601562 294.582031 29.867188 289.898438 C 28.988281 284.296875 27.011719 274.097656 25.636719 268.0625 C 24.980469 265.175781 24.113281 261.226562 23.710938 259.289062 C 23.3125 257.351562 22.402344 253.441406 21.691406 250.597656 C 18.773438 238.910156 18.015625 233.578125 17.714844 222.59375 C 17.605469 218.625 17.402344 214.855469 17.261719 214.207031 C 16.308594 209.828125 15.675781 197.652344 16.019531 190.320312 C 16.386719 182.410156 16.882812 178.941406 18.472656 173.195312 C 19.273438 170.304688 19.726562 169.550781 20.730469 169.445312 C 21.683594 169.34375 22.195312 169.871094 22.542969 171.316406 C 22.925781 172.902344 22.722656 174.734375 21.707031 178.867188 C 19.773438 186.757812 19.445312 190.535156 19.382812 205.644531 L 19.339844 216.824219 L 20.113281 221.03125 C 21.050781 226.128906 23.554688 237.074219 25.171875 243.144531 C 28.164062 254.378906 31.4375 268.382812 32.273438 273.554688 C 33.316406 279.980469 33.578125 282.65625 33.859375 289.703125 C 34.273438 300.292969 34.003906 305.925781 32.609375 315.621094 C 31.367188 324.222656 30.894531 326.265625 27.941406 335.691406 C 27.09375 338.402344 26.125 341.753906 25.792969 343.144531 C 24.683594 347.765625 23.738281 355.757812 23.734375 360.511719 C 23.734375 361.964844 23.660156 362.375 23.390625 362.375 C 22.730469 362.375 22.460938 359.917969 22.644531 355.644531 C 22.742188 353.460938 22.8125 351.136719 22.800781 350.476562 C 22.792969 349.8125 22.890625 348.683594 23.019531 347.964844 L 23.253906 346.65625 L 22.015625 344.71875 C 19.46875 340.726562 18.65625 339.59375 16.546875 337.078125 C 13.722656 333.710938 10.371094 329 9.40625 327.039062 C 8.117188 324.417969 7.1875 321.027344 6.0625 314.871094 C 4.867188 308.347656 4.261719 304.082031 4.261719 302.242188 C 4.261719 301.574219 4.035156 299.332031 3.757812 297.265625 C 3.070312 292.132812 3.199219 286.917969 4.128906 282.449219 C 4.90625 278.703125 5.210938 273.082031 4.761719 270.792969 C 4.605469 270 4 267.777344 3.414062 265.859375 C 1.875 260.800781 1.527344 258.75 1.539062 254.804688 C 1.554688 251.085938 2.191406 247.234375 3.558594 242.632812 C 5.074219 237.539062 5.296875 236.269531 5.296875 232.6875 C 5.300781 230.558594 5.109375 227.929688 4.78125 225.527344 C 3.910156 219.183594 4.066406 215.597656 5.554688 207.6875 C 6.882812 200.644531 7.773438 190.886719 7.976562 181.175781 C 8.136719 173.351562 8.539062 168.632812 9.5625 162.4375 C 11.449219 151.027344 13.582031 146.714844 19.585938 142.1875 C 21.75 140.558594 23.617188 139.515625 31.066406 135.773438 C 35.960938 133.316406 41.261719 130.601562 42.847656 129.742188 C 48.28125 126.804688 56.382812 121.789062 57.875 120.4375 C 58.851562 119.554688 62.222656 117.496094 64.144531 116.609375 C 66.378906 115.582031 68.105469 115.082031 70.234375 114.84375 C 71.878906 114.664062 71.894531 114.65625 72.203125 113.765625 C 72.632812 112.523438 75.996094 106.777344 77.253906 105.136719 C 78.707031 103.246094 80.464844 101.730469 81.988281 101.058594 L 83.292969 100.484375 L 83.277344 99.28125 C 83.265625 98.402344 83.476562 97.609375 84.058594 96.355469 C 85.503906 93.230469 87.128906 92.242188 91.234375 91.984375 L 93.777344 91.824219 L 95.429688 89.664062 C 97.296875 87.214844 100.117188 81.863281 101.800781 77.570312 C 102.980469 74.558594 103.460938 73.015625 104.394531 69.230469 C 104.945312 66.996094 105.183594 65.566406 106.445312 56.851562 C 107 52.996094 107.027344 50.324219 106.558594 44.351562 C 105.742188 33.878906 106.257812 30.761719 110.050781 23.195312 C 113.632812 16.058594 117.230469 12.265625 123.148438 9.382812 C 128.621094 6.722656 134.417969 5.417969 141.625 5.230469 C 146.324219 5.105469 153.066406 5.453125 156.808594 6.015625 C 159.667969 6.445312 162.59375 7.382812 165.101562 8.671875 C 167.746094 10.03125 168.585938 10.746094 170.78125 13.503906 C 172.746094 15.972656 174.570312 17.351562 177.246094 18.390625 C 183.105469 20.671875 185.96875 22.121094 187.011719 23.339844 C 187.226562 23.59375 188.003906 24.773438 188.742188 25.960938 C 191.390625 30.25 193.21875 31.761719 197.457031 33.175781 C 202.128906 34.738281 202.113281 34.730469 202.519531 35.511719 C 202.890625 36.230469 202.871094 37.273438 202.445312 39.738281 L 202.308594 40.535156 L 203.679688 39.660156 C 205.835938 38.28125 212.460938 35.113281 214.667969 34.402344 C 215.773438 34.046875 217.429688 33.59375 218.355469 33.394531 C 220.671875 32.890625 226.929688 32.691406 229.964844 33.023438 C 233.226562 33.378906 238.910156 34.507812 242.117188 35.433594 C 243.535156 35.84375 245.101562 36.179688 245.597656 36.179688 C 247.226562 36.179688 249.253906 35.476562 253.554688 33.425781 C 258.328125 31.152344 258.9375 30.949219 261.640625 30.738281 C 263.945312 30.558594 265.378906 30.828125 268.355469 32.007812 C 271.695312 33.332031 273.152344 34.335938 276.5 37.605469 C 279.792969 40.828125 284.023438 46.125 288.792969 53.003906 C 291.761719 57.285156 292.945312 59.511719 294.09375 62.945312 C 295.652344 67.617188 296.574219 75.429688 296.296875 81.609375 C 296.144531 84.90625 295.765625 86.503906 294.613281 88.679688 C 292.46875 92.734375 284.785156 97.8125 283.199219 96.226562 C 282.246094 95.269531 283.476562 92.785156 287.496094 87.570312 C 290.066406 84.234375 290.570312 82.851562 291.203125 77.382812 C 291.972656 70.75 291.777344 68.195312 290.222656 64.496094 C 289.679688 63.203125 286.835938 57.976562 285.660156 56.109375 C 285.363281 55.636719 284.5625 54.140625 283.882812 52.785156 C 281.074219 47.191406 278.660156 43.785156 274.5 39.546875 C 271.414062 36.402344 270.277344 35.851562 265.71875 35.285156 C 262.113281 34.835938 257.335938 34.726562 256.015625 35.0625 C 254.796875 35.371094 255.15625 34.71875 256.484375 34.207031 C 258.511719 33.429688 267.042969 33.914062 270.109375 34.980469 C 270.800781 35.222656 271.371094 35.375 271.371094 35.320312 C 271.371094 35.136719 268.132812 33.597656 266.320312 32.921875 C 264.851562 32.371094 264.140625 32.25 262.476562 32.257812 C 259.84375 32.269531 259.027344 32.507812 254.601562 34.519531 C 252.589844 35.4375 250.101562 36.425781 249.074219 36.714844 L 247.207031 37.242188 L 249.25 38.625 C 252.578125 40.875 254.492188 42.621094 258.742188 47.277344 C 266.003906 55.234375 267.320312 57.503906 268.992188 64.949219 C 270.292969 70.726562 271.152344 72.667969 274.550781 77.492188 C 277.777344 82.078125 278.542969 84.253906 278.753906 89.480469 C 278.941406 94.210938 278.535156 96.433594 276.65625 100.96875 C 276.363281 101.667969 276.488281 101.964844 279.726562 108.300781 C 281.921875 112.597656 283.671875 116.40625 284.738281 119.214844 C 285.839844 122.117188 286.710938 124 287.402344 124.984375 C 291.902344 131.359375 294.0625 136.109375 298.066406 148.433594 C 299.417969 152.601562 301.441406 158.386719 302.558594 161.296875 C 303.675781 164.203125 305.726562 169.613281 307.113281 173.316406 C 308.5 177.015625 310.101562 181.179688 310.671875 182.570312 C 311.695312 185.0625 320.300781 203.8125 323.417969 210.332031 C 327.503906 218.875 329.457031 223.691406 331.875 231.179688 C 332.585938 233.390625 334.738281 239.097656 336.65625 243.863281 C 338.574219 248.628906 340.964844 254.984375 341.964844 257.980469 C 342.96875 260.980469 344.054688 264.035156 344.382812 264.769531 C 345.953125 268.285156 348.832031 275.34375 350.957031 280.886719 C 354.320312 289.660156 357.828125 298.519531 361.710938 308.046875 C 365.523438 317.402344 368.003906 325 369.921875 333.167969 C 372.746094 345.203125 373.214844 348.628906 372.191406 349.660156 C 370.972656 350.875 369.207031 349.398438 367.433594 345.6875 C 365.074219 340.742188 364.078125 337.757812 359.242188 321.148438 C 357.859375 316.390625 356.175781 310.710938 355.5 308.527344 C 354.828125 306.347656 353.050781 299.75 351.546875 293.867188 C 348.171875 280.644531 346.917969 276.257812 345.5 272.714844 C 343.621094 268.019531 337.484375 253.972656 333.945312 246.269531 C 329.472656 236.53125 329.34375 236.234375 326.785156 229.5625 C 324.734375 224.210938 318.347656 208.359375 314.046875 197.953125 C 313.039062 195.507812 311.203125 190.585938 309.96875 187.015625 C 306.214844 176.160156 304.257812 170.757812 301.359375 163.21875 C 299.832031 159.253906 297.867188 153.933594 296.996094 151.398438 C 294.90625 145.328125 292.621094 139.855469 288.34375 130.6875 C 286.414062 126.542969 284.835938 123.082031 284.835938 122.988281 C 284.835938 122.898438 284.492188 122.410156 284.074219 121.90625 C 283.546875 121.261719 283.40625 120.933594 283.601562 120.808594 C 284.089844 120.507812 281.886719 114.996094 278.707031 108.578125 L 275.769531 102.644531 L 275.097656 103.964844 C 273.535156 107.0625 270.917969 110.242188 265.710938 115.382812 C 261.386719 119.648438 260.546875 120.851562 259.917969 123.664062 C 259.578125 125.195312 259.359375 125.625 258.414062 126.644531 C 255.917969 129.324219 252.699219 129.6875 250.6875 127.515625 L 249.84375 126.601562 L 250.03125 129.164062 C 250.484375 135.289062 252.328125 140.011719 257.097656 147.257812 C 260.3125 152.136719 263.5625 155.109375 270.488281 159.492188 C 277.496094 163.929688 280.15625 165.902344 283.28125 168.988281 C 287.671875 173.320312 290.859375 179.257812 294.511719 189.902344 C 297.5625 198.796875 299.710938 206.914062 300.9375 214.179688 C 301.359375 216.691406 301.972656 219.503906 302.300781 220.429688 C 304.226562 225.90625 306.324219 232.378906 307.050781 235.09375 C 307.511719 236.8125 308.382812 240.054688 308.992188 242.304688 C 310.242188 246.945312 311.667969 253.988281 313.445312 264.296875 C 314.117188 268.199219 315.035156 273.335938 315.480469 275.714844 C 316.734375 282.375 317.296875 286.832031 318.285156 297.953125 C 318.679688 302.386719 318.410156 319.734375 317.902344 322.589844 C 316.941406 328.007812 315.800781 329.789062 311.875 331.992188 C 311.296875 332.316406 311.320312 332.734375 312.152344 336.894531 C 313.933594 345.84375 318.277344 361.167969 320.675781 366.984375 C 321.0625 367.921875 321.378906 368.835938 321.378906 369.015625 C 321.378906 369.578125 320.949219 369.378906 320.289062 368.511719 Z M 370.332031 343.023438 C 368.214844 333.902344 366.679688 328.136719 364.878906 322.496094 C 363.054688 316.796875 362.066406 314.226562 357.554688 303.480469 C 356.582031 301.167969 354.90625 297.003906 353.828125 294.226562 C 350.851562 286.550781 350.261719 285.074219 350.246094 285.277344 C 350.222656 285.5625 353.996094 300.570312 354.945312 303.960938 C 355.40625 305.613281 356.527344 309.347656 357.4375 312.253906 C 358.347656 315.164062 359.699219 319.707031 360.445312 322.351562 C 361.734375 326.929688 362.886719 330.722656 365.273438 338.214844 C 366.699219 342.703125 368.84375 347.121094 370.089844 348.152344 L 371.027344 348.925781 L 371.097656 347.777344 C 371.140625 347.082031 370.835938 345.207031 370.332031 343.023438 Z M 172.421875 340.402344 C 173.132812 339.332031 174.605469 336.886719 175.703125 334.96875 C 178.054688 330.855469 180.699219 326.609375 181.6875 325.363281 C 182.074219 324.875 183.722656 323.542969 185.347656 322.410156 C 188.273438 320.363281 191.191406 317.945312 190.984375 317.738281 C 190.675781 317.429688 186.480469 320.113281 185.316406 321.363281 C 184.996094 321.707031 184.601562 321.988281 184.441406 321.988281 C 183.710938 321.988281 176.757812 330.199219 174.226562 334.046875 C 171.992188 337.441406 170.394531 340.902344 170.394531 342.335938 C 170.394531 342.871094 170.445312 342.917969 170.761719 342.65625 C 170.96875 342.484375 171.714844 341.472656 172.421875 340.402344 Z M 170.363281 336.902344 C 171.632812 335.25 173.863281 332.476562 175.320312 330.738281 C 176.777344 329 178.878906 326.476562 179.992188 325.128906 C 181.105469 323.785156 182.632812 322.121094 183.382812 321.4375 C 184.847656 320.09375 189.019531 317.503906 190.898438 316.765625 L 192.050781 316.316406 L 188.265625 314.917969 C 185.492188 313.894531 184.449219 313.605469 184.371094 313.832031 C 184.183594 314.402344 183.050781 315.292969 179.648438 317.5625 C 177.796875 318.792969 175.253906 320.703125 173.996094 321.796875 C 171.414062 324.046875 169.863281 325.210938 168.109375 326.210938 C 167.113281 326.777344 163 330.289062 161.136719 332.160156 C 160.324219 332.976562 162.632812 331.589844 167.867188 328.121094 C 170.511719 326.371094 174.082031 324.023438 175.800781 322.910156 C 177.523438 321.792969 180.429688 319.765625 182.265625 318.40625 C 185.632812 315.910156 186.953125 315.023438 187.28125 315.019531 C 187.382812 315.019531 187.464844 315.21875 187.464844 315.46875 C 187.464844 315.953125 184.289062 318.972656 179.046875 323.472656 C 174.972656 326.972656 168.804688 333.257812 166.839844 335.910156 C 166.015625 337.019531 165.34375 338.03125 165.34375 338.160156 C 165.34375 338.441406 167.125 337.046875 168.949219 335.339844 C 169.679688 334.65625 170.488281 333.945312 170.75 333.753906 C 171.222656 333.410156 171.222656 333.414062 170.761719 334.128906 C 169.617188 335.914062 168.125 338.546875 167.710938 339.511719 C 167.050781 341.042969 167.574219 340.527344 170.363281 336.902344 Z M 158.136719 329.671875 C 163.101562 328.3125 164.992188 327.285156 167.878906 324.367188 L 170.273438 321.953125 L 168.230469 323.191406 C 167.105469 323.871094 163.960938 325.546875 161.238281 326.917969 C 155.03125 330.046875 154.257812 330.734375 158.136719 329.671875 Z M 170.035156 324.152344 C 170.609375 323.753906 172.113281 322.472656 173.371094 321.304688 C 174.632812 320.136719 176.503906 318.605469 177.535156 317.902344 C 179.480469 316.578125 180.421875 315.808594 179.167969 316.570312 C 177.789062 317.40625 173.742188 320.34375 172.371094 321.5 C 168.816406 324.503906 167.726562 325.742188 170.035156 324.152344 Z M 183.367188 313.089844 C 183.375 312.960938 181.859375 312.328125 181.828125 312.445312 C 181.820312 312.480469 181.054688 313.292969 180.128906 314.253906 L 178.449219 316 L 180.902344 314.609375 C 182.253906 313.84375 183.363281 313.160156 183.367188 313.089844 Z M 227.667969 305.574219 C 229.707031 303.59375 231.042969 299.050781 230.144531 297.15625 C 228.976562 294.699219 225.394531 292.800781 219.609375 291.578125 L 216.996094 291.023438 L 215.753906 291.527344 C 214.273438 292.125 212.3125 293.367188 211.527344 294.199219 C 210.746094 295.035156 210.988281 295.785156 212.277344 296.507812 C 212.84375 296.828125 213.816406 297.558594 214.433594 298.136719 C 215.742188 299.359375 216.136719 300.613281 215.910156 302.8125 C 215.78125 304.046875 215.824219 304.214844 216.410156 304.800781 L 217.050781 305.441406 L 220.25 305.273438 L 223.449219 305.101562 L 224.269531 305.847656 C 225.46875 306.9375 226.339844 306.867188 227.667969 305.574219 Z M 5.144531 304.878906 C 5.070312 304.6875 5.011719 304.742188 5 305.023438 C 4.992188 305.277344 5.046875 305.417969 5.128906 305.339844 C 5.207031 305.257812 5.214844 305.050781 5.144531 304.878906 Z M 32.164062 289.539062 C 32.023438 286.035156 31.796875 282.195312 31.660156 281.003906 C 30.929688 274.507812 29 265.335938 25.378906 251.078125 C 22.019531 237.839844 21.347656 235.117188 20.460938 231.125 C 19.6875 227.640625 19.515625 227.101562 19.453125 227.988281 C 19.339844 229.535156 20.070312 236.265625 20.742188 239.9375 C 21.0625 241.675781 21.929688 245.625 22.664062 248.710938 C 23.402344 251.796875 24.28125 255.566406 24.617188 257.085938 C 24.953125 258.609375 25.859375 262.664062 26.632812 266.101562 C 30.175781 281.886719 31.929688 292.960938 32.199219 301.195312 C 32.230469 302.121094 32.292969 301.3125 32.335938 299.394531 C 32.382812 297.476562 32.304688 293.042969 32.164062 289.539062 Z M 206.65625 262.015625 C 206.539062 260.824219 206.417969 256.964844 206.382812 253.433594 C 206.351562 249.90625 206.25 246.945312 206.164062 246.855469 C 205.910156 246.605469 205.050781 248.171875 204.527344 249.839844 C 203.605469 252.796875 204.109375 257.796875 205.746094 261.90625 C 206.03125 262.628906 206.367188 263.476562 206.488281 263.792969 C 206.84375 264.707031 206.878906 264.324219 206.65625 262.015625 Z M 335.898438 244.574219 C 334.371094 240.8125 332.113281 234.761719 330.882812 231.125 C 327.742188 221.867188 326.824219 219.617188 322.226562 209.972656 C 320.746094 206.867188 318.097656 201.15625 316.335938 197.285156 C 314.578125 193.414062 313.097656 190.289062 313.046875 190.335938 C 312.949219 190.4375 315.78125 197.648438 317.175781 200.839844 C 317.667969 201.960938 319.796875 207.101562 321.910156 212.257812 C 325.484375 220.972656 327.109375 225.015625 330.371094 233.289062 C 331.65625 236.542969 338.476562 251.613281 338.605469 251.484375 C 338.644531 251.445312 337.425781 248.335938 335.898438 244.574219 Z M 173.003906 220.289062 C 173.855469 217.660156 173.960938 214.089844 173.300781 210.230469 C 173.023438 208.589844 172.597656 206.914062 172.359375 206.507812 L 171.929688 205.765625 L 168.214844 205.738281 C 166.171875 205.722656 164.140625 205.59375 163.699219 205.449219 C 162.925781 205.195312 162.898438 205.207031 163.03125 205.742188 C 163.449219 207.398438 165.164062 210.871094 166.699219 213.164062 C 167.660156 214.597656 169.214844 217.230469 170.160156 219.015625 C 171.109375 220.820312 171.996094 222.21875 172.148438 222.167969 C 172.300781 222.117188 172.6875 221.273438 173.003906 220.289062 Z M 170.941406 204.730469 L 171.847656 204.5625 L 169.617188 202.234375 C 167.847656 200.390625 167.066406 199.757812 165.824219 199.1875 C 163.8125 198.257812 162.109375 197.984375 161.890625 198.550781 C 161.703125 199.050781 162.144531 203.136719 162.453125 203.714844 C 162.65625 204.089844 163.828125 204.433594 166.066406 204.769531 C 167.113281 204.925781 170 204.902344 170.941406 204.730469 Z M 18.195312 191.210938 C 18.714844 187.023438 19.183594 184.640625 20.402344 179.925781 C 21.070312 177.347656 21.675781 174.472656 21.746094 173.535156 C 21.941406 170.964844 21.25 169.367188 20.390625 170.402344 C 20.105469 170.746094 18.921875 175.34375 18.46875 177.882812 C 17.632812 182.515625 17.140625 192.019531 17.421875 198.074219 L 17.597656 201.921875 L 17.753906 197.699219 C 17.84375 195.378906 18.039062 192.457031 18.195312 191.210938 Z M 259.488281 194.6875 C 261.453125 194.054688 266.054688 192.074219 266.714844 191.582031 C 266.960938 191.398438 265.59375 191.84375 263.675781 192.570312 C 259.621094 194.117188 256.636719 195.316406 256.464844 195.476562 C 256.289062 195.644531 257.5625 195.3125 259.488281 194.6875 Z M 276.390625 186.21875 C 277.496094 185.480469 279.175781 184.132812 280.117188 183.226562 L 281.828125 181.582031 L 279.566406 182.722656 C 276.972656 184.027344 274.195312 186.03125 272.453125 187.851562 L 271.25 189.109375 L 272.8125 188.335938 C 273.671875 187.910156 275.28125 186.960938 276.390625 186.21875 Z M 294.683594 140.476562 C 293.222656 136.503906 289.277344 128.289062 288.976562 128.589844 C 288.933594 128.632812 289.910156 130.816406 291.148438 133.445312 C 292.386719 136.070312 293.820312 139.214844 294.332031 140.433594 C 294.847656 141.65625 295.304688 142.617188 295.347656 142.574219 C 295.390625 142.527344 295.09375 141.585938 294.683594 140.476562 Z M 151.066406 132.121094 C 150.371094 131.351562 147.476562 130.179688 144.753906 129.5625 C 141.515625 128.832031 134.105469 127.667969 133.910156 127.859375 C 133.832031 127.9375 133.976562 128.003906 134.230469 128.003906 C 135.121094 128.003906 144.585938 130.398438 147.914062 131.464844 C 149.765625 132.058594 151.324219 132.550781 151.375 132.558594 C 151.429688 132.566406 151.292969 132.367188 151.066406 132.121094 Z M 133.429688 127.605469 C 133.261719 127.535156 132.992188 127.535156 132.828125 127.605469 C 132.660156 127.671875 132.796875 127.726562 133.128906 127.726562 C 133.457031 127.726562 133.59375 127.671875 133.429688 127.605469 Z M 132.226562 127.363281 C 132.0625 127.296875 131.789062 127.296875 131.625 127.363281 C 131.460938 127.429688 131.59375 127.484375 131.925781 127.484375 C 132.257812 127.484375 132.390625 127.429688 132.226562 127.363281 Z M 130.898438 127.136719 C 130.820312 127.058594 130.613281 127.046875 130.4375 127.117188 C 130.246094 127.195312 130.304688 127.25 130.582031 127.261719 C 130.835938 127.273438 130.980469 127.214844 130.898438 127.136719 Z M 255.453125 126.941406 C 255.8125 126.753906 256.503906 126.1875 256.996094 125.679688 C 257.734375 124.917969 257.953125 124.445312 258.265625 122.953125 C 258.925781 119.773438 259.511719 118.875 263.433594 115.015625 C 270.042969 108.519531 272.257812 105.695312 274.636719 100.753906 C 276.59375 96.683594 276.992188 94.972656 276.992188 90.625 C 276.992188 85.246094 276.273438 83.039062 273.054688 78.484375 C 269.671875 73.703125 268.554688 71.246094 267.417969 66.105469 C 265.789062 58.726562 264.574219 56.464844 258.699219 49.878906 C 249.542969 39.609375 246.53125 37.785156 234.617188 35.292969 C 230.515625 34.433594 230.214844 34.40625 225.210938 34.390625 C 218.429688 34.371094 216.183594 34.867188 210.304688 37.679688 C 208.652344 38.46875 207.03125 39.21875 206.707031 39.34375 C 206.378906 39.46875 204.445312 40.566406 202.40625 41.78125 C 196.308594 45.414062 195.261719 46.753906 192.75 54.117188 C 191.613281 57.449219 189.992188 63.304688 190.160156 63.472656 C 190.203125 63.515625 190.988281 63.339844 191.910156 63.082031 C 193.8125 62.554688 197.121094 62.464844 199.378906 62.882812 C 203.515625 63.644531 208.632812 67.339844 212.847656 72.617188 C 214.898438 75.1875 215.359375 75.667969 218.828125 78.84375 C 221.851562 81.613281 223.621094 83.75 225.742188 87.203125 C 228.957031 92.4375 233.066406 95.550781 236.75 95.550781 C 237.628906 95.550781 238.421875 95.277344 240.378906 94.289062 C 242.710938 93.113281 242.996094 93.027344 244.5625 93.046875 C 247.734375 93.078125 249.992188 94.429688 251.589844 97.253906 C 253.089844 99.898438 253.136719 101.816406 251.882812 109.613281 C 250.832031 116.148438 250.632812 118.320312 250.730469 121.988281 C 250.832031 125.605469 251.058594 126.289062 252.402344 126.976562 C 253.175781 127.378906 254.65625 127.359375 255.453125 126.941406 Z M 125.792969 126.167969 C 122.167969 125.441406 108.453125 122.988281 99.109375 121.394531 C 95.25 120.738281 90.046875 120.035156 89.929688 120.152344 C 89.882812 120.199219 91.28125 120.625 93.035156 121.105469 C 105.441406 124.496094 109.597656 125.25 121.105469 126.214844 C 123.683594 126.433594 126.445312 126.691406 127.238281 126.796875 C 130.246094 127.183594 129.742188 126.960938 125.792969 126.167969 Z M 161.871094 125.34375 C 162.308594 124.921875 162.777344 124.292969 162.914062 123.945312 C 163.195312 123.238281 164.011719 119.9375 164.246094 118.578125 C 164.625 116.375 165.921875 114.605469 167.867188 113.632812 C 169.355469 112.886719 169.621094 112.460938 169.710938 110.65625 L 169.792969 109.050781 L 168.949219 108.671875 C 167.96875 108.226562 165.15625 105.765625 165.375 105.542969 C 165.457031 105.457031 166.652344 105.988281 168.035156 106.71875 L 170.542969 108.046875 L 171.304688 107.261719 C 171.910156 106.636719 172.144531 106.089844 172.453125 104.5625 C 172.667969 103.507812 172.996094 102.402344 173.183594 102.105469 C 173.738281 101.234375 174.929688 100.761719 176.523438 100.785156 C 178.707031 100.816406 181.484375 100.199219 182.023438 99.566406 C 182.40625 99.113281 182.453125 98.773438 182.335938 97.234375 C 182.257812 96.242188 182.011719 94.675781 181.785156 93.75 C 181.496094 92.558594 181.367188 90.972656 181.355469 88.339844 C 181.332031 84.820312 181.367188 84.53125 181.96875 83.132812 C 182.894531 80.972656 183.902344 79.628906 185.773438 78.066406 L 187.425781 76.683594 L 187.449219 74.15625 C 187.515625 67.496094 188.679688 61.839844 191.601562 53.964844 C 193.128906 49.847656 194.90625 46.363281 196.238281 44.882812 L 197.277344 43.726562 L 195.589844 44.15625 C 191.925781 45.085938 190.269531 44.976562 184.578125 43.445312 C 180.390625 42.316406 176.171875 42.667969 173.507812 44.363281 C 171.75 45.480469 166.101562 51.417969 164.25 54.085938 C 160.246094 59.867188 155.398438 63.492188 152.332031 63.003906 C 150.078125 62.644531 148.175781 60.957031 147.296875 58.539062 C 146.808594 57.203125 146.804688 57.199219 145.894531 57.289062 C 145.261719 57.347656 144.445312 57.144531 143.230469 56.628906 C 138.859375 54.769531 134.515625 55.164062 131.742188 57.671875 C 130.371094 58.90625 129.792969 60.4375 129.5 63.601562 C 129.203125 66.742188 129.449219 68.796875 130.40625 71.21875 C 131.949219 75.121094 133.789062 76.394531 138.65625 76.929688 C 140.476562 77.128906 141.300781 77.398438 141.300781 77.792969 C 141.300781 77.996094 140.597656 78.039062 138.71875 77.945312 C 135.847656 77.804688 134.402344 77.371094 132.550781 76.097656 C 131.011719 75.039062 130.171875 73.800781 129.261719 71.25 L 128.488281 69.101562 L 127.941406 70.445312 C 127.128906 72.453125 126.261719 73.621094 125 74.417969 C 122.609375 75.9375 119.285156 76.457031 115.3125 75.9375 C 113.128906 75.652344 105.8125 74.230469 104.816406 73.898438 C 104.617188 73.832031 104.226562 74.660156 103.667969 76.320312 C 102.34375 80.269531 99.359375 86.121094 97.105469 89.183594 L 95.160156 91.824219 L 98.097656 91.980469 C 100.9375 92.132812 103.925781 92.675781 107.160156 93.632812 C 108.019531 93.882812 110.15625 94.414062 111.90625 94.808594 C 113.65625 95.203125 116.089844 95.921875 117.316406 96.410156 C 120.457031 97.652344 124.929688 99.964844 126.636719 101.21875 C 127.429688 101.804688 128.125 102.28125 128.183594 102.28125 C 128.238281 102.28125 127.765625 101.171875 127.125 99.820312 C 125.222656 95.773438 124.226562 92.546875 125.179688 93.523438 C 125.300781 93.648438 125.988281 95.070312 126.710938 96.6875 C 128.644531 101.019531 130.484375 104.117188 132.710938 106.773438 C 135.285156 109.851562 136.445312 111.675781 137.84375 114.867188 C 139.179688 117.910156 140.222656 119.191406 142.859375 121.011719 C 145.101562 122.5625 147.921875 123.898438 151.328125 125.03125 C 154.527344 126.09375 155.933594 126.3125 158.824219 126.203125 C 160.984375 126.117188 161.113281 126.082031 161.871094 125.34375 Z M 76.269531 116.96875 C 75.210938 116.601562 73.964844 116.230469 73.503906 116.136719 L 72.664062 115.972656 L 73.15625 116.464844 C 73.652344 116.960938 76.121094 117.628906 77.46875 117.628906 C 77.980469 117.628906 77.625 117.4375 76.269531 116.96875 Z M 135.050781 117.304688 C 135.050781 117.101562 133.191406 115.492188 131.863281 114.550781 C 129.503906 112.878906 126.042969 110.957031 123.402344 109.851562 C 120.964844 108.832031 113.28125 106.355469 112.621094 106.378906 C 112.460938 106.382812 114.117188 107.027344 116.296875 107.8125 C 122.210938 109.941406 126.636719 112.230469 134.210938 117.09375 C 134.71875 117.421875 135.050781 117.503906 135.050781 117.304688 Z M 288.253906 93.082031 C 291.945312 90.441406 294.027344 87.25 294.445312 83.59375 C 294.75 80.902344 294.34375 72.558594 293.738281 69.214844 C 292.390625 61.734375 290.921875 58.796875 283.570312 48.859375 C 281.582031 46.167969 280.996094 45.542969 282.113281 47.296875 C 282.472656 47.855469 283.480469 49.667969 284.355469 51.320312 C 285.226562 52.972656 287.050781 56.234375 288.402344 58.566406 C 292.457031 65.558594 293.175781 67.855469 292.902344 72.957031 C 292.59375 78.683594 291.949219 82.492188 290.910156 84.699219 C 290.578125 85.40625 289.367188 87.246094 288.21875 88.785156 C 285.957031 91.824219 284.355469 94.308594 284.355469 94.773438 C 284.355469 95.253906 286.550781 94.296875 288.253906 93.082031 Z M 122.664062 74.421875 C 123.453125 74.136719 124.464844 73.558594 124.910156 73.128906 C 127.160156 70.972656 128.378906 66.050781 128.253906 59.613281 C 128.203125 57.027344 128.257812 56.613281 128.75 55.613281 C 129.453125 54.183594 131.347656 52.410156 132.953125 51.675781 C 135.886719 50.332031 139.4375 49.929688 141.664062 50.679688 C 144.054688 51.488281 147.292969 54.5 147.304688 55.929688 C 147.320312 57.566406 149.066406 60.4375 150.585938 61.324219 C 154.003906 63.328125 158.578125 60.40625 163.679688 52.957031 C 165.503906 50.296875 170.246094 45.117188 172.128906 43.730469 C 175.832031 41.003906 180.03125 40.667969 186.742188 42.558594 C 188.394531 43.023438 190.34375 43.460938 191.070312 43.53125 C 192.832031 43.707031 198.410156 42.660156 199.789062 41.898438 C 200.984375 41.238281 201.339844 40.398438 201.570312 37.710938 C 201.742188 35.652344 201.972656 35.847656 198.160156 34.847656 C 196.839844 34.5 195.054688 33.875 194.195312 33.460938 C 192.027344 32.414062 189.203125 29.523438 187.464844 26.574219 C 186.621094 25.144531 185.792969 24.070312 185.179688 23.613281 C 183.917969 22.667969 180.980469 21.300781 177.847656 20.195312 C 173.648438 18.710938 171.769531 17.351562 168.980469 13.773438 C 167.488281 11.859375 166.488281 11.03125 164.382812 9.972656 C 160.027344 7.777344 156.824219 7.164062 146.832031 6.609375 C 141.332031 6.304688 138.382812 6.511719 133.117188 7.570312 C 122.019531 9.800781 116.097656 14.207031 111.308594 23.796875 C 107.722656 30.976562 107.210938 34.175781 108.003906 44.351562 C 108.589844 51.871094 108.511719 53.160156 106.925781 62.140625 C 106.515625 64.453125 105.859375 67.675781 105.46875 69.296875 C 105.078125 70.921875 104.757812 72.453125 104.757812 72.695312 C 104.757812 73.15625 106.046875 73.464844 112.332031 74.5 C 113.519531 74.695312 114.765625 74.90625 115.097656 74.96875 C 115.425781 75.03125 116.941406 75.050781 118.460938 75.011719 C 120.546875 74.957031 121.582031 74.8125 122.664062 74.421875 Z M 132.34375 55.929688 C 135.210938 54.089844 139.679688 53.988281 143.4375 55.679688 C 145.179688 56.460938 146.351562 56.585938 146.351562 55.984375 C 146.351562 55.351562 143.621094 52.875 142.105469 52.132812 C 140.917969 51.546875 140.425781 51.445312 138.898438 51.464844 C 133.957031 51.527344 129.519531 54.488281 129.519531 57.726562 L 129.519531 58.621094 L 130.355469 57.644531 C 130.816406 57.105469 131.710938 56.335938 132.34375 55.929688 Z M 278.34375 41.867188 C 278.34375 41.824219 278.046875 41.527344 277.683594 41.207031 L 277.019531 40.625 L 277.605469 41.285156 C 278.148438 41.902344 278.34375 42.058594 278.34375 41.867188 Z M 347.222656 346.894531 C 345.714844 346.417969 344.980469 345.964844 342.542969 344.007812 C 339.730469 341.746094 338.3125 341.148438 335.683594 341.125 C 333.308594 341.101562 332.042969 341.621094 330.179688 343.378906 C 329.023438 344.472656 328.722656 344.628906 327.355469 344.84375 C 324.117188 345.355469 320.472656 346.085938 318.949219 346.527344 C 317.148438 347.050781 315.761719 347.136719 315.902344 346.710938 C 316.117188 346.066406 321.25 344.769531 327.113281 343.875 C 328.449219 343.671875 328.789062 343.503906 329.828125 342.535156 C 331.558594 340.917969 333.328125 340.175781 335.433594 340.191406 C 338.433594 340.214844 339.976562 340.902344 343.976562 343.984375 C 347.273438 346.523438 349.027344 346.78125 353.15625 345.320312 C 356.949219 343.980469 356.960938 343.972656 356.960938 342.960938 C 356.960938 341.785156 356.066406 338.496094 354.691406 334.609375 C 353.558594 331.414062 349.28125 317.839844 346.621094 309.007812 C 345.804688 306.300781 344.128906 301 342.898438 297.230469 C 341.664062 293.464844 339.613281 286.808594 338.335938 282.449219 C 335.585938 273.03125 332.617188 263.617188 330.128906 256.421875 C 326.519531 245.992188 320.65625 226.929688 316.542969 212.257812 C 311.507812 194.292969 306.511719 179.523438 300.570312 165.023438 C 299.027344 161.253906 296.816406 155.683594 295.660156 152.640625 C 294.503906 149.601562 292.449219 144.628906 291.09375 141.597656 C 289.738281 138.5625 287.785156 134.019531 286.753906 131.5 C 285.722656 128.980469 284.28125 125.496094 283.554688 123.757812 C 282.828125 122.015625 282.292969 120.527344 282.371094 120.449219 C 282.652344 120.171875 282.910156 120.320312 282.910156 120.765625 C 282.910156 121.390625 289.128906 136.488281 291.664062 142.019531 C 292.804688 144.507812 294.613281 148.78125 295.691406 151.515625 C 296.765625 154.25 298.617188 158.867188 299.804688 161.777344 C 306.617188 178.445312 311.460938 192.148438 315.566406 206.367188 C 323.273438 233.039062 324.914062 238.414062 330.027344 253.722656 C 335.066406 268.820312 336.363281 272.894531 339.390625 283.199219 C 340.71875 287.710938 342.878906 294.6875 344.191406 298.703125 C 345.507812 302.71875 347.085938 307.679688 347.699219 309.730469 C 349.65625 316.253906 352.832031 326.234375 355.070312 332.867188 C 357.582031 340.308594 358.335938 343.445312 357.808594 344.246094 C 357.589844 344.582031 356.519531 345.109375 354.753906 345.75 C 350.535156 347.28125 349.128906 347.496094 347.222656 346.894531 Z M 155.539062 320.042969 C 154.09375 319.695312 151.71875 318 150.410156 316.378906 C 149.800781 315.621094 148.671875 313.789062 147.90625 312.308594 C 146.574219 309.738281 143.746094 305.085938 141.296875 301.4375 C 140.03125 299.554688 137.210938 293.851562 135.648438 290.019531 C 135.082031 288.632812 133.863281 285.167969 132.9375 282.328125 C 131.492188 277.886719 130.976562 275.785156 129.296875 267.421875 C 128.21875 262.070312 126.746094 255.308594 126.027344 252.398438 C 123.5 242.175781 122.222656 233.5 121.367188 220.789062 C 120.476562 207.476562 120.496094 202.902344 121.480469 197.472656 C 122.617188 191.167969 125.828125 186.046875 127.167969 188.398438 C 127.605469 189.171875 127.527344 195.457031 127.035156 198.984375 C 126.398438 203.535156 126.035156 211.820312 126.046875 221.511719 C 126.058594 229.609375 126.128906 231.171875 126.726562 236.894531 C 127.472656 244.027344 128.289062 249.304688 129.90625 257.449219 C 132.625 271.160156 136.214844 282.523438 141.980469 295.667969 C 148.234375 309.9375 150.570312 314.453125 152.703125 316.417969 C 154.527344 318.097656 155.5 318.46875 158.410156 318.578125 C 162.910156 318.75 168.375 317.21875 174.707031 314.015625 C 176.746094 312.980469 178.558594 312.132812 178.730469 312.132812 C 179.320312 312.132812 179.054688 312.816406 178.191406 313.527344 C 175.613281 315.652344 169.882812 318.273438 165.105469 319.515625 C 162.523438 320.183594 157.335938 320.472656 155.539062 320.042969 Z M 141.558594 298.972656 C 137.90625 290.972656 135.09375 283.542969 132.773438 275.757812 C 132.058594 273.355469 131.464844 271.507812 131.457031 271.648438 C 131.421875 272.300781 134.398438 283.480469 135.292969 286.054688 C 136.527344 289.617188 138.65625 294.84375 139.792969 297.101562 C 140.574219 298.65625 142.933594 302.519531 143.101562 302.519531 C 143.140625 302.519531 142.445312 300.921875 141.558594 298.972656 Z M 126.40625 246.644531 C 125.785156 242.558594 125.050781 234.683594 124.703125 228.363281 C 124.339844 221.667969 124.984375 206.0625 125.917969 199.058594 C 126.203125 196.933594 126.394531 194.105469 126.394531 192.109375 L 126.394531 188.746094 L 125.894531 189.199219 C 125.1875 189.835938 123.628906 193.210938 123.171875 195.082031 C 122.378906 198.347656 122.078125 201.628906 122.074219 206.96875 C 122.074219 212.238281 122.679688 222.746094 123.402344 230.042969 C 123.941406 235.433594 126.480469 250.355469 126.804688 250.027344 C 126.859375 249.972656 126.683594 248.449219 126.40625 246.644531 Z M 308.480469 309.660156 C 306.90625 308.292969 303.460938 306.171875 303.214844 306.417969 C 303.15625 306.476562 304.304688 307.371094 305.761719 308.40625 C 309.964844 311.386719 309.65625 311.578125 305.207031 308.746094 C 302.992188 307.332031 301.96875 306.855469 299.523438 306.089844 C 296.78125 305.230469 296.433594 305.175781 295.195312 305.386719 C 294.457031 305.515625 292.496094 305.683594 290.84375 305.765625 C 287.910156 305.90625 283.960938 306.359375 276.902344 307.355469 C 273.726562 307.804688 271.554688 308.148438 265.601562 309.15625 C 262.640625 309.65625 255.480469 309.863281 253.746094 309.5 C 252.65625 309.273438 252.367188 309.121094 252.429688 308.808594 C 252.496094 308.453125 252.992188 308.40625 256.828125 308.390625 C 261.417969 308.375 264.652344 308.078125 268.679688 307.316406 C 270.039062 307.058594 271.535156 306.847656 272.003906 306.847656 C 272.816406 306.847656 272.84375 306.816406 272.699219 306.148438 C 272.457031 305.054688 272.992188 301.820312 274.164062 297.261719 C 274.753906 294.964844 275.179688 293.027344 275.105469 292.953125 C 275.035156 292.882812 274.976562 292.941406 274.976562 293.089844 C 274.976562 293.722656 271.96875 297.769531 270.363281 299.289062 C 266.519531 302.933594 262.277344 303.976562 261.261719 301.527344 C 260.871094 300.585938 261.234375 299.21875 262.730469 295.984375 C 263.386719 294.570312 264.078125 292.785156 264.273438 292.019531 C 264.773438 290.046875 265.0625 287.007812 264.898438 285.453125 C 264.765625 284.195312 264.722656 284.128906 264.039062 284.0625 C 262.738281 283.945312 262.28125 283.777344 261.53125 283.148438 C 260.984375 282.6875 260.792969 282.621094 260.792969 282.886719 C 260.792969 283.496094 259.589844 284.730469 259 284.730469 C 257.671875 284.730469 256.351562 282.761719 255.171875 279.011719 C 254.667969 277.414062 254.542969 276.535156 254.542969 274.625 C 254.542969 272.496094 254.488281 272.203125 254.058594 271.933594 C 253.40625 271.527344 253.453125 271.03125 254.144531 271.03125 C 255.269531 271.03125 255.585938 271.773438 255.761719 274.828125 C 255.898438 277.164062 256.054688 277.972656 256.683594 279.601562 C 258.464844 284.195312 259.59375 284.398438 260.066406 280.207031 C 260.273438 278.347656 260.667969 277.636719 261.351562 277.898438 C 261.792969 278.066406 261.839844 278.304688 261.765625 279.941406 C 261.726562 280.828125 261.839844 281.191406 262.355469 281.804688 C 263.128906 282.722656 263.796875 282.773438 265.867188 282.078125 C 267.773438 281.4375 268.90625 280.703125 270.128906 279.3125 C 271.390625 277.875 271.414062 277.214844 270.289062 274.5 C 269.230469 271.941406 269.140625 270.28125 270.027344 269.699219 C 270.519531 269.378906 270.832031 269.359375 272.066406 269.582031 C 274.035156 269.9375 274.757812 270.269531 278.816406 272.648438 C 283.726562 275.527344 284.882812 275.851562 286.707031 274.882812 C 287.957031 274.214844 288.308594 273.90625 288.890625 272.949219 C 289.511719 271.929688 289.527344 271.207031 288.953125 269.949219 C 288.003906 267.863281 285.308594 266.183594 282.210938 265.746094 C 279.8125 265.402344 279.15625 265.042969 277.398438 263.078125 C 276.261719 261.808594 275.488281 261.199219 274.289062 260.621094 C 272.808594 259.90625 272.671875 259.773438 272.378906 258.769531 C 271.726562 256.535156 271.449219 256.125 270.59375 256.132812 C 270.160156 256.132812 268.996094 256.355469 268.003906 256.621094 C 267.011719 256.886719 265.535156 257.113281 264.722656 257.128906 C 262.570312 257.171875 261.855469 256.679688 260.722656 254.375 C 259.664062 252.230469 259.207031 251.976562 257.742188 252.722656 C 255.949219 253.636719 254.242188 255.910156 253.566406 258.289062 C 253.101562 259.917969 252.773438 260.074219 252.9375 258.585938 C 253.105469 257.058594 253.992188 255.210938 255.3125 253.640625 L 256.285156 252.480469 L 255.113281 253.070312 C 253.402344 253.929688 252.859375 254.066406 252.859375 253.640625 C 252.859375 253.261719 255.75 251.496094 257.828125 250.605469 C 259.273438 249.988281 260.042969 249.269531 259.667969 248.894531 C 259.371094 248.597656 256.816406 248.203125 255.132812 248.199219 C 252.6875 248.1875 249.503906 249.359375 247.644531 250.949219 C 245.738281 252.582031 245.273438 251.917969 246.234375 248.941406 C 247.488281 245.054688 249.058594 241.34375 250.925781 237.855469 C 253.144531 233.714844 256.011719 227.648438 256.566406 225.933594 C 257.027344 224.503906 257.121094 222.550781 256.75 222.179688 C 256.003906 221.4375 253.246094 223.867188 250.964844 227.273438 C 249.394531 229.621094 246.550781 235.09375 245.414062 237.960938 C 244.304688 240.746094 243.554688 244.027344 243.132812 247.945312 C 242.75 251.460938 242.488281 252.226562 241.796875 251.796875 C 240.820312 251.1875 241.855469 244.515625 243.949219 237.976562 C 244.65625 235.765625 245.40625 232.496094 245.40625 231.617188 C 245.40625 230.863281 244.839844 231.03125 243.8125 232.085938 C 241.5 234.464844 239.707031 238.675781 238.792969 243.875 C 238.320312 246.542969 238.324219 252.492188 238.792969 255.164062 C 239.230469 257.648438 239.230469 257.566406 238.820312 257.566406 C 238.605469 257.566406 238.289062 256.855469 237.941406 255.585938 C 237.265625 253.140625 237.023438 247.589844 237.457031 244.539062 C 238.101562 239.972656 239.722656 235.421875 241.667969 232.695312 C 243.90625 229.554688 246.367188 228.929688 246.4375 231.480469 C 246.453125 231.945312 246.492188 232.328125 246.53125 232.328125 C 246.570312 232.328125 246.886719 231.765625 247.234375 231.074219 C 250.089844 225.441406 254.039062 221.03125 256.230469 221.03125 C 258.175781 221.03125 258.65625 223.011719 257.554688 226.488281 C 257.226562 227.519531 255.320312 231.660156 253.316406 235.695312 C 250.179688 242.003906 247.125 249.03125 247.402344 249.308594 C 247.449219 249.355469 248.074219 249.078125 248.789062 248.691406 C 250.929688 247.542969 252.691406 247.132812 255.382812 247.15625 C 259.171875 247.191406 260.792969 247.804688 260.792969 249.203125 C 260.792969 249.859375 259.832031 251.078125 259.316406 251.078125 C 258.804688 251.078125 259.183594 251.480469 259.890625 251.6875 C 260.535156 251.878906 260.804688 252.195312 261.417969 253.460938 C 261.824219 254.308594 262.40625 255.203125 262.707031 255.445312 C 263.464844 256.058594 265.277344 256.015625 268.1875 255.308594 C 269.496094 254.992188 270.847656 254.789062 271.191406 254.855469 C 272.136719 255.035156 272.832031 255.941406 273.28125 257.589844 C 273.6875 259.0625 273.703125 259.082031 274.96875 259.554688 C 275.953125 259.921875 276.710938 260.5 278.21875 262.03125 C 279.300781 263.128906 280.449219 264.078125 280.765625 264.140625 C 281.085938 264.199219 282.140625 264.371094 283.105469 264.515625 C 287.316406 265.15625 290.605469 268.144531 290.605469 271.328125 C 290.605469 274.851562 286.710938 277.378906 282.90625 276.320312 C 282.441406 276.191406 280.386719 275.132812 278.339844 273.964844 C 274.273438 271.652344 273.230469 271.175781 271.636719 270.910156 L 270.578125 270.734375 L 270.714844 271.582031 C 270.792969 272.046875 271.203125 273.21875 271.632812 274.191406 C 272.738281 276.699219 272.785156 277.800781 271.855469 279.390625 C 270.960938 280.917969 268.832031 282.570312 266.796875 283.308594 C 265.40625 283.816406 265.386719 283.839844 265.554688 284.578125 C 265.644531 284.992188 265.710938 286.523438 265.699219 287.976562 C 265.675781 291.160156 265.292969 292.722656 263.625 296.507812 C 261.683594 300.898438 261.789062 301.972656 264.148438 301.746094 C 265.675781 301.597656 267.632812 300.449219 269.566406 298.554688 C 271.179688 296.976562 274.007812 292.867188 274.527344 291.339844 C 274.757812 290.675781 274.859375 289.121094 274.859375 286.292969 C 274.859375 282.414062 274.882812 282.207031 275.324219 282.207031 C 275.863281 282.207031 276.238281 283.410156 276.691406 286.574219 C 277.0625 289.199219 276.75 291.523438 275.203125 297.613281 C 274 302.34375 273.402344 306.605469 273.945312 306.605469 C 274.398438 306.605469 276.300781 305.085938 278.128906 303.261719 C 280.546875 300.851562 281.277344 299.425781 281.421875 296.816406 C 281.546875 294.492188 281.335938 293.523438 279.890625 289.875 C 279.304688 288.390625 278.824219 286.945312 278.824219 286.65625 C 278.824219 285.683594 279.558594 286.257812 280.140625 287.6875 C 281.933594 292.113281 286.183594 296.976562 289.765625 298.699219 C 291.113281 299.351562 292.289062 299.597656 292.289062 299.234375 C 292.289062 299.148438 291.949219 298.222656 291.53125 297.179688 C 290.632812 294.929688 290.3125 294.632812 286.078125 292.113281 C 281.828125 289.585938 280.882812 288.871094 281.226562 288.460938 C 281.453125 288.183594 281.710938 288.207031 282.820312 288.585938 C 286.636719 289.902344 292.992188 289.890625 294.585938 288.566406 C 295.03125 288.195312 295.027344 287.296875 294.578125 286.429688 C 293.796875 284.914062 289.503906 282.566406 283.992188 280.636719 C 279.449219 279.046875 276.179688 277.175781 276.179688 276.171875 C 276.179688 275.710938 276.332031 275.746094 277.21875 276.410156 C 278.414062 277.308594 280.105469 278.078125 283.875 279.433594 C 290.308594 281.75 294.503906 284.179688 295.539062 286.1875 C 296.136719 287.335938 296 288.445312 295.179688 289.136719 C 294.457031 289.746094 291.800781 290.5 290.382812 290.5 L 289.65625 290.5 L 290.851562 292.890625 C 291.507812 294.203125 292.164062 295.351562 292.3125 295.441406 C 292.71875 295.695312 293.726562 297.996094 293.730469 298.679688 C 293.730469 299.671875 295.324219 301.964844 296.476562 302.640625 C 297.039062 302.972656 298.996094 303.726562 300.824219 304.316406 C 304.898438 305.636719 307.027344 306.855469 309.179688 309.097656 C 310.070312 310.03125 310.800781 310.878906 310.800781 310.980469 C 310.800781 311.457031 310.070312 311.039062 308.480469 309.660156 Z M 280.769531 305.761719 C 282.765625 305.554688 284.960938 305.273438 285.640625 305.136719 C 286.320312 305.003906 288.824219 304.800781 291.207031 304.6875 C 296.445312 304.4375 296.722656 304.363281 295.460938 303.546875 C 294.53125 302.945312 293.007812 300.980469 293.007812 300.386719 C 293.007812 300.160156 292.824219 300.109375 292.386719 300.21875 C 290.367188 300.726562 286.316406 298.195312 283.226562 294.496094 L 282.246094 293.320312 L 282.496094 294.585938 C 282.828125 296.257812 282.4375 298.757812 281.566406 300.554688 C 281.113281 301.492188 280.1875 302.625 278.601562 304.191406 C 277.335938 305.441406 276.488281 306.390625 276.71875 306.300781 C 276.949219 306.214844 278.769531 305.972656 280.769531 305.761719 Z M 289.882812 293.015625 C 289.882812 292.945312 289.621094 292.367188 289.296875 291.734375 L 288.714844 290.578125 L 286.734375 290.300781 C 285.644531 290.144531 284.722656 290.050781 284.6875 290.085938 C 284.601562 290.171875 289.449219 293.113281 289.703125 293.128906 C 289.800781 293.136719 289.882812 293.085938 289.882812 293.015625 Z M 226.773438 284.660156 C 225.792969 283.679688 225.230469 282.042969 225.683594 281.492188 C 226.214844 280.855469 226.542969 281.078125 226.542969 282.074219 C 226.542969 283.261719 227.378906 284.25 228.386719 284.25 C 228.761719 284.25 229.632812 283.964844 230.320312 283.617188 L 231.566406 282.988281 L 232.734375 283.644531 C 233.769531 284.226562 234.101562 284.289062 235.628906 284.210938 C 237.1875 284.128906 237.558594 284.003906 239.535156 282.867188 C 241.210938 281.90625 242.082031 281.5625 243.289062 281.394531 C 244.152344 281.269531 245.171875 281.007812 245.554688 280.808594 C 247.269531 279.910156 249.734375 277.230469 249.734375 276.261719 C 249.734375 276.003906 249.355469 274.933594 248.890625 273.882812 C 248.429688 272.828125 248.050781 271.714844 248.050781 271.410156 C 248.050781 271.101562 248.335938 270.214844 248.683594 269.4375 C 249.933594 266.660156 249.445312 264.125 247.308594 262.292969 C 245.953125 261.132812 244.527344 260.691406 242.125 260.691406 C 240.277344 260.691406 240.074219 260.644531 239.34375 260.007812 C 238.117188 258.941406 237.628906 258.769531 235.828125 258.769531 C 233.007812 258.769531 230.136719 259.898438 228.976562 261.464844 C 228.542969 262.050781 228.523438 262.21875 228.792969 263.113281 C 229.054688 263.992188 229.039062 264.160156 228.652344 264.585938 C 228.410156 264.855469 227.78125 265.289062 227.253906 265.558594 C 226.722656 265.824219 225.527344 266.570312 224.59375 267.214844 C 222.75 268.484375 222.566406 268.558594 222.566406 268.046875 C 222.566406 267.648438 224.273438 266.09375 226.207031 264.738281 C 227.523438 263.8125 227.558594 263.757812 227.4375 262.855469 C 227.265625 261.558594 227.492188 260.851562 228.363281 259.980469 C 229.847656 258.496094 233.09375 257.34375 235.808594 257.332031 C 237.289062 257.328125 239.078125 257.890625 239.847656 258.605469 C 240.390625 259.113281 240.78125 259.210938 242.742188 259.328125 C 244.617188 259.441406 245.265625 259.59375 246.515625 260.207031 C 250.296875 262.070312 251.636719 265.875 249.871094 269.738281 C 249.085938 271.449219 249.09375 271.777344 249.972656 273.636719 C 251.265625 276.367188 250.890625 277.683594 248.101562 280.191406 C 246.578125 281.5625 245.582031 282.046875 243.65625 282.355469 C 242.515625 282.535156 241.621094 282.917969 239.890625 283.960938 C 237.695312 285.289062 237.558594 285.335938 235.683594 285.410156 C 233.988281 285.480469 233.605469 285.414062 232.625 284.886719 L 231.503906 284.285156 L 230.097656 284.863281 C 228.222656 285.636719 227.71875 285.605469 226.773438 284.660156 Z M 208.640625 242.179688 C 205.175781 240.269531 201.183594 236.636719 200.085938 234.394531 C 198.566406 231.289062 199.683594 226.839844 202.296875 225.574219 C 203.265625 225.105469 203.773438 225.03125 205.761719 225.066406 L 208.097656 225.105469 L 208.265625 223.851562 C 208.589844 221.457031 209.75 220.078125 212.046875 219.355469 C 213.378906 218.933594 214.433594 219.386719 216.367188 221.199219 C 217.316406 222.09375 218.179688 222.714844 218.414062 222.667969 C 218.632812 222.625 219.597656 221.617188 220.558594 220.429688 C 224.050781 216.097656 227.199219 213.535156 230.597656 212.257812 C 232.773438 211.4375 234.382812 211.445312 235.039062 212.273438 C 236.253906 213.820312 235.925781 216.519531 233.707031 223.289062 C 231.863281 228.902344 231.59375 230.742188 232.414062 232.042969 C 232.898438 232.816406 233.195312 232.984375 235.625 233.878906 C 237.757812 234.660156 237.6875 235.992188 235.398438 238.082031 C 233.179688 240.109375 229.890625 240.808594 226.769531 239.917969 C 224.515625 239.273438 223.671875 238.597656 222.789062 236.722656 C 222.367188 235.824219 221.804688 234.855469 221.539062 234.5625 C 220.84375 233.796875 218.828125 233.453125 215.742188 233.582031 C 213.367188 233.679688 213.070312 233.742188 212.671875 234.238281 C 212.132812 234.902344 212.09375 235.832031 212.59375 236.023438 C 212.792969 236.101562 214.007812 236.332031 215.292969 236.539062 C 217.816406 236.945312 218.71875 237.355469 218.71875 238.101562 C 218.71875 238.625 218.433594 238.699219 217.785156 238.351562 C 217.550781 238.226562 216.394531 238 215.214844 237.847656 C 212.496094 237.496094 211.097656 236.914062 210.882812 236.050781 C 210.660156 235.175781 211.136719 233.726562 211.886719 232.972656 C 212.683594 232.179688 213.863281 232 217.5 232.132812 C 219.933594 232.21875 220.507812 232.316406 221.511719 232.832031 C 222.535156 233.355469 222.792969 233.652344 223.535156 235.15625 C 224.699219 237.507812 225.246094 238.019531 227.207031 238.617188 C 229.257812 239.238281 231.121094 239.109375 233.027344 238.207031 C 234.179688 237.660156 236.027344 235.941406 236.027344 235.417969 C 236.027344 235.3125 235.441406 235.054688 234.722656 234.847656 C 233.210938 234.40625 232.074219 233.691406 231.363281 232.730469 C 230.941406 232.164062 230.859375 231.710938 230.863281 229.964844 C 230.871094 228.011719 230.980469 227.558594 232.636719 222.714844 C 234.078125 218.492188 234.425781 217.191406 234.527344 215.605469 C 234.683594 213.09375 234.453125 212.613281 233.074219 212.625 C 231.832031 212.632812 229.40625 213.640625 227.484375 214.945312 C 225.828125 216.074219 222.449219 219.519531 220.890625 221.671875 C 219.671875 223.351562 218.734375 224.023438 217.933594 223.785156 C 217.636719 223.695312 216.746094 223 215.953125 222.234375 C 215.160156 221.46875 214.273438 220.722656 213.984375 220.578125 C 213.160156 220.15625 212.128906 220.261719 211.261719 220.851562 C 210.042969 221.679688 209.554688 222.511719 209.371094 224.0625 C 209.277344 224.839844 209.121094 225.613281 209.019531 225.777344 C 208.890625 225.984375 208.09375 226.078125 206.445312 226.078125 C 203.714844 226.078125 202.390625 226.476562 201.644531 227.523438 C 200.96875 228.476562 200.367188 231.011719 200.546875 232.148438 C 200.988281 234.914062 203.863281 238.007812 209.761719 242.074219 C 210.285156 242.433594 210.492188 242.910156 210.121094 242.902344 C 210.023438 242.898438 209.355469 242.574219 208.640625 242.179688 Z M 203.226562 223.003906 C 203.070312 222.511719 203.273438 220.878906 204.042969 216.378906 C 204.675781 212.710938 204.675781 211.050781 204.054688 210.03125 C 203.792969 209.601562 203.414062 209.25 203.210938 209.25 C 202.273438 209.25 201.097656 212.316406 200.332031 216.773438 C 199.695312 220.472656 199.277344 221.320312 198.339844 220.820312 C 197.09375 220.152344 196.140625 217.5625 195.148438 212.164062 C 194.746094 209.96875 194.054688 206.765625 193.609375 205.046875 C 191.855469 198.273438 190.765625 196.800781 188.527344 198.167969 C 187.566406 198.753906 186.972656 200.039062 186.660156 202.210938 C 186.441406 203.71875 186.480469 204.351562 186.941406 206.785156 C 187.679688 210.671875 187.929688 212.84375 187.929688 215.382812 C 187.933594 218.011719 187.535156 219.027344 185.921875 220.507812 C 183.109375 223.089844 180.09375 223.101562 178.769531 220.535156 C 177.847656 218.75 177.613281 214.851562 178.316406 213.003906 C 179.226562 210.613281 181.984375 210.980469 185.207031 213.917969 C 186.730469 215.3125 186.839844 216 185.359375 214.917969 C 182.835938 213.074219 181.898438 212.554688 180.882812 212.441406 C 179.921875 212.332031 179.777344 212.382812 179.378906 212.992188 C 179.03125 213.519531 178.9375 214.144531 178.933594 215.964844 C 178.925781 219.550781 179.9375 221.511719 181.796875 221.511719 C 182.785156 221.511719 184.933594 220.207031 185.875 219.035156 C 186.5 218.253906 186.621094 217.871094 186.703125 216.460938 C 186.8125 214.519531 186.414062 210.789062 185.761719 207.601562 C 184.992188 203.851562 185.273438 200.300781 186.5 198.320312 C 187.144531 197.277344 188.746094 196.429688 190.078125 196.429688 C 191.046875 196.429688 191.253906 196.539062 192.046875 197.433594 C 193.539062 199.113281 195.164062 204.386719 196.597656 212.210938 C 197.265625 215.847656 197.898438 218.148438 198.492188 219.074219 C 198.632812 219.289062 198.839844 218.632812 199.101562 217.148438 C 199.902344 212.609375 200.527344 210.738281 201.789062 209.082031 C 202.835938 207.710938 204.238281 208.070312 205.285156 209.972656 C 205.84375 210.996094 205.613281 214.875 204.71875 219.328125 C 203.972656 223.046875 203.5625 224.0625 203.226562 223.003906 Z M 203.226562 223.003906 " fill-opacity="1" fill-rule="nonzero"/></g></svg>