<svg xmlns="http://www.w3.org/2000/svg" xmlns:xlink="http://www.w3.org/1999/xlink" width="500" zoomAndPan="magnify" viewBox="0 0 375 232.499993" height="310" preserveAspectRatio="xMidYMid meet" version="1.0"><defs><clipPath id="1f31934220"><path d="M 0.402344 1.699219 L 374.597656 1.699219 L 374.597656 228 L 0.402344 228 Z M 0.402344 1.699219 " clip-rule="nonzero"/></clipPath></defs><g clip-path="url(#1f31934220)"><path fill="#efe9e1" d="M 146.46875 174.132812 C 150.730469 175.988281 154.605469 177.691406 158.402344 179.316406 C 159.101562 179.625 159.953125 179.625 160.648438 179.933594 C 163.980469 181.09375 167.082031 181.636719 170.105469 178.695312 C 171.421875 177.382812 173.746094 176.683594 175.683594 176.609375 C 181.804688 176.222656 186.609375 172.972656 191.414062 169.875 C 193.117188 168.792969 194.589844 167.324219 196.21875 166.085938 C 196.683594 165.777344 197.378906 165.699219 197.921875 165.542969 C 197.691406 166.164062 197.691406 167.011719 197.300781 167.246094 C 192.574219 170.417969 187.925781 173.667969 182.96875 176.53125 C 180.953125 177.691406 180.175781 178.773438 180.566406 181.09375 C 182.425781 181.09375 184.363281 181.09375 186.222656 181.09375 C 186.300781 180.941406 186.300781 180.863281 186.375 180.707031 C 185.601562 180.476562 184.828125 180.320312 184.128906 180.011719 C 183.585938 179.78125 183.199219 179.238281 182.734375 178.851562 C 183.355469 178.695312 184.050781 178.234375 184.59375 178.386719 C 186.375 178.929688 188.234375 179.472656 189.785156 180.398438 C 191.492188 181.40625 192.421875 181.25 193.273438 179.472656 C 193.738281 178.542969 194.359375 177.613281 195.054688 176.53125 C 193.503906 176.375 192.1875 176.296875 190.949219 176.144531 C 190.949219 175.910156 190.949219 175.601562 190.871094 175.371094 C 191.414062 175.136719 191.878906 174.75 192.421875 174.75 C 197.691406 174.671875 200.480469 170.882812 203.425781 167.324219 C 204.199219 166.472656 204.820312 165.386719 205.75 164.769531 C 208.226562 163.066406 211.25 163.6875 212.957031 166.164062 C 214.195312 167.941406 215.667969 169.800781 216.132812 171.8125 C 216.753906 174.441406 216.675781 177.304688 216.519531 180.089844 C 216.210938 185.117188 215.667969 190.070312 215.28125 195.101562 C 217.371094 192.003906 219.464844 188.832031 221.710938 185.738281 C 223.882812 182.875 226.128906 180.011719 228.683594 177.535156 C 231.164062 175.136719 233.414062 175.757812 234.574219 179.007812 C 236.046875 183.183594 236.355469 187.59375 235.273438 191.929688 C 234.265625 196.027344 233.023438 200.050781 231.863281 204.074219 C 231.707031 204.539062 231.628906 205.082031 231.476562 205.699219 C 235.425781 204.230469 237.828125 200.902344 237.363281 197.421875 C 240 198.96875 241.160156 196.800781 242.710938 195.488281 C 247.902344 190.84375 253.171875 186.28125 258.285156 181.636719 C 267.972656 172.816406 275.722656 162.371094 283.003906 151.695312 C 283.859375 150.457031 283.933594 148.367188 283.625 146.820312 C 282.695312 141.632812 280.136719 137.148438 276.574219 133.277344 C 275.953125 132.660156 275.488281 131.886719 274.945312 131.265625 C 275.101562 131.035156 275.332031 130.800781 275.488281 130.570312 C 276.265625 131.035156 277.117188 131.421875 277.734375 132.039062 C 281.609375 135.988281 284.011719 140.785156 285.40625 146.046875 C 285.5625 146.507812 285.640625 147.050781 285.796875 147.671875 C 314 127.242188 341.976562 106.894531 373.046875 91.265625 C 373.28125 91.574219 373.511719 91.804688 373.667969 92.113281 C 372.816406 92.734375 372.117188 93.507812 371.1875 94.050781 C 361.269531 99.773438 351.117188 104.960938 341.585938 111.304688 C 324.382812 122.601562 307.648438 134.515625 290.753906 146.355469 C 288.507812 147.902344 286.492188 150.070312 284.941406 152.390625 C 273.707031 169.335938 259.757812 183.882812 244.105469 196.800781 C 241.546875 198.890625 239.6875 201.910156 237.054688 204 C 231.628906 208.253906 227.136719 213.515625 222.097656 218.082031 C 217.140625 222.492188 211.328125 223.960938 204.972656 220.554688 C 204.507812 220.324219 203.5 220.867188 202.960938 221.332031 C 201.097656 222.878906 199.472656 224.734375 197.457031 226.050781 C 191.566406 229.839844 184.207031 227.367188 181.417969 220.941406 C 180.953125 219.9375 180.101562 219.085938 179.402344 218.234375 C 175.914062 214.132812 172.429688 210.035156 168.941406 205.933594 C 167.855469 204.617188 166.847656 203.226562 165.609375 201.675781 C 162.042969 208.175781 156 207.636719 150.113281 207.324219 C 146.933594 207.171875 144.222656 205.546875 142.59375 202.683594 C 139.417969 197.191406 137.25 191.386719 137.714844 184.886719 C 138.023438 181.328125 136.859375 179.933594 133.375 179.082031 C 129.113281 178 124.925781 176.761719 120.664062 175.835938 C 118.726562 175.449219 116.558594 175.292969 114.699219 175.757812 C 85.871094 183.339844 57.046875 191.078125 28.222656 198.660156 C 20.9375 200.59375 13.574219 202.140625 6.292969 203.765625 C 5.4375 203.921875 4.507812 203.613281 3.65625 203.535156 C 4.042969 202.605469 4.199219 201.445312 4.742188 200.75 C 5.363281 199.976562 6.292969 199.433594 7.222656 199.046875 C 32.871094 187.519531 58.90625 176.761719 85.640625 168.097656 C 86.261719 167.941406 86.804688 167.632812 87.734375 167.324219 C 87.113281 167.011719 86.878906 166.859375 86.492188 166.703125 C 71.148438 161.828125 55.808594 156.878906 40.386719 152.003906 C 27.910156 147.980469 15.359375 144.109375 2.804688 140.085938 C 1.953125 139.777344 1.175781 139.082031 0.402344 138.539062 C 1.175781 137.84375 1.875 136.527344 2.648438 136.449219 C 5.59375 136.21875 8.695312 135.988281 11.636719 136.449219 C 30.699219 139.777344 49.683594 143.105469 68.671875 146.742188 C 84.789062 149.835938 100.90625 153.242188 117.023438 156.492188 C 118.652344 156.800781 120.511719 156.644531 122.058594 156.179688 C 126.011719 155.019531 129.886719 153.550781 133.839844 152.15625 C 135.3125 151.617188 136.628906 151.152344 135.699219 148.984375 C 135.464844 148.445312 136.320312 146.972656 137.09375 146.507812 C 141.742188 143.722656 146.46875 141.171875 151.117188 138.386719 C 152.125 137.765625 152.824219 136.761719 153.675781 135.910156 C 152.746094 134.980469 151.894531 133.976562 150.730469 133.277344 C 149.105469 132.351562 148.5625 131.035156 150.035156 129.71875 C 151.507812 128.328125 153.289062 126.933594 155.148438 126.082031 C 158.171875 124.765625 161.347656 123.992188 164.445312 122.832031 C 165.453125 122.445312 166.382812 121.671875 167.082031 120.898438 C 170.644531 116.796875 173.902344 112.308594 177.773438 108.519531 C 182.503906 103.796875 187.382812 103.488281 193.195312 106.507812 C 193.351562 106.585938 193.503906 106.660156 193.582031 106.738281 C 196.835938 108.671875 199.703125 109.058594 203.269531 106.738281 C 208.617188 103.257812 214.96875 103.257812 221.246094 103.566406 C 227.214844 103.875 233.257812 104.648438 239.222656 104.1875 C 245.8125 103.644531 251.542969 100.859375 256.8125 96.371094 C 269.910156 85.152344 283.46875 74.398438 297.03125 63.640625 C 309.816406 53.582031 322.988281 44.066406 335.699219 33.851562 C 346.855469 24.878906 357.394531 15.207031 368.320312 5.921875 C 370.101562 4.449219 372.039062 3.210938 373.898438 1.820312 C 374.132812 1.972656 374.363281 2.207031 374.597656 2.359375 C 374.210938 2.980469 374.054688 3.675781 373.511719 4.0625 C 361.035156 14.664062 348.714844 25.339844 336.085938 35.710938 C 327.328125 42.90625 318.109375 49.480469 309.195312 56.523438 C 293.855469 68.515625 278.589844 80.664062 263.324219 92.734375 C 261.464844 94.203125 259.679688 95.75 258.054688 97.375 C 249.996094 105.5 240 106.738281 229.226562 106.121094 C 222.953125 105.734375 216.597656 105.578125 210.320312 105.964844 C 207.296875 106.199219 204.429688 107.976562 201.488281 109.136719 C 201.488281 109.445312 201.488281 109.757812 201.5625 110.066406 C 202.183594 110.53125 202.882812 110.996094 203.5 111.457031 C 205.59375 113.160156 207.917969 114.707031 209.777344 116.71875 C 213.421875 120.667969 213.496094 124.921875 210.476562 129.332031 C 207.453125 133.664062 203.269531 136.375 198.621094 138.617188 C 196.683594 139.546875 195.132812 141.246094 193.273438 142.175781 C 191.027344 143.183594 188.46875 144.421875 186.066406 144.34375 C 181.726562 144.265625 178.164062 145.195312 174.832031 148.367188 C 166.152344 156.492188 157.242188 164.304688 148.40625 172.273438 C 147.785156 172.585938 147.476562 173.046875 146.46875 174.132812 Z M 6.367188 201.136719 C 6.445312 201.367188 6.523438 201.675781 6.601562 201.910156 C 11.328125 200.824219 16.054688 199.898438 20.703125 198.660156 C 40.386719 193.242188 60.070312 187.671875 79.75 182.410156 C 97.730469 177.613281 115.859375 173.125 133.917969 168.5625 C 136.394531 167.941406 138.023438 166.78125 138.71875 164.152344 C 139.261719 162.0625 140.425781 160.128906 141.121094 158.039062 C 141.433594 157.109375 141.742188 155.328125 141.511719 155.175781 C 139.726562 154.480469 138.875 152.003906 136.242188 152.929688 C 127.871094 155.949219 119.425781 158.964844 110.902344 161.597656 C 78.203125 171.65625 46.042969 183.417969 14.738281 197.265625 C 12.027344 198.582031 9.160156 199.898438 6.367188 201.136719 Z M 115.164062 158.578125 C 115.164062 158.347656 115.164062 158.191406 115.085938 157.960938 C 113.691406 157.652344 112.375 157.265625 110.980469 157.03125 C 87.34375 152.3125 63.789062 147.515625 40.078125 142.949219 C 29.460938 140.9375 18.765625 139.46875 8.152344 137.84375 C 6.679688 137.609375 5.128906 137.84375 3.578125 137.84375 C 3.578125 138.074219 3.578125 138.308594 3.5 138.539062 C 4.355469 138.847656 5.207031 139.160156 6.136719 139.46875 C 30.855469 147.359375 55.574219 155.328125 80.292969 163.144531 C 90.753906 166.472656 90.753906 166.394531 101.214844 162.988281 C 105.941406 161.519531 110.515625 160.050781 115.164062 158.578125 Z M 139.109375 181.558594 C 139.109375 181.871094 139.109375 182.179688 139.109375 182.410156 C 141.046875 183.105469 142.984375 183.804688 144.996094 184.421875 C 146.082031 184.730469 147.320312 184.730469 148.484375 185.042969 C 154.839844 186.742188 160.183594 189.761719 164.058594 195.488281 C 168.785156 202.449219 173.976562 209.105469 179.324219 215.605469 C 181.648438 218.46875 185.292969 219.859375 189.089844 218.929688 C 193.039062 217.925781 196.914062 216.609375 200.632812 214.984375 C 204.355469 213.359375 207.375 210.730469 209.625 207.324219 C 211.636719 204.230469 211.636719 201.832031 209.546875 199.203125 C 209.390625 199.355469 209.160156 199.433594 209.003906 199.589844 C 205.285156 205.46875 199.472656 208.332031 193.117188 210.109375 C 186.917969 211.890625 180.953125 211.117188 175.992188 206.550781 C 172.660156 203.457031 172.039062 198.117188 174.519531 194.25 C 175.914062 192.160156 177.699219 190.921875 180.332031 190.84375 C 181.105469 190.84375 181.882812 190.613281 182.503906 190.226562 C 184.363281 189.296875 186.375 188.367188 188.082031 187.207031 C 189.242188 186.355469 190.097656 185.042969 191.101562 183.882812 C 190.949219 183.648438 190.792969 183.339844 190.636719 183.105469 C 189.632812 182.953125 188.699219 182.644531 187.695312 182.71875 C 184.671875 182.796875 181.648438 183.03125 178.550781 183.183594 C 167.625 183.804688 157.242188 181.945312 147.632812 176.375 C 146.933594 175.988281 145.539062 176.066406 144.917969 176.53125 C 142.90625 178.078125 141.046875 179.859375 139.109375 181.558594 Z M 154.296875 132.890625 C 154.683594 133.742188 154.761719 134.363281 155.070312 134.75 C 158.246094 138.773438 162.199219 141.402344 167.46875 141.324219 C 174.675781 141.171875 181.726562 139.855469 188.160156 136.605469 C 191.644531 134.824219 194.898438 132.273438 197.84375 129.71875 C 200.789062 127.089844 201.175781 122.753906 199.394531 119.582031 C 197.378906 116.023438 195.289062 115.09375 190.714844 115.792969 C 189.632812 115.945312 188.546875 116.101562 187.460938 116.332031 C 182.503906 117.261719 177.773438 118.964844 173.589844 121.828125 C 172.972656 122.214844 172.660156 123.066406 172.273438 123.761719 C 171.730469 124.765625 171.5 126.160156 170.644531 126.933594 C 167.390625 129.953125 163.363281 131.421875 159.101562 132.273438 C 157.550781 132.351562 156.078125 132.582031 154.296875 132.890625 Z M 168.785156 121.75 C 168.941406 121.980469 169.171875 122.136719 169.328125 122.367188 C 171.5 120.820312 173.824219 119.503906 175.683594 117.648438 C 180.023438 113.394531 185.136719 111.691406 191.101562 112.234375 C 195.832031 112.695312 199.164062 115.171875 201.097656 119.429688 C 202.726562 122.988281 202.417969 126.777344 199.78125 129.796875 C 196.605469 133.511719 192.964844 136.835938 188.234375 138.386719 C 183.433594 139.933594 178.472656 141.246094 173.589844 142.410156 C 167.3125 143.957031 161.503906 142.871094 156.386719 138.695312 C 155.84375 138.308594 154.605469 138.230469 153.984375 138.617188 C 149.722656 140.9375 145.539062 143.414062 141.355469 145.890625 C 136.628906 148.597656 136.707031 150.300781 141.585938 153.085938 C 142.363281 153.550781 143.292969 154.015625 144.222656 154.09375 C 145.074219 154.167969 146.003906 154.015625 146.78125 153.707031 C 152.667969 151.074219 158.480469 148.058594 164.445312 145.734375 C 170.957031 143.257812 177.773438 142.640625 184.75 142.640625 C 187.152344 142.640625 189.632812 141.789062 191.800781 140.859375 C 193.894531 139.933594 195.519531 138.074219 197.613281 137.070312 C 202.339844 134.824219 206.601562 132.039062 209.390625 127.398438 C 210.863281 124.921875 211.25 122.214844 209.546875 119.894531 C 207.996094 117.726562 206.214844 115.40625 203.964844 114.089844 C 200.09375 111.691406 195.675781 110.066406 191.644531 107.820312 C 186.917969 105.191406 182.734375 106.121094 179.171875 109.445312 C 175.683594 112.773438 172.660156 116.644531 169.484375 120.28125 C 169.171875 120.667969 169.019531 121.285156 168.785156 121.75 Z M 210.628906 187.828125 C 209.3125 187.90625 208.226562 188.136719 207.222656 187.980469 C 203.191406 187.363281 200.789062 184.808594 200.710938 180.632812 C 200.632812 177.921875 201.023438 175.214844 201.175781 172.042969 C 195.210938 178.695312 190.019531 185.273438 190.25 194.558594 C 189.941406 194.480469 189.632812 194.480469 189.320312 194.402344 C 188.933594 192.703125 188.546875 191 188.160156 189.21875 C 182.96875 190.921875 179.867188 194.328125 178.316406 199.277344 C 176.378906 205.390625 177.699219 207.789062 184.050781 208.796875 C 192.109375 210.109375 198.695312 206.859375 204.585938 201.753906 C 208.925781 198.117188 209.777344 192.933594 210.628906 187.828125 Z M 234.1875 188.058594 C 232.09375 189.839844 230.15625 191.386719 228.21875 189.761719 C 226.75 188.445312 225.972656 186.28125 224.8125 184.421875 C 223.183594 186.742188 221.402344 189.21875 219.695312 191.851562 C 216.753906 196.414062 213.34375 200.75 212.257812 206.320312 C 212.023438 207.636719 211.019531 208.796875 210.242188 209.957031 C 208.925781 211.96875 207.53125 213.980469 206.292969 215.992188 C 204.972656 218.234375 205.207031 219.085938 207.839844 219.78125 C 212.644531 221.019531 216.984375 220.015625 220.78125 216.84375 C 224.347656 213.902344 227.445312 210.574219 229.074219 206.242188 C 230.855469 201.523438 232.171875 196.570312 233.644531 191.773438 C 233.953125 190.691406 233.953125 189.605469 234.1875 188.058594 Z M 144.53125 173.28125 C 155.070312 163.765625 165.375 154.480469 175.605469 145.117188 C 175.527344 144.882812 175.371094 144.652344 175.296875 144.421875 C 170.414062 145.890625 165.453125 146.972656 160.804688 148.832031 C 155.226562 150.996094 149.800781 153.707031 144.300781 156.257812 C 144.066406 156.335938 143.914062 156.566406 143.835938 156.722656 C 142.59375 159.664062 141.355469 162.601562 140.117188 165.542969 C 139.960938 165.851562 140.117188 166.316406 140.347656 166.625 C 141.664062 168.792969 142.984375 170.882812 144.53125 173.28125 Z M 161.8125 195.566406 C 156.464844 187.671875 147.863281 186.742188 139.261719 184.886719 C 139.417969 191.929688 140.96875 198.195312 145.617188 203.378906 C 146.46875 204.308594 148.019531 204.695312 149.179688 205.3125 C 149.335938 204.539062 149.179688 204.230469 149.027344 204 C 145.773438 199.125 147.554688 195.253906 153.367188 194.328125 C 156.3125 193.785156 159.101562 194.171875 161.8125 195.566406 Z M 213.109375 172.816406 C 212.878906 171.191406 212.722656 170.109375 212.492188 169.023438 C 212.023438 167.089844 211.019531 165.699219 208.925781 165.464844 C 206.910156 165.3125 205.515625 166.472656 205.050781 168.25 C 203.964844 171.65625 203.035156 175.136719 202.417969 178.621094 C 202.183594 180.089844 202.648438 181.871094 203.191406 183.417969 C 203.964844 185.429688 205.671875 186.433594 207.839844 186.355469 C 209.855469 186.28125 210.628906 184.730469 211.019531 183.105469 C 211.871094 179.472656 212.492188 175.910156 213.109375 172.816406 Z M 155.457031 205.3125 C 156.777344 205.160156 157.472656 205.160156 158.171875 205.003906 C 160.882812 204.460938 162.585938 202.835938 162.507812 200.824219 C 162.507812 198.582031 160.496094 196.339844 157.859375 195.953125 C 156.464844 195.71875 155.070312 195.71875 153.675781 195.953125 C 151.738281 196.183594 149.722656 196.648438 149.179688 199.046875 C 148.714844 200.980469 149.957031 203.300781 152.203125 204.308594 C 153.445312 204.847656 154.761719 205.082031 155.457031 205.3125 Z M 204.429688 214.90625 C 197.765625 218.3125 191.179688 221.640625 183.042969 220.554688 C 184.980469 223.652344 187.152344 225.585938 190.636719 225.894531 C 195.753906 226.203125 202.648438 220.789062 204.429688 214.90625 Z M 151.351562 130.878906 C 159.410156 131.265625 169.25 127.863281 170.027344 123.992188 C 163.050781 124.535156 156.699219 126.160156 151.351562 130.878906 Z M 122.058594 173.589844 C 122.058594 173.746094 122.058594 173.976562 122.058594 174.132812 C 125.546875 175.058594 129.113281 175.988281 132.597656 176.839844 C 133.0625 176.917969 133.917969 176.53125 134.148438 176.144531 C 135.078125 174.132812 135.929688 172.121094 137.015625 169.488281 C 131.515625 170.960938 126.789062 172.273438 122.058594 173.589844 Z M 234.109375 183.03125 C 233.953125 182.953125 233.878906 182.875 233.722656 182.71875 C 233.488281 181.714844 233.414062 180.707031 233.101562 179.78125 C 232.25 177.535156 231.320312 177.304688 229.460938 178.851562 C 227.136719 180.785156 226.4375 184.65625 227.910156 187.207031 C 228.839844 188.832031 230.390625 189.21875 231.550781 187.828125 C 232.714844 186.433594 233.335938 184.65625 234.109375 183.03125 Z M 135.699219 177.148438 C 139.417969 179.316406 139.496094 179.316406 142.207031 176.453125 C 142.671875 175.988281 143.214844 174.984375 142.984375 174.519531 C 141.976562 172.585938 140.734375 170.726562 139.261719 168.25 C 137.945312 171.65625 136.859375 174.363281 135.699219 177.148438 Z M 178.703125 178.15625 C 175.140625 177.691406 172.117188 178.851562 169.5625 181.328125 C 171.730469 181.558594 173.902344 181.558594 176.070312 181.636719 C 178.316406 181.714844 179.015625 180.554688 178.703125 178.15625 Z M 214.890625 186.203125 C 211.171875 189.453125 209.777344 196.726562 212.179688 199.203125 C 213.109375 194.945312 213.960938 190.84375 214.890625 186.203125 Z M 175.371094 202.914062 C 176.613281 199.664062 177.851562 196.339844 179.09375 193.011719 C 175.296875 193.863281 173.28125 199.355469 175.371094 202.914062 Z M 212.957031 184.113281 C 213.1875 184.113281 213.421875 184.191406 213.574219 184.191406 C 214.660156 180.476562 215.898438 176.839844 214.738281 172.351562 C 214.117188 176.683594 213.574219 180.398438 212.957031 184.113281 Z M 257.355469 112.464844 C 258.054688 113.238281 258.75 114.089844 259.527344 114.863281 C 265.261719 120.667969 268.515625 127.164062 265.570312 135.367188 C 263.011719 142.5625 258.671875 148.445312 251.933594 152.390625 C 251.003906 152.929688 250.148438 153.707031 249.21875 154.402344 C 249.375 154.632812 249.53125 154.941406 249.683594 155.175781 C 250.382812 154.867188 251.15625 154.710938 251.855469 154.324219 C 257.976562 150.996094 262.238281 145.96875 265.414062 139.855469 C 271.226562 128.714844 267.894531 120.433594 259.449219 112.464844 C 259.0625 112.078125 258.441406 111.921875 257.898438 111.691406 C 257.742188 112 257.511719 112.234375 257.355469 112.464844 Z M 207.609375 134.59375 C 208.226562 134.671875 208.925781 134.824219 209.546875 134.671875 C 217.292969 133.585938 224.191406 125.929688 224.5 118.191406 C 224.5 117.648438 224.191406 117.105469 224.035156 116.488281 C 223.726562 116.410156 223.417969 116.257812 223.183594 116.179688 C 222.488281 126.316406 216.597656 131.574219 207.144531 133.585938 C 207.296875 133.976562 207.453125 134.285156 207.609375 134.59375 Z M 122.449219 165.777344 C 122.449219 168.484375 120.277344 170.726562 117.566406 170.726562 C 115.007812 170.726562 112.917969 168.484375 112.917969 165.851562 C 112.917969 163.300781 115.550781 160.667969 118.03125 160.589844 C 120.355469 160.589844 122.371094 162.914062 122.449219 165.777344 Z M 120.820312 165.699219 C 120.589844 164.304688 120.277344 162.757812 118.261719 162.527344 C 116.558594 162.371094 114.929688 163.839844 114.855469 165.621094 C 114.855469 167.324219 115.472656 168.714844 117.332031 168.949219 C 119.039062 169.179688 120.742188 167.632812 120.820312 165.699219 Z M 120.820312 165.699219 " fill-opacity="1" fill-rule="nonzero"/></g></svg>