<svg xmlns="http://www.w3.org/2000/svg" xmlns:xlink="http://www.w3.org/1999/xlink" width="500" zoomAndPan="magnify" viewBox="0 0 375 322.499991" height="430" preserveAspectRatio="xMidYMid meet" version="1.0"><defs><clipPath id="b5a1ea1715"><path d="M 3.210938 16 L 371.640625 16 L 371.640625 148 L 3.210938 148 Z M 3.210938 16 " clip-rule="nonzero"/></clipPath></defs><g clip-path="url(#b5a1ea1715)"><path fill="#f4f8f3" d="M 153.671875 33.886719 C 153.746094 33.886719 153.8125 33.886719 153.886719 33.886719 L 221.273438 33.886719 C 221.347656 33.886719 221.386719 33.886719 221.460938 33.886719 C 254.347656 33.132812 286.675781 35.96875 310.621094 46.835938 C 334.53125 57.695312 350.542969 75.300781 354.277344 108.609375 L 354.277344 122.714844 C 354.277344 124.269531 354.089844 124.484375 353.125 125.402344 C 352.1875 126.285156 350.085938 127.488281 347.050781 128.351562 C 340.976562 130.058594 331.78125 130.339844 324.3125 129.746094 C 324.066406 129.746094 323.851562 129.746094 323.617188 129.746094 C 305.917969 129.746094 299.875 127.03125 296.851562 124.136719 C 293.816406 121.25 291.957031 115.089844 287.1875 105.542969 L 277.855469 86.960938 C 273.230469 77.703125 266.714844 71.183594 259.367188 67.4375 C 252.011719 63.699219 244.226562 62.695312 236.84375 62.695312 L 138.285156 62.695312 C 130.929688 62.695312 123.128906 63.699219 115.773438 67.4375 C 108.445312 71.183594 101.929688 77.703125 97.304688 86.960938 L 87.972656 105.542969 C 83.175781 115.082031 81.316406 121.246094 78.308594 124.125 C 75.273438 127.019531 69.242188 129.738281 51.539062 129.738281 C 51.304688 129.738281 51.0625 129.738281 50.820312 129.738281 C 43.351562 130.332031 34.167969 130.050781 28.109375 128.34375 C 25.074219 127.480469 22.972656 126.28125 22.007812 125.394531 C 21.070312 124.476562 20.855469 124.265625 20.855469 122.703125 L 20.855469 108.597656 C 24.609375 75.296875 40.628906 57.6875 64.519531 46.824219 C 88.484375 35.96875 120.785156 33.140625 153.671875 33.886719 Z M 153.886719 16.496094 C 119.875 15.722656 85.375 18.226562 57.257812 31.011719 C 29.078125 43.816406 7.746094 68.25 3.425781 106.789062 C 3.398438 107.121094 3.378906 107.433594 3.351562 107.75 L 3.351562 122.714844 C 3.351562 128.683594 6.074219 134.371094 9.960938 138.035156 C 13.847656 141.707031 18.539062 143.71875 23.320312 145.0625 C 32.746094 147.71875 43.035156 147.746094 51.789062 147.078125 C 71.105469 147.03125 82.84375 143.933594 90.433594 136.722656 C 98.058594 129.425781 99.746094 121.085938 103.628906 113.335938 L 112.953125 94.703125 C 116.234375 88.152344 119.75 84.941406 123.75 82.90625 C 127.734375 80.867188 132.574219 80.078125 138.285156 80.078125 L 236.84375 80.078125 C 242.585938 80.078125 247.40625 80.867188 251.410156 82.90625 C 255.382812 84.941406 258.925781 88.152344 262.207031 94.703125 L 271.53125 113.335938 C 275.417969 121.085938 277.082031 129.425781 284.722656 136.722656 C 292.296875 143.933594 304.03125 147.03125 323.371094 147.078125 C 332.097656 147.746094 342.414062 147.722656 351.8125 145.0625 C 356.617188 143.71875 361.296875 141.703125 365.171875 138.035156 C 369.085938 134.375 371.78125 128.683594 371.78125 122.714844 L 371.78125 107.75 C 371.78125 107.433594 371.761719 107.121094 371.707031 106.789062 C 367.414062 68.246094 346.082031 43.816406 317.902344 31.011719 C 289.761719 18.230469 255.265625 15.730469 221.273438 16.496094 Z M 153.886719 16.496094 " fill-opacity="1" fill-rule="nonzero"/></g><path fill="#f4f8f3" d="M 33.507812 270.144531 C 33.433594 270.527344 33.414062 270.914062 33.390625 271.292969 Z M 139.175781 117.867188 L 157.285156 117.867188 C 163.941406 128.535156 174.644531 136.261719 187.570312 136.261719 C 200.519531 136.234375 211.171875 128.535156 217.824219 117.867188 L 236 117.867188 C 239.109375 138.054688 247.601562 155.375 267.375 169.40625 C 276.660156 175.996094 285.859375 181.972656 293.285156 187.988281 C 300.835938 194.101562 306.179688 199.765625 308.0625 206.695312 C 308.089844 206.835938 308.121094 206.984375 308.136719 207.125 L 324.363281 272.6875 C 324.363281 272.800781 324.390625 272.925781 324.390625 273.027344 C 325.136719 277.101562 323.253906 281.296875 320.433594 283.9375 C 317.277344 286.882812 313.277344 288.5625 308.792969 288.5625 L 66.375 288.5625 C 61.886719 288.5625 57.886719 286.90625 54.734375 283.9375 C 51.914062 281.324219 50.003906 277.105469 50.75 273.027344 L 67.027344 207.125 C 67.054688 206.984375 67.074219 206.835938 67.101562 206.695312 C 68.957031 199.765625 74.3125 194.101562 81.851562 187.988281 C 89.277344 181.972656 98.535156 176.023438 107.816406 169.40625 C 127.589844 155.375 136.070312 138.0625 139.210938 117.867188 Z M 341.625 269.90625 L 341.738281 271.292969 C 341.746094 270.839844 341.699219 270.359375 341.625 269.90625 Z M 139.175781 100.476562 C 130.621094 100.476562 123.199219 106.808594 121.890625 115.230469 C 119.195312 132.707031 114.175781 143.476562 97.636719 155.226562 C 88.789062 161.511719 79.285156 167.601562 70.78125 174.511719 C 62.375 181.316406 53.570312 189.683594 50.214844 202.160156 C 50.199219 202.183594 50.199219 202.199219 50.171875 202.230469 C 50.140625 202.402344 50.074219 202.730469 50 202.972656 L 33.632812 269.304688 C 33.585938 269.492188 33.558594 269.714844 33.535156 269.902344 C 31.558594 280.667969 36.113281 290.433594 42.71875 296.613281 C 48.988281 302.484375 57.402344 305.96875 66.375 305.96875 L 308.765625 305.96875 C 317.730469 305.96875 326.144531 302.484375 332.414062 296.613281 C 339.023438 290.433594 343.582031 280.695312 341.597656 269.902344 C 341.570312 269.710938 341.550781 269.488281 341.5 269.304688 L 325.132812 202.972656 C 325.085938 202.730469 325.015625 202.398438 324.960938 202.230469 C 324.945312 202.207031 324.945312 202.1875 324.914062 202.160156 C 321.5625 189.683594 312.765625 181.316406 304.347656 174.511719 C 295.839844 167.601562 286.386719 161.53125 277.519531 155.226562 C 260.984375 143.476562 255.992188 132.707031 253.269531 115.230469 C 251.960938 106.808594 244.53125 100.476562 235.984375 100.476562 L 214.019531 100.476562 C 210.347656 100.476562 207.070312 102.757812 205.800781 106.183594 C 202.980469 113.8125 195.742188 118.847656 187.566406 118.875 C 179.378906 118.847656 172.109375 113.839844 169.273438 106.183594 C 168.023438 102.757812 164.742188 100.476562 161.074219 100.476562 Z M 139.175781 100.476562 " fill-opacity="1" fill-rule="nonzero"/><path fill="#f4f8f3" d="M 187.570312 172.183594 C 208.425781 172.183594 225.132812 188.828125 225.132812 209.550781 C 225.132812 230.273438 208.425781 246.914062 187.570312 246.914062 C 166.738281 246.914062 150.03125 230.273438 150.03125 209.550781 C 150.03125 188.828125 166.738281 172.183594 187.570312 172.183594 Z M 187.570312 154.796875 C 157.285156 154.796875 132.527344 179.402344 132.527344 209.546875 C 132.527344 239.660156 157.285156 264.296875 187.570312 264.296875 C 217.875 264.296875 242.636719 239.664062 242.636719 209.546875 C 242.632812 179.402344 217.875 154.796875 187.570312 154.796875 Z M 187.570312 154.796875 " fill-opacity="1" fill-rule="nonzero"/></svg>