<svg xmlns="http://www.w3.org/2000/svg" width="200" viewBox="0 0 150 150" height="200" version="1.0"><defs><clipPath id="a"><path d="M0 3.5h147.75v143.25H0zm0 0"/></clipPath></defs><g clip-path="url(#a)"><path fill="#44beb8" d="M147.367 39.227c.797-8.442-3.457-17-9.902-20.11-.973-2.52-2.45-4.265-3.899-5.453-4.64-3.879-11.523-4.324-15.632-2.754-1.536.594-2.868 1.422-3.93 2.488-3.133-1.242-6.414-1.421-9.574-.472a6.021 6.021 0 00-.032-2.074c-.558-2.727-2.363-4.77-5.289-5.922-6.707-2.668-17.582-.09-23.136 3.879-10.52-.95-20.891.445-30.852 4.207a69.232 69.232 0 00-23.402 14.66 68.388 68.388 0 00-15.336 21.71c-7.567 16.735-8.098 35.426-1.535 52.548 6.59 17.207 19.5 30.863 36.402 38.414 9.102 4.058 18.738 6.101 28.43 6.101 8.304 0 16.636-1.508 24.644-4.531 17.227-6.516 30.938-19.25 38.563-35.957 3.812-8.293 5.879-17.09 6.207-25.945.117-.032.234-.09.293-.211 2.484-2.754 4.492-6.395 5.703-10.22 1.27-3.995 1.508-7.878.652-10.929-.918-3.285-3.015-5.535-6.117-6.543 4.46-2.695 7.18-7.168 7.742-12.886zm-28.93-26.985c3.723-1.422 9.958-1.004 14.184 2.52 3.399 2.843 4.875 7.199 4.285 12.675a8.783 8.783 0 00-.945-1.066c-3.488-3.465-8.719-4.383-14.39-2.547-1.036-.86-2.22-1.449-3.489-1.687-2.039-.356-3.93.324-5.348 1.957 0 0 0 .027-.03.027-.15-.027-.298-.027-.415-.027-.973-5.512 1.36-10.043 6.148-11.852zm15.72 37.086c-.65 5.067-2.954 8.738-6.884 10.93-3.812 2.101-7.625 2.637-11.378 1.512-4.079-1.215-7.918-4.387-10.817-8.86 1.3.535 2.692.8 4.168.8a14.21 14.21 0 003.902-.562c3.16-.886 5.82-2.636 7.207-3.671 2.22-.239 4.965-1.157 7.36-3.97 2.484-.386 4.64-1.124 6.383-2.222.175 1.215.382 3.496.058 6.043zm3.488 28.492a25.697 25.697 0 01-4.493-3.582c1.684-2.133 2.809-4.058 3.813-6.281.472 3.29.68 6.578.68 9.863zm-4.168-21.797c-1.301 4.235-3.25 7.61-5.465 11.106-.801-1.688-1.301-3.375-1.418-4.945a29.5 29.5 0 001.36-.684c2.362-1.332 4.222-3.168 5.523-5.477zm1.093 1.301c.828 2.668 1.508 5.364 1.98 8.059-1.269 2.93-2.394 5.242-4.402 7.82a25.74 25.74 0 01-3.37-4.594c2.304-3.582 4.343-6.988 5.792-11.285zm3.102 6.16c-.5-2.398-1.152-4.765-1.89-7.105 3.843 2.871 6.913 6.101 8.808 9.27-.27 1.687-.742 3.406-1.39 5.124-1.536-2.398-3.075-4.53-5.528-7.289zM93.852 27.5c.265 2.605 1.445 5.121 3.484 7.227a11.019 11.019 0 00-.914 3.347c-.563 4.707 1.656 9.832 5.672 13.031.148.118.328.239.472.356 1.184 2.16 2.543 4.117 4.079 5.805-6.41-.473-12.793-5.211-15.66-11.848-2.75-6.277-1.684-12.738 2.867-17.918zm3.722-13.184c-.297-.117-.59-.265-.886-.382-2.008-.832-4.047-1.602-6.118-2.223-.324-.414-.62-.828-.914-1.215-1.152-1.539-2.101-2.844-3.844-4.414 2.22-.531 4.493-.86 6.68-.86 2.719 2.61 4.637 6.489 5.082 9.094zm-9.308-3.285A68.1 68.1 0 0078.25 9.047c1.71-.98 3.723-1.84 5.91-2.488 1.95 1.628 2.922 2.87 4.106 4.472zm-.711 1.274c-1.563.945-3.633 1.863-7 2.633-1.153-1.45-2.16-2.989-2.926-4.56a74.249 74.249 0 019.926 1.927zm1.836.53c1.918.563 3.808 1.247 5.671 1.985-2.687 2.043-6.175 3.524-10.195 4.325-.058-.028-.09-.06-.148-.118-1.094-.828-2.125-1.808-3.102-2.875 3.192-.77 5.528-1.777 7.774-3.316zm7.18 2.606c.648.27 1.269.563 1.917.86-.855.77-1.625 1.66-2.273 2.61a16.227 16.227 0 00-1.625 3.077c-2.363.684-5.172.059-8.098-1.718 3.988-.977 7.445-2.633 10.078-4.829zm26.445 12.797c1.093 2.903 0 4.325-1.063 5.54-.266-.532-.562-1.067-.887-1.66.059-2.22-.504-4.263-1.3-5.477-.59-.918-1.329-1.422-2.13-1.485-1.062-.117-1.831.594-1.917.684-.594-.059-1.332.027-2.219.445-.059.027-.117.059-.176.086.031-.414.176-.918.563-1.36 1.36-1.57 2.925-1.66 3.988-1.484 2.156.418 4.227 2.282 5.14 4.711zm1.539 4.149c2.183 2.781 5.11 7.847 2.125 12.054-2.512 2.961-5.438 3.582-7.504 3.582h-.117c-1.922-.027-3.696-.62-4.907-1.332 3.871-.62 6.739-2.28 8.098-4.796.766-1.422 1.297-3.645.266-6.665.086-.09.144-.18.234-.27.621-.62 1.39-1.448 1.805-2.573zm-21.278 5.687c.711.77 1.567 1.242 2.512 1.508.977 1.688 2.453 2.637 4.375 2.816.176.028.352.028.559.028 3.25 0 6.855-2.25 8.453-4.5a9.497 9.497 0 001.508-3.348c1.18 2.574 1.296 4.856.293 6.664-1.477 2.696-5.317 4.324-10.34 4.324h-.063c-3.25 0-5.465-.828-6.617-2.457-1.035-1.629-.918-3.703-.68-5.035zm10.785-10.488c.86-.383 1.567-.441 2.07-.117.68.445.946 1.39.946 1.953v.09c.059.472-.031 1.039-.297 1.66a3.938 3.938 0 00-1.12-.445 4.528 4.528 0 00-.86-.09c-.68 0-1.27.18-1.774.328l-.62.176c-.266.058-.5 0-.618-.176-.18-.207-.18-.504-.059-.832.41-.918.973-1.922 2.332-2.547zm-1.656 7.348c-.203-.95.356-2.016.621-2.461.149-.028.297-.086.446-.118.62-.175 1.21-.382 1.859-.207.387.09.621.207.77.325-.739 1.156-1.86 2.37-3.16 3.406-.266-.293-.446-.59-.536-.945zm6.117-5.57c-.027-.919-.41-2.044-1.21-2.786h.148c.445.063.828.504 1.062.86 1.274 1.925 1.688 6.488-.53 9.597-1.477 2.074-4.934 4.117-7.712 3.88-1.066-.087-1.922-.5-2.601-1.212a9.142 9.142 0 002.215-.476c4.582-1.598 9.074-6.754 8.628-9.864zm-6.527-3.88c-.207.739-.18 1.422-.09 1.836-.77.742-1.21 1.598-1.476 2.25-.356.832-.239 1.72.293 2.313.207.234.445.414.738.531-.324.742-.648 1.777-.41 2.816a3 3 0 00.765 1.45c-.765.472-1.535.89-2.363 1.156-1.832.652-4.312.86-5.851-1.809-.887-1.507-.207-4.265 1.597-6.691 1.504-1.984 4.016-3.91 6.797-3.852zm-9.781 10.989c-.356 1.066-1.274 4.68.62 7.406 1.419 2.043 4.048 3.078 7.802 3.078h.058c.5 0 .973-.027 1.446-.059 1.093 1.098 3.132 2.164 5.703 2.461-3.574 2.25-9.66 4.797-14.832.59-3.637-2.933-5.645-7.523-5.14-11.758.292-2.34 1.444-5.421 5.081-7.968-1.21 2.34-1.508 4.652-.738 6.25zm26.476 7.347c2.332-5.183-1.625-10.785-3.785-13.3 0-.801-.144-1.72-.558-2.786a9.818 9.818 0 00-1.625-2.785c4.875-1.36 9.277-.531 12.23 2.403 2.602 2.574 3.578 6.367 2.453 9.683-1.12 3.465-4.195 5.836-8.715 6.785zM112.97 14.523c-1.95 2.52-2.719 5.895-2.098 9.598-2.394.297-4.492 1.746-6 3.406-3.07 1.453-5.375 3.465-6.824 5.864-4.168-4.618-3.133-10.008-.649-13.625 2.954-4.352 8.98-7.641 15.57-5.243zm-9.989-3.406c.149.711.09 1.512-.144 2.34v.031c-1.125.473-2.16 1.094-3.133 1.805a5.566 5.566 0 01-.621-.293c-.18-2.902-2.07-6.844-4.55-9.688 1.445.149 2.835.446 4.046.918 2.484.977 3.961 2.606 4.402 4.887zm-9.16 129.469c-35.015 13.21-74.347-4.356-87.644-39.156C-.238 84.633.296 66.36 7.652 49.98c7.418-16.558 20.895-29.207 37.942-35.632 9.812-3.703 20.008-5.094 30.379-4.118 1.656 3.704 4.55 7.407 7.89 9.954 3.016 2.308 6.059 3.523 8.778 3.523.5 0 1.004-.059 1.476-.117a13.39 13.39 0 00-.297 1.863C88 31.23 86.465 38.723 89.625 46.04c3.25 7.496 10.727 12.738 18.027 12.738h.41c2.247 2.075 4.758 3.582 7.391 4.383 1.418.414 2.863.653 4.313.653 1.804 0 3.636-.356 5.437-1.008.738 5.925 5.942 12.945 12.383 16.707-.86 26.418-17.438 51.152-43.766 61.074zm45.301-62.645c.031-3.882-.297-7.761-.914-11.613 1.77 2.133 3.012 3.969 4.313 6.074a28.713 28.713 0 01-3.399 5.54zm-.09-24.496c2.75.86 4.524 2.754 5.32 5.63.356 1.3.473 2.753.415 4.292-2.305-3.226-5.672-6.457-9.723-9.242.86-.234 1.684-.531 2.484-.887a3.988 3.988 0 011.504.207zm-4.105-.8c.297-1.008.531-2.075.68-3.2.414-3.285 0-6.07-.18-7.136 1.597-1.305 2.781-2.934 3.398-4.829.887-2.695.594-5.656-.68-8.207.563-3.285.473-5.98-.058-8.23 5.262 3.285 8.57 10.691 7.89 18.008-.68 6.781-4.699 11.668-11.05 13.594zm0 0"/></g><path d="M12.768 71.24c1.13 2.93 2.059 3.852 4.45 4.583.785.207 1.82.386 2.222.367 3.91-.207 4.871-.336 4.883-.532.008-.101.57-.257 1.281-.406 1.164-.21 3.39-1.242 6.149-2.73 1.511-.836 5.453-3.387 5.78-3.762.165-.187.743-.594 1.267-.902 1.68-1.075 5.3-4.047 9.796-8.008 4.172-3.68 5.114-4.906 3.579-4.426-.356.125-.704.098-.797-.008-.094-.11-.094-.058-.012.149.086.207.023.351-.223.332-.199-.016-.46.117-.578.355-.066.196-.324.328-.469.266-.199-.016-.355.074-.316.226.035.204-.121.29-.363.172-.336-.176-.39-.129-.262.13.18.312.078.308-.21.183-.337-.172-.755.043-1.454.691-.586.504-.906.781-.793.59.11-.14.074-.293-.078-.305-.149-.011-.356.121-.477.364-.113.191-.328.375-.476.363-.2-.016-.723.297-1.2.66-.48.41-.945.625-.992.574-.09-.11-.152.04-.168.235-.02.25-.132.441-.226.382-.39-.128-2.528 1.06-2.715 1.547-.07.243-.277.38-.371.27-.145-.059-.664.2-1.149.664-.53.41-1.003.723-1.054.719-.098-.008-.106.093-.067.246-.011.148-.062.144-.207.082-.187-.164-.867.234-4.07 2.293-.207.133-.688.496-1.059.82-.37.27-.789.488-.886.48-.29-.12-2.203.735-2.223.981-.008.102-.164.188-.363.176-.2-.016-.403.066-.465.215-.176.336-4.684 1.843-6.664 2.242-2.328.426-5.422.344-6.528-.192-.625-.347-.8-.66-1.062-1.828-.406-1.879-.23-3.562.574-5.652 2.73-7.04 10.223-14.316 18.485-17.89 2.582-1.102 4.586-1.852 6.058-2.141 1.469-.29 1.313-.2 1.59-1.227.316-1.574.285-1.777-.621-3.047l-.82-1.058-2.579.402c-1.414.246-2.976.426-3.378.445-1.399-.004-4.426-.28-5.602-.57-1.031-.227-1.125-.336-1.035-.879.344-1.871 5.57-6.273 10.777-9.078 1.457-.79 5.844-2.656 7.332-3.145 3.739-1.214 7.89-1.304 10.106-.187 1.254.594 1.39.754 1.332 1.55.015.45-.114.84-.266.829-.148-.012-.207.133-.129.39.082.254.024.352-.117.239-.281-.219-.902.734-.676 1 .145.11.09.156-.054.094-.145-.06-.301.027-.41.12-.06.145-.758.794-1.462 1.489-.703.695-1.25 1.355-1.207 1.457.09.105.036.203-.113.14-.387-.175-2.836 1.836-2.71 2.196.077.254-.024.297-.27.23-.192-.117-.496-.039-.707.145-.164.187-.48.363-.676.348-.3-.02-.422.27-.434 1.117-.02 1.547.211 1.816 1.242 1.394 1.754-.719 3.957-2.152 5.782-3.812 2.25-1.977 2.91-2.828 3.718-4.914.993-2.575.954-3.375-.5-5.985-.921-1.668-1.714-2.425-3.125-2.93-.78-.261-1.078-.28-1.246-.046-.168.238-.21.183-.195-.063.023-.3-.371-.379-1.773-.336a27.42 27.42 0 01-2.098-.008c-.195-.015-.305.079-.211.184.04.106-.363.172-.863.188-2.633-.2-12.04 3.937-15.707 6.906-.528.36-.953.68-1.051.672-.297-.024-1.43 1.09-1.3 1.351.042.102-.013.149-.153.035-.332-.222-3.242 2.555-4.094 3.942-.512.808-.656 1.398-.73 3.039-.23 3.73.527 5.637 2.546 6.637.34.125.38.28.176.312a.672.672 0 00-.336.527c-.015.196-.125.29-.27.227-.14-.11-.503.063-.78.441-.325.325-.641.551-.684.45-.184-.215-3.274 2.351-3.145 2.609.094.105-.058.145-.3.027-.336-.175-.395-.078-.317.227.078.254.008.55-.148.637-.207.086-.203.035-.09-.157.113-.14.074-.293-.074-.304-.153-.012-.309.078-.317.226-.011.149-.5.66-1.09 1.168-1.39 1.242-3.195 3.305-3.066 3.563.09.156-.02.3-.223.336-.562.156-2.37 2.918-3.613 5.52-2.129 4.386-2.23 7.726-.383 12.362zm41.897-18.036c.09.09.19.16.246.16.05 0 .367-.296.714-.648.333-.348.786-.75.997-.855.367-.207.367-.227.171-.332-.226-.121-.82-.051-.82.105 0 .055-.031.09-.066.055-.035-.035-.14 0-.246.086-.106.086-.141.105-.106.035.055-.086.035-.106-.05-.086-.07.031-.122.086-.122.156 0 .05-.035.121-.09.172-.05.035-.05.02-.015-.05.105-.177-.106-.122-.246.05-.07.09-.192.211-.297.262-.106.07-.172.16-.156.21.015.051-.036.106-.121.106-.125 0-.125.035-.036.207.07.106.172.281.243.367zm2.55 4.192c-.175.172-.332.363-.332.433s-.02.106-.054.07c-.036-.034-.137.036-.207.176-.09.122-.438.504-.77.856-.332.332-.574.644-.559.68.036.035 0 .05-.085.05-.086 0-.157.07-.157.141 0 .07-.054.14-.14.176a.152.152 0 00-.086.207c.03.07.015.105-.055.07-.05-.035-.121.035-.14.125a.446.446 0 01-.227.242c-.102.02-.156.086-.137.121.035.055-.035.125-.14.141-.106.035-.157.106-.122.156.051.09-.07.14-.246.106-.035 0-.07.02-.07.054 0 .157-.367.102-.469-.07-.105-.21-.09-1.555.016-1.922.035-.12.14-.468.226-.765.07-.317.176-.649.227-.735.035-.105.156-.437.281-.734.121-.313.364-.871.559-1.274.191-.402.347-.8.347-.89 0-.086-.12-.227-.28-.313-.278-.14-.294-.14-.59.121-.352.282-.72.875-.614.977.035.055.02.055-.05.02-.141-.086-.614.89-.524 1.046.035.051.016.07-.035.051-.055 0-.09.02-.106.055 0 .035-.07.242-.176.453-.73 1.746-.558 3.332.489 4.398.367.368.472.434.804.434.313 0 .438-.066.82-.434.243-.246.438-.488.438-.543a.23.23 0 01.121-.19c.141-.087.54-.63 1.082-1.45 1.239-1.902 1.621-2.703.961-2.04zm0 0" fill="#44beb8"/><path d="M63.619 49.208c-.055 0-.192.07-.332.157-.14.105-.313.21-.403.226-.105.035-.14.106-.12.16.034.051-.036.086-.176.086-.122 0-.262.07-.297.121a.518.518 0 01-.227.211c-.262.156-1.254 1.098-1.273 1.239-.016.07-.176.226-.332.347-.192.125-.297.262-.262.352.035.07.02.105-.016.07-.16-.09-1.504 1.656-1.52 1.938 0 .066-.015.12-.05.12-.09 0-.367.524-.316.575.02.035.02.055-.016.02-.07-.036-.84 1.394-.89 1.62 0 .07-.106.247-.227.422-.125.157-.192.328-.157.383.032.05.016.176-.035.278-.09.14-.07.175 0 .175.067 0 .051.051-.035.121-.09.055-.176.227-.21.387-.157.766-.212 1.184-.157 1.254.035.055.016.07-.035.035-.262-.156-.262 1.903 0 2.637.191.539.926 1.465 1.394 1.781.91.59 2.043.227 3.649-1.187.82-.7 1.887-1.832 1.832-1.922-.035-.051 0-.086.07-.086.156 0 1.414-1.535 1.363-1.676 0-.035.016-.05.067-.016.035.016.281-.23.523-.578.246-.332.559-.75.7-.925.14-.172.296-.368.351-.434.172-.211.297-.578.227-.649-.036-.035-.09-.015-.106.036a8.33 8.33 0 01-.402.507c-.211.227-.367.438-.367.47 0 .034-.051.07-.121.07s-.192.07-.262.16c-.106.12-.106.136.015.066.07-.035.055.02-.066.125-.105.102-.21.227-.21.277 0 .07-.036.086-.087.055-.055-.035-.09-.02-.09.031 0 .055-.12.211-.277.368-.156.14-.281.316-.281.367 0 .07-.051.12-.137.156-.07.035-.105.09-.07.14.015.036 0 .087-.055.087-.121 0-.367.21-.367.316 0 .035-.227.262-.488.523-.262.262-.418.438-.348.403.086-.07.105-.055.07.015-.035.055-.14.106-.226.106-.07 0-.121.015-.09.05.054.055-.418.594-.524.594-.066 0-.398.352-.363.387.016.016-.14.156-.367.293-.227.14-.418.297-.418.332 0 .035-.125.106-.262.16-.16.051-.281.156-.281.242s-.05.106-.14.086a.15.15 0 00-.192.07c-.016.071-.086.141-.156.141-.086 0-.61.192-.977.383-.07.035-.316.07-.523.09-.422.016-.649-.156-.91-.684-.383-.695-.227-2.441.402-4.394.14-.438.176-.492.472-.543.872-.156 2.11-.715 3.262-1.485 3.438-2.32 5.238-6.246 3.281-7.187a1.73 1.73 0 00-1.324-.055c-.02.02-.07.02-.105 0zm1.394.75l.317.02-.02.594c-.015.453-.105.75-.347 1.253-.176.368-.317.72-.317.77 0 .05-.05.086-.101.086-.055 0-.07.035-.036.09.016.035-.02.101-.09.12-.085.036-.136.106-.136.157 0 .05-.07.156-.14.246-.071.07-.106.172-.071.227.016.05.016.07-.035.05-.121-.085-.348.176-.262.297.035.051 0 .086-.086.086-.07 0-.14.055-.14.106 0 .055-.036.07-.086.035-.09-.05-.141.086-.106.281.016.051 0 .051-.055.016-.035-.035-.156.035-.261.156-.121.14-.243.227-.278.227-.035 0-.14.105-.226.21-.106.106-.176.157-.176.141 0-.07-.402.242-.8.645-.126.105-.263.176-.298.156-.054-.035-.09 0-.09.055 0 .07-.035.086-.07.05-.031-.035-.156.02-.293.106a1.958 1.958 0 01-.367.227c-.09.035-.262.14-.422.246-.156.086-.348.172-.433.172-.09.019-.157.054-.157.105 0 .05-.035.086-.09.05-.035-.034-.226.02-.402.09-.418.172-.418.122 0-.769.594-1.187 1.871-3.105 2.602-3.855.07-.09.316-.332.523-.579.508-.539 1.781-1.535 2.27-1.742.21-.09.507-.14.68-.125zm0 0" fill="#44beb8"/><path d="M66.759 61.443c.105.035.226.054.297.07.136 0 1.238-.348 1.289-.438.035-.035.195-.156.367-.277.191-.121.383-.281.473-.351.925-.801 1.414-1.274 1.378-1.344 0-.035.016-.051.051-.016.121.07 1.606-1.449 1.52-1.554-.035-.036-.02-.051.035-.016.05.035.191-.035.297-.176.226-.297.105-.402-.156-.156-.106.086-.297.246-.422.332-.137.086-.227.207-.192.262.035.035-.07.105-.226.14-.157.035-.278.102-.278.192 0 .07-.035.105-.07.07-.055-.02-.316.191-.613.453-.278.277-.504.469-.504.434 0-.032-.055 0-.106.09-.05.085-.14.14-.175.12-.051-.035-.086-.035-.086.02-.016.121-.438.559-.575.59a.797.797 0 00-.23.16c-.05.086-.172.137-.262.137-.101 0-.156.055-.136.125 0 .07-.02.105-.055.086-.086-.051-.68.246-.63.312.036.035-.1.055-.714.07-.469.036-.644-.05-.766-.382-.261-.715-.054-1.676.594-2.738.016-.036.156-.02.297.066.383.195.82.16 1.36-.102.644-.316 1.011-.718 1.167-1.293.125-.382.125-.558.036-.8-.137-.438-.75-.856-1.168-.82-.332.05-.961.347-.871.433.05.055-.106.09-.176.055-.02-.02-.227.171-.489.418-.578.558-1.03 1.238-1.066 1.55-.016.125-.05.211-.086.176-.121-.07-.383 1.031-.383 1.66 0 .54.051.75.297 1.29.313.679.645 1.081.977 1.152zm.699-4.625c.207-.297.852-.836 1.238-1.047.348-.192.559-.14.54.12 0 .126-.071.247-.122.263-.07.035-.086.105-.07.195.05.101.02.121-.086.086-.105-.055-.156-.02-.125.07.02.07 0 .121-.016.121a8.774 8.774 0 00-.453.227c-.226.105-.578.226-.77.246l-.347.035zm0 0" fill="#44beb8"/><path d="M73.04 61.443c.106.035.227.054.297.07.137 0 1.239-.348 1.29-.438.035-.035.195-.156.367-.277.191-.121.382-.281.472-.351.926-.801 1.414-1.274 1.38-1.344 0-.035.015-.051.05-.016.121.07 1.605-1.449 1.52-1.554-.036-.036-.02-.051.035-.016.05.035.191-.035.296-.176.227-.297.106-.402-.156-.156-.105.086-.297.246-.422.332-.136.086-.226.207-.191.262.035.035-.07.105-.227.14-.156.035-.277.102-.277.192 0 .07-.035.105-.07.07-.055-.02-.317.191-.614.453-.277.277-.503.469-.503.434 0-.032-.055 0-.106.09-.05.085-.14.14-.176.12-.05-.035-.086-.035-.086.02-.015.121-.437.559-.574.59a.797.797 0 00-.23.16c-.051.086-.172.137-.262.137-.102 0-.156.055-.137.125 0 .07-.02.105-.054.086-.086-.051-.68.246-.63.312.036.035-.1.055-.714.07-.469.036-.645-.05-.766-.382-.262-.715-.055-1.676.594-2.738.016-.036.156-.02.297.066.383.195.82.16 1.36-.102.644-.316 1.01-.718 1.167-1.293.125-.382.125-.558.035-.8-.136-.438-.75-.856-1.168-.82-.332.05-.96.347-.87.433.05.055-.106.09-.177.055-.02-.02-.226.171-.488.418-.578.558-1.031 1.238-1.066 1.55-.016.125-.051.211-.086.176-.121-.07-.383 1.031-.383 1.66 0 .54.05.75.297 1.29.312.679.644 1.081.976 1.152zm.7-4.625c.207-.297.851-.836 1.238-1.047.348-.192.559-.14.539.12 0 .126-.07.247-.121.263-.07.035-.086.105-.07.195.05.101.02.121-.086.086-.106-.055-.157-.02-.125.07.02.07 0 .121-.016.121a8.774 8.774 0 00-.453.227c-.227.105-.578.226-.77.246l-.347.035zm0 0" fill="#44beb8"/><path d="M81.205 56.556c-.121.055-.262.176-.277.262-.055.175-.332.523-.805 1.011-.137.157-.227.317-.207.352.035.05 0 .066-.07.035-.09-.02-.157.031-.192.192-.035.136-.09.207-.14.19-.051-.034-.106 0-.122.071-.02.051-.07.086-.09.07-.07-.07.423-1.66.7-2.234.12-.297.246-.543.246-.578 0-.016.121-.262.297-.523.191-.297.293-.559.277-.73-.035-.317-.07-.352-.558-.544l-.383-.156-.387.383c-.191.226-.383.508-.418.644-.016.14-.086.246-.137.246-.125 0-.648 1.203-.593 1.395.035.105.035.16 0 .125-.106-.106-.297.73-.297 1.324 0 .578.015.649.383 1.117.472.63.734.77 1.03.578.243-.16.872-.945 1.36-1.71.176-.282.383-.579.438-.63.07-.07.367-.472.664-.87.293-.403.816-.997 1.148-1.329.98-.976 1.223-1.011.82-.12-.101.226-.156.452-.12.503.019.035 0 .09-.051.09-.09 0-.246.348-.211.488.02.035 0 .051-.051.016-.07-.035-.629 1.066-.996 1.937-.07.192-.246.559-.367.82-.192.419-.207.509-.106.579.106.066.106.086-.015.086-.176 0-.579 1.187-.418 1.187.05 0 .05.035-.036.086-.156.106-.191.246-.226 1.117-.035.473 0 .82.086 1.012.12.317.574.84.785.926.226.086.262.07.68-.176.226-.121.386-.277.367-.312-.035-.055 0-.086.07-.086.14 0 .977-.961 1.52-1.782 1.047-1.52 1.464-2.199 2.18-3.437.507-.91.613-1.188.437-1.188-.07 0-.14.086-.14.172 0 .106-.036.196-.087.196-.054 0-.09.035-.09.086a.56.56 0 01-.086.21c-.453.54-.558.715-.503.715.03 0-.055.106-.196.243-.136.14-.312.386-.383.558-.07.16-.21.387-.296.473-.106.105-.176.226-.141.262.02.05-.035.105-.137.14-.105.016-.176.086-.16.121.07.106-.262.664-.383.664-.05 0-.105.07-.105.137 0 .07-.035.14-.086.14-.05 0-.106.106-.14.227-.036.125-.106.211-.157.176-.05-.05-.07-.016-.035.086.035.09.02.14-.051.125-.07 0-.105.05-.105.137.015.09-.02.14-.051.125-.035-.02-.125.05-.196.156a4.53 4.53 0 01-.398.453c-.16.14-.387.348-.508.473-.277.261-.8.453-.87.312-.141-.191.171-1.57.523-2.41.101-.242.226-.54.261-.645.035-.085.172-.417.313-.699.12-.293.226-.558.226-.59 0-.035.262-.593.578-1.257.836-1.696 1.012-2.27 1.012-3.004 0-.54-.02-.66-.226-.856a1.51 1.51 0 00-.594-.312c-.297-.07-.387-.051-.649.176-.156.12-.293.296-.293.347 0 .07-.054.106-.125.086-.05 0-.156.106-.226.246-.07.121-.191.246-.262.246-.07 0-.105.032-.086.086.035.051.016.086-.035.086-.14 0-.473.578-.418.715.016.055-.02.09-.09.055-.136-.055-.593.468-.593.664 0 .066-.102.172-.227.242zm6.09-9.215c0-.348.418-1.047 1.082-1.781.508-.559.56-.82.262-1.047-.242-.207-.629-.137-.77.125-.05.102-.171.262-.277.363-.105.106-.156.227-.12.297.034.055.034.07 0 .035-.09-.07-.368.282-.298.367.036.02 0 .106-.07.176-.262.262-.281 1.344-.035 1.657.156.19.246.125.226-.192zM86.09 67.814c.261.156 1.03.07 1.554-.176.473-.227 1.153-.629 1.239-.715.02-.035.191-.156.367-.277.453-.297 1.57-1.485 2.043-2.149.906-1.273 1.203-2.18 1.133-3.543l-.036-.906 1.239-.82a36.027 36.027 0 001.363-.91c.05-.051.105-.07.105-.035s.137-.051.297-.172c.172-.125.559-.352.871-.489.317-.14.579-.297.579-.316 0-.121-.403-.172-.473-.07a.11.11 0 01-.156.035.118.118 0 00-.16.035.114.114 0 01-.137.055c-.035-.036-.106 0-.125.035-.032.05-.157.101-.278.101-.12 0-.226.036-.246.09-.015.051-.12.106-.226.137-.102.02-.364.105-.594.21a5.364 5.364 0 01-.61.247c-.105.035-.21.102-.21.156 0 .051-.032.051-.086.035-.051-.035-.086-.035-.086.016 0 .035-.14.125-.317.191a3.42 3.42 0 00-.75.438l-.402.316-.453-.422c-.227-.226-.469-.418-.524-.418-.05 0-.277-.12-.539-.277a3.845 3.845 0 00-.488-.281c-.035 0-.105-.035-.176-.07-.12-.07-.12-.141.036-.47.347-.784 1.71-2.374 2.007-2.374.086 0 .137-.086.137-.211 0-.297-.559-.645-.922-.559-.14.035-.262.125-.262.196 0 .066-.054.101-.105.066-.14-.086-.559.227-.508.387.035.086.02.101-.035.07-.172-.105-1.117.957-1.203 1.344a.581.581 0 01-.14.242c-.173.191-.137.578.105 1.066.418.801.785 1.184 1.449 1.516.348.176.664.367.715.422.105.12-.242.523-.383.453-.035-.035-.105 0-.14.086-.016.07-.087.121-.122.086-.054-.016-.12.02-.156.09-.035.07-.195.191-.352.261-.136.086-.367.227-.468.332-.125.102-.246.192-.297.192-.055 0-.106.086-.106.172 0 .105-.035.21-.105.246-.05.05-.07.035-.035-.035.035-.051.035-.106.02-.106-.141 0-1.344 1.153-1.344 1.274 0 .054-.055.105-.125.105s-.157.07-.192.176c-.035.105-.086.176-.105.14-.036-.019-.157.102-.262.297-.121.192-.242.332-.277.332-.055 0-.157.086-.247.207-.12.157-.136.211-.05.227.07 0 .035.035-.07.07-.087.035-.176.106-.176.157 0 .054-.102.21-.243.351-.14.156-.261.348-.261.434 0 .09-.035.16-.09.16-.05 0-.086.101-.086.242 0 .121-.05.211-.106.176-.035-.035-.085.05-.105.172 0 .125-.016.367-.031.543-.02.488.363 1.097.922 1.414zm-.036-1.555c.317-.785 1.137-1.867 2.29-3 .976-.976 2.27-2.113 2.406-2.113.035 0 .176-.086.297-.207.175-.176.261-.211.316-.125.035.054.035.156-.035.226-.055.055-.07.106-.035.106s.015.086-.035.191a1.847 1.847 0 00-.141.438c-.035.14-.086.261-.14.297a2.06 2.06 0 00-.227.418 6.52 6.52 0 01-.61.976c-.246.352-.418.664-.382.719.035.05 0 .066-.07.05-.071 0-.106.036-.106.106.015.05 0 .106-.035.086-.036-.016-.368.281-.75.645-.368.351-.7.664-.75.664-.036 0-.09.02-.09.07 0 .035-.086.121-.207.191-.14.07-.211.157-.176.211.035.051.02.07-.05.035-.055-.035-.177.051-.282.192-.106.12-.227.21-.242.176-.035-.02-.192.015-.352.086a2.26 2.26 0 01-.523.226c-.332.086-.332 0-.07-.664zM74.202 84.836c.472-1.3.945-2.563 1.062-2.84.16-.434 1.028-3.273 1.106-3.746.039-.117.16-.512.277-.828.473-1.262 1.262-4.613 1.379-5.996.316-3.668.277-6.664-.078-6.664-.156 0-.551 1.773-.75 3.39a28.364 28.364 0 01-.434 2.485c-.156.71-.355 1.422-.394 1.617-.04.2-.078.433-.118.473 0 .082-.039.238-.078.355 0 .121-.16.555-.355.988-.2.395-.395.985-.434 1.34-.078.356-.199.79-.316.906-.156.239-.672 1.778-.75 2.29 0 .078-.195.55-.395 1.066a13.52 13.52 0 00-.472 1.574c-.078.356-.196.633-.317.633-.117 0-.156.156-.078.355.04.196 0 .395-.078.473-.117.078-.316.473-.512.906-.16.395-.515 1.344-.828 2.051-.277.75-.515 1.461-.515 1.617 0 .121-.118.239-.235.239-.082 0-.2.195-.2.472 0 .238-.077.473-.194.473-.121 0-.2.078-.16.16 0 .117-.157.629-.434 1.184-.234.55-.395.984-.274.984.079 0 .04.078-.082.195-.273.2-1.378 2.645-1.183 2.645.043 0-.156.316-.434.71-.511.669-.629.985-.472 1.262 0 .04-.157.317-.395.63-.55.671-1.34 2.21-1.34 2.644 0 .156-.117.394-.316.473-.156.078-.434.472-.63.906-.476 1.183-.91 1.933-.91 1.699 0-.16-.234.273-.511.945-.277.63-.55 1.106-.629 1.024-.082-.04-.316.238-.476.672-.196.394-.473.75-.63.75-.16 0-.199.156-.16.355.083.234.043.317-.078.234-.117-.078-.195-.039-.195.122 0 .117-.316.59-.672 1.023-.984 1.105-2.562 3.078-2.879 3.59-.156.238-.59.672-.945.984-.356.278-.633.633-.555.75.078.121 0 .2-.156.16-.156-.039-.238.079-.2.235 0 .199-.038.238-.155.16-.118-.082-.434.117-.711.434-.274.312-.59.511-.63.433-.077-.039-.12 0-.12.117 0 .239-1.696 1.184-2.407 1.38-.195.042-.55.12-.707.237-1.422.633-1.343-5.523.118-11.949.789-3.55 2.445-8.402 5.046-14.91.832-2.012 1.106-3.078 1.184-4.101.121-1.618.082-1.696-1.063-2.446l-.828-.554-.472.671c-.239.356-.79 1.262-1.223 1.973-.437.711-.871 1.3-.95 1.34-.077.039-.155.238-.155.434 0 .199-.079.277-.16.238-.118-.078-.274 0-.313.234-.082.238-.04.278.117.2.195-.118.195-.079 0 .156-.156.16-.394.316-.512.316-.16 0-.238.156-.199.316 0 .157-.039.274-.156.274-.078 0-.356.355-.594.75-.234.433-.629 1.066-.906 1.383-1.145 1.496-1.184 1.617-.945 1.656.156 0 .156.039-.04.117-.316.16-.554.434-1.539 1.856-.355.472-1.144 1.578-1.734 2.406-.594.828-1.027 1.578-.95 1.695.04.117 0 .195-.155.156-.16-.039-.239.118-.2.356.04.316-.078.433-.312.355-.238-.039-.477.157-.555.434-.117.238-.511.71-.906 1.027-.355.313-.75.785-.79 1.024-.077.238-.194.355-.237.316-.157-.2-.668.395-.551.59.039.121.039.16-.078.16-.317-.121-1.106.512-.946.79.079.155.04.195-.082.077-.234-.117-1.457.473-1.734.828-.04.079-.316.157-.59.118-.476-.04-.555-.118-.594-1.301-.156-2.957 1.223-8.324 3.512-13.688 2.012-4.613 4.574-8.836 7.692-12.422 1.418-1.617 1.539-2.488.511-3.195-.75-.515-1.46-.472-2.09.195-.238.278-.511.473-.632.473-.079 0-.274.277-.395.594-.117.316-.312.512-.394.433-.118-.078-.235.04-.313.235-.082.2-.2.316-.316.238-.078-.078-.16.04-.16.238 0 .196-.118.352-.235.352-.117 0-.156.16-.078.277.078.16.078.239-.078.118-.438-.313-3.59 4.183-5.207 7.496-1.305 2.64-1.817 3.824-1.7 3.945.044.078 0 .156-.117.156s-.316.356-.472.75a12.741 12.741 0 01-.512 1.461c-.555 1.574-.75 2.168-.789 2.758 0 .2-.078.355-.16.277-.117-.078-.395 1.262-.746 3.43-.082.316-.121 1.578-.121 2.8 0 2.012.039 2.368.632 3.669 1.34 3.156 2.997 4.851 4.258 4.418.711-.235 2.606-1.38 2.606-1.578 0-.079.156-.157.316-.157.195 0 .313-.078.313-.195 0-.082.75-.988 1.617-2.055.91-1.023 2.172-2.718 2.84-3.746a44.061 44.061 0 011.539-2.207c.277-.316.277-.316.117.117-.117.239-.395 1.383-.668 2.524-1.5 6.59-1.461 11.441.195 14.515.989 1.856 2.211 3.512 2.918 3.868 1.223.629 3.551 0 4.617-1.223.157-.2.395-.356.473-.356.195 0 3.43-3.59 4.3-4.851a34.36 34.36 0 011.063-1.422c.16-.273.473-.707.672-.984.672-.868 4.297-7.22 4.297-7.457 0-.118.082-.274.16-.313.196-.121.75-1.144 1.262-2.328.195-.434.434-.945.55-1.105.239-.274 3.59-7.848 4.497-10.137a371.4 371.4 0 001.383-3.63zm-.682 14.597c.122.04.263.059.34.078.16 0 1.423-.398 1.481-.5.04-.039.219-.18.422-.32.219-.137.437-.32.54-.398 1.058-.918 1.616-1.461 1.577-1.54 0-.039.02-.062.063-.019.136.078 1.836-1.66 1.738-1.781-.04-.04-.02-.059.039-.02.059.04.219-.039.34-.199.262-.34.121-.46-.18-.18-.12.098-.34.278-.48.38-.16.1-.258.238-.219.3.039.04-.082.121-.262.16-.18.04-.32.117-.32.219 0 .082-.04.121-.078.082-.059-.023-.36.219-.7.52-.32.32-.581.539-.581.5 0-.043-.059 0-.118.097-.062.102-.16.16-.203.14-.058-.038-.097-.038-.097.02-.02.14-.5.64-.66.68a.95.95 0 00-.262.18c-.059.101-.2.16-.297.16-.121 0-.18.062-.16.14 0 .082-.02.122-.063.102-.097-.062-.777.277-.719.36.04.038-.12.058-.82.078-.539.039-.738-.06-.879-.438-.3-.82-.058-1.922.68-3.14.02-.04.18-.02.34.078.441.222.941.183 1.558-.118.743-.36 1.16-.82 1.34-1.48.14-.442.14-.64.04-.922-.157-.496-.86-.977-1.337-.938-.383.06-1.101.399-1 .5.059.06-.12.098-.203.06-.02-.02-.258.198-.558.48-.66.64-1.18 1.421-1.22 1.78-.019.138-.062.24-.1.2-.141-.082-.438 1.18-.438 1.898 0 .622.058.86.34 1.48.359.782.738 1.24 1.117 1.321zm.802-5.3c.238-.34.98-.958 1.418-1.2.402-.219.64-.16.62.14 0 .141-.077.282-.14.302-.078.039-.098.117-.078.218.058.121.02.141-.102.102-.117-.063-.18-.02-.14.078.023.082 0 .14-.02.14-.039.02-.258.122-.52.262-.257.118-.66.258-.878.278l-.399.039zm0 0" fill="#44beb8"/><path d="M82.878 93.836c-.14.058-.3.199-.32.296-.059.2-.38.602-.918 1.16-.16.18-.262.36-.242.403.043.059 0 .078-.078.039-.102-.02-.18.04-.22.219-.042.16-.1.242-.16.219-.062-.04-.12 0-.14.082-.02.058-.082.097-.102.078-.078-.078.48-1.899.801-2.559.14-.34.281-.621.281-.66 0-.02.137-.3.34-.598.22-.34.34-.64.32-.84-.042-.359-.081-.402-.64-.62l-.441-.18-.442.441c-.219.258-.437.578-.476.738-.02.16-.102.282-.16.282-.141 0-.743 1.378-.68 1.597.039.121.039.18 0 .14-.121-.12-.34.84-.34 1.52 0 .66.02.739.437 1.282.54.718.84.879 1.18.656.281-.18 1-1.078 1.563-1.957.199-.32.437-.66.496-.719.082-.082.422-.543.761-1 .34-.46.942-1.14 1.32-1.52 1.118-1.12 1.4-1.16.938-.14-.117.258-.18.52-.136.578.02.04 0 .102-.063.102-.098 0-.277.398-.238.558.02.04 0 .059-.063.02-.078-.04-.718 1.219-1.136 2.219-.082.222-.282.64-.422.94-.22.481-.239.579-.121.661.12.078.12.102-.02.102-.2 0-.66 1.359-.48 1.359.062 0 .062.04-.04.098-.18.12-.218.28-.257 1.28-.043.54 0 .938.097 1.161.141.36.66.957.903 1.059.258.101.297.078.777-.2.262-.14.441-.32.422-.359-.04-.062 0-.101.078-.101.16 0 1.121-1.098 1.742-2.04 1.2-1.738 1.68-2.52 2.496-3.937.582-1.043.703-1.363.5-1.363-.078 0-.16.101-.16.203 0 .117-.039.219-.097.219-.063 0-.102.039-.102.101 0 .059-.059.18-.098.238-.52.621-.64.82-.582.82.04 0-.058.122-.218.282-.16.156-.36.437-.442.637-.078.18-.238.441-.34.543-.117.117-.199.257-.16.297.02.062-.039.12-.16.16-.117.02-.2.101-.18.14.082.121-.297.762-.437.762-.063 0-.121.078-.121.16 0 .078-.04.156-.102.156-.058 0-.117.122-.16.262-.04.14-.117.238-.18.2-.058-.06-.078-.02-.039.1.04.099.02.161-.058.142-.082 0-.121.058-.121.16.019.097-.02.16-.06.136-.042-.02-.14.063-.222.18a4.43 4.43 0 01-.457.524c-.18.16-.441.398-.582.539-.32.3-.918.52-1 .359-.16-.219.2-1.8.602-2.758.12-.281.258-.62.3-.742.04-.098.2-.48.36-.8.14-.34.258-.638.258-.68 0-.04.3-.68.66-1.438.96-1.941 1.16-2.602 1.16-3.441 0-.618-.02-.758-.258-.977-.14-.14-.441-.3-.68-.363-.34-.078-.44-.059-.742.203-.18.137-.34.34-.34.398 0 .078-.058.121-.14.102-.059 0-.18.117-.258.277-.082.14-.223.281-.3.281-.083 0-.122.04-.102.102.043.059.02.098-.04.098-.16 0-.538.66-.48.82.02.059-.02.102-.097.059-.16-.059-.68.543-.68.761 0 .078-.121.2-.262.282zm0 0" fill="#44beb8"/><path d="M89.256 99.074c.48.437.578.476.941.418.54-.059 1.02-.461 1.977-1.64.46-.54.902-1.079.98-1.161.082-.098.32-.418.54-.719.222-.277.421-.5.44-.48.04.02 0 .422-.082.902-.136.84-.078 3.34.082 3.598.04.058.079.219.102.32.117.8 1.117 2.02 2.059 2.52.578.3.957.28 1.68-.082.48-.239 2.257-2.02 2.257-2.278 0-.039.102-.16.219-.261.101-.098.203-.239.203-.297 0-.063.078-.18.16-.262.399-.398 1.68-2.32 1.559-2.32-.04 0 .02-.078.14-.18.297-.258.88-1.277.82-1.398-.042-.06-.023-.102.04-.102.14 0 .64-.86.64-1.098 0-.16-.062-.14-.28.118-.481.523-.661.78-.622.78.043 0-.059.122-.2.282-.14.16-.237.32-.237.36.02.038-.102.18-.262.3-.18.14-.281.297-.238.38.039.12.02.14-.102.1-.098-.042-.14 0-.098.157.02.16 0 .203-.12.16-.141-.059-.2.043-.16.262 0 .058-.063.078-.142.078-.16 0-.199.121-.18.402.02.059-.081.14-.198.18-.122.039-.2.101-.16.121.019.04-.04.137-.16.258-.102.12-.2.281-.2.36 0 .081-.043.16-.102.16-.058 0-.078.038-.058.1.039.06 0 .099-.102.099-.078 0-.18.082-.218.16-.04.101-.22.32-.422.52-.22.222-.34.421-.297.5.058.062.039.081-.043.042-.059-.043-.14 0-.18.078-.039.102-.098.18-.14.18-.06 0-.317.223-.618.52-.28.28-.601.52-.68.52a.39.39 0 00-.261.14c-.078.082-.34.199-.598.281-.422.121-.5.121-.703-.059-.238-.222-.379-.543-.437-1.023-.282-1.898 0-3.898.84-6.477.34-1 .417-1.14.699-1.257.84-.34 2.8-1.84 3.84-2.922.757-.758 2.097-2.578 2.097-2.82 0-.06.04-.118.102-.137.097-.043.597-1.082 1.02-2.141.238-.602.28-.879.3-1.719 0-.883-.02-1.062-.203-1.261-.578-.641-1.398-.7-2.36-.18-.257.14-.476.32-.476.402a.2.2 0 01-.14.18c-.102.039-.122.02-.063-.082.062-.14.062-.14-.098-.02-.101.078-.14.2-.12.239.038.062.019.082-.02.082-.141-.04-1.079.757-1.079.918 0 .062-.12.222-.261.363-.14.117-.219.277-.2.34.04.058.02.078-.039.039-.12-.082-.66.52-.66.719 0 .082-.062.18-.14.261-.102.059-.14.16-.102.219.02.059-.02.098-.098.098-.082 0-.242.12-.32.261-.16.239-.16.262 0 .262s.14.04-.062.117c-.22.121-1.157 1.54-1.157 1.782 0 .039-.043.078-.082.078-.101.02-.5.941-.48 1.082.02.039 0 .078-.059.078-.101 0-.859 1.62-.879 1.898 0 .102-.043.203-.082.203-.078 0-.418.7-.418.918 0 .141-.043.121-.203-.097-.437-.563-1.976-.903-2.699-.582-.617.261-1.258.718-1.777 1.3-.301.32-.559.622-.559.66 0 .04-.082.18-.203.32-.117.118-.18.278-.16.321.043.059.023.098-.04.098-.077 0-.12.082-.257.52-.02.019-.102.16-.203.32-.2.32-.418 1.12-.36 1.3.043.079.02.18-.019.2-.098.12-.121.941 0 1.281.062.2.34.559.64.84zm8.738-8.078c.238-.563 1.82-3.762 2.039-4.14.121-.2.262-.38.32-.4a.152.152 0 00.098-.14c0-.2 1.742-2.5 2.242-2.96.32-.259.957-.599 1.2-.599.257 0 .28.22.12 1.059-.082.32-.14.64-.14.7a.454.454 0 01-.102.198.462.462 0 00-.078.262c0 .121-.16.52-.36.918-.402.781-.44.903-.241.781.062-.039.082-.02.039.059-.04.063-.137.082-.2.043-.058-.043-.078.02-.039.18.02.117.02.199 0 .18-.101-.102-.46.359-.422.519.043.058-.039.16-.136.2a.608.608 0 00-.32.28c-.18.399-.383.72-.52.84-.121.098-.121.098 0-.082.078-.12-.082.02-.32.32-.66.739-1.36 1.399-1.48 1.399-.06 0-.083.082-.04.16.04.102 0 .14-.102.102-.078-.04-.16-.02-.16.02 0 .058-.14.16-.3.237-.18.082-.317.204-.317.301 0 .082-.043.121-.101.082-.059-.02-.16.04-.243.16-.078.118-.18.18-.218.141-.04-.043-.079-.023-.079.059 0 .058-.019.097-.082.097-.039-.02-.18.024-.3.102-.278.16-.278.14.242-1.078zm-6.418 3.437c1.02-1.02 1.2-1.14 2.058-1.46.5-.18.801-.098 1 .261.122.258.122.32-.082.621-.117.18-.257.34-.316.34-.043 0-.082.059-.043.137.043.101-.039.183-.2.222-.14.02-.257.098-.257.16 0 .079-.262.38-.582.7-.398.379-.559.62-.52.738.06.121.04.14-.078.043-.12-.102-.18-.102-.242-.023-.039.082-.039.14 0 .18.02.042-.18.28-.46.562-.298.258-.52.578-.52.699 0 .14-.02.16-.098.039-.082-.121-.121-.098-.242.082-.078.117-.18.219-.258.219-.16 0-.379.281-.281.34.058.039.039.039-.04.02-.058-.02-.218.058-.359.179-.3.262-.3.262-.3-.098 0-1.02.96-3.12 1.82-3.96zm0 0" fill="#44beb8"/><path d="M102.309 98.093l.02.957.523.622c.297.32.656.64.797.68.36.1.383.1.742-.06.457-.199 1.86-1.738 1.86-2.019 0-.082.038-.14.097-.14.043 0 .223-.282.383-.622.297-.617.32-.636.699-.636.379 0 1.36-.16 1.66-.282a.78.78 0 01.258-.082c.32-.039.68-.199.68-.277 0-.04.062-.102.14-.102.2 0 1.38-.578 1.918-.96.563-.36.602-.618.121-.54-.199.04-.398.122-.48.18-.059.043-.16.063-.219.02-.058-.04-.121-.02-.121.043 0 .058-.078.117-.18.117-.097 0-.46.14-.82.3-.34.16-.66.282-.7.262-.038-.043-.077 0-.077.059s-.082.082-.16.039c-.083-.04-.16-.02-.16.043 0 .059-.18.137-.38.2-.222.038-.48.097-.562.116-.438.102-.938.141-.938.043 0-.043.059-.3.16-.543.36-1.02.438-2.117.22-2.836-.301-.882-.68-1.222-1.641-1.441-.38-.102-.52-.078-.88.102-.237.117-.46.277-.5.34-.058.058-.081.078-.081.038 0-.101-.54.442-.54.54 0 .039-.038.12-.116.199-.16.16-.204.441-.063.441.082 0 .04.059-.059.14-.16.118-.199.24-.14.7.039.52.02.578-.52 1.398-.3.461-.558.922-.558 1a.51.51 0 01-.121.301c-.082.078-.102.121-.059.121.04 0 0 .137-.082.297-.102.18-.14.582-.121 1.242zm3-5.5c.46-.48 1.16-.699 1.52-.48.18.101.199.223.199.68-.02.68-.078 1.222-.2 1.52a8.9 8.9 0 01-.218.542c-.082.2-.102.317-.04.297.04-.04.118 0 .16.062.04.079.04.098-.023.06-.117-.08-.379.179-.277.26.02.04-.04.16-.16.278-.18.18-.2.18-.559 0-.183-.098-.46-.3-.601-.437-.239-.262-.239-.282-.059-.563.238-.398.777-.879.957-.879.102 0 .14-.058.102-.16a.65.65 0 01-.059-.2c0-.1-.64-.359-.902-.359-.36 0-.32-.12.16-.62zm-1.8 5.18a.53.53 0 00.081-.262c.04-.257.879-1.898.961-1.898.059 0 .16.082.238.18.082.082.34.3.582.46.36.239.418.34.38.56a.563.563 0 01-.243.378c-.117.063-.18.16-.137.223.04.039 0 .097-.082.097-.101 0-.101.02.02.102.14.078.121.101-.04.101-.1 0-.16.04-.12.098.039.059 0 .121-.059.121-.16 0-.46.418-.422.559.02.062 0 .082-.039.039-.058-.04-.219.043-.36.203-.16.16-.398.36-.519.418-.281.18-.32.16-.34-.04-.02-.378.04-1.241.098-1.339zm0 0" fill="#44beb8"/><path d="M112.208 95.394c.18-.601.34-1.14.359-1.2.02-.062.2-.542.398-1.062.52-1.296.5-1.558-.097-1.777-.281-.101-.36-.082-.543.117-.36.383-1.04 1.922-1.559 3.52-.258.8-.3 2.742-.078 3.379.078.281.2.5.258.5.062 0 .101.062.101.12 0 .18.72.981.938 1.06.621.222 1.14-.22 2.14-1.797.36-.54.743-1.141.86-1.34.121-.18.742-1.262 1.36-2.36.62-1.12 1.199-2.18 1.3-2.34.102-.18.52-.96.942-1.761.68-1.34.84-1.758.66-1.758-.121 0-.422.2-.301.219.039 0-.04.082-.18.199-.16.121-.281.3-.281.383 0 .058-.102.199-.219.277-.14.102-.199.223-.14.3.039.083.039.102-.059.04-.102-.059-.121-.04-.082.082.039.121.02.16-.102.098-.136-.04-.156-.02-.097.12.039.102.02.16-.04.122-.062-.04-.1-.02-.1.039 0 .062-.102.219-.22.34-.12.12-.199.28-.16.36.02.062-.02.16-.101.179-.078.043-.16.14-.16.222 0 .098-.04.16-.098.16-.043 0-.063.079-.02.18.04.117.02.16-.082.078-.101-.058-.12-.039-.078.102.04.098.04.16-.023.117-.078-.058-.477.66-.438.82 0 .043-.02.063-.082.043-.058-.023-.097.02-.117.079 0 .058-.082.14-.16.199-.082.039-.14.12-.102.16.02.039-.039.18-.16.3-.121.122-.2.282-.2.34 0 .06-.058.102-.12.102-.059 0-.098.059-.059.137.02.082-.039.203-.14.262a.433.433 0 00-.2.34c0 .14-.058.199-.12.14-.098-.04-.122 0-.079.16.04.117.02.2-.062.2-.059-.02-.118.078-.137.199-.024.14-.082.218-.121.199-.063-.04-.121 0-.16.101-.04.102-.02.141.058.079.082-.04.102-.02.04.062a.299.299 0 01-.22.117.16.16 0 00-.16.16c0 .082-.039.141-.097.141-.063 0-.102.102-.102.223 0 .136-.039.199-.12.156-.06-.059-.099.023-.079.16.04.203 0 .242-.14.223-.102-.02-.18.039-.18.117 0 .082-.16.3-.36.48-.199.203-.36.403-.32.422.02.04-.14.16-.34.278-.5.261-.582.12-.5-.899.102-1.238.121-1.277.48-2.418zm6.895 4.039c.12.04.262.059.34.078.16 0 1.422-.398 1.48-.5.04-.039.219-.18.422-.32.219-.137.438-.32.54-.398 1.058-.918 1.616-1.461 1.577-1.54 0-.039.02-.062.063-.019.136.078 1.836-1.66 1.738-1.781-.04-.04-.02-.059.039-.02.059.04.219-.039.34-.199.262-.34.121-.46-.18-.18-.12.098-.34.278-.48.38-.16.1-.258.238-.219.3.039.04-.082.121-.262.16-.18.04-.32.117-.32.219 0 .082-.04.121-.078.082-.059-.023-.36.219-.7.52-.32.32-.581.539-.581.5 0-.043-.059 0-.118.097-.062.102-.16.16-.203.14-.058-.038-.097-.038-.097.02-.02.14-.5.64-.66.68a.95.95 0 00-.262.18c-.059.101-.2.16-.297.16-.121 0-.18.062-.16.14 0 .082-.02.122-.063.102-.097-.062-.777.277-.719.36.04.038-.12.058-.82.078-.539.039-.738-.06-.879-.438-.3-.82-.058-1.922.68-3.14.02-.04.18-.02.34.078.441.222.941.183 1.558-.118.743-.36 1.16-.82 1.34-1.48.14-.442.14-.64.04-.922-.157-.496-.86-.977-1.337-.938-.382.06-1.101.399-1 .5.059.06-.12.098-.203.06-.02-.02-.258.198-.558.48-.66.64-1.18 1.421-1.22 1.78-.019.138-.062.24-.1.2-.141-.082-.438 1.18-.438 1.898 0 .622.058.86.34 1.48.359.782.738 1.24 1.117 1.321zm.8-5.3c.239-.34.981-.958 1.419-1.2.402-.219.64-.16.62.14 0 .141-.077.282-.14.302-.078.039-.098.117-.078.218.059.121.02.141-.102.102-.117-.063-.18-.02-.14.078.023.082 0 .14-.02.14-.039.02-.258.122-.52.262-.257.118-.66.258-.878.278l-.399.039zm0 0" fill="#44beb8"/><path d="M124.823 100.71c-.183 1.044-.023 1.52.72 2.223.48.457.64.54.98.54.578 0 1-.321 1.797-1.36.14-.203.3-.402.34-.422.062-.039.46-.68.761-1.18.3-.46 3.68-5.437 4-5.84.2-.257.36-.539.36-.597 0-.238-.34-.34-.622-.18-.16.078-.218.14-.16.14.059.02.02.06-.078.118-.101.062-.18.18-.18.262 0 .078-.12.258-.242.379-.14.14-.36.402-.5.601-.14.2-.3.418-.36.48-.218.239-1.1 1.419-1.1 1.477 0 .024-.098.14-.2.242-.098.098-.258.32-.379.48-.12.18-.32.438-.46.599-.141.16-.2.34-.16.421.042.079.042.098-.02.059-.098-.102-.778.82-.778 1.039 0 .082-.082.14-.16.14-.082 0-.16.102-.16.22 0 .101-.063.242-.16.261a.267.267 0 00-.14.219c0 .082-.04.121-.102.101-.079-.062-.438.301-.38.38.04.019-.058.1-.218.179-.14.082-.262.2-.262.262 0 .058-.16.199-.36.297l-.359.183v-.34c0-.203.16-.82.36-1.402.219-.578.441-1.2.5-1.418.058-.2.16-.379.199-.422.04-.02.223-.5.422-1.039.558-1.66.418-3.039-.383-3.797l-.297-.261.258-.34c.14-.18.402-.5.582-.739.34-.441 1.078-1.68 1.18-1.98.097-.36.039-1.262-.121-1.48-.141-.22-.801-.52-1.16-.52-.461 0-1.141.52-1.18.898 0 .063-.059.102-.14.102-.2 0-.661.598-.52.7.062.038.02.1-.121.14-.118.039-.2.101-.16.16.042.059 0 .098-.06.098-.058 0-.077.043-.058.101.04.04-.02.121-.101.16-.141.04-.16.078-.04.239.141.14.122.16-.019.101-.14-.058-.2.04-.3.461-.16.64-.102 1 .261 1.52.2.277.238.418.16.52-.082.097-.043.218.2.46.277.277.359.317.48.2.379-.301.637.238.418.878-.102.281-.102.418-.02.5.102.102.102.121 0 .059-.058-.04-.16.082-.238.281-.383.98-.684 1.719-.762 1.84-.058.059-.078.16-.039.2.04.038 0 .14-.082.218-.18.223-.48 1.223-.637 2.18zm1.7-8.156c-.18.04-.18.02 0-.36.359-.78.859-1.558 1.18-1.878.34-.3.34-.3.257-.043-.039.14-.14.34-.219.422a.651.651 0 00-.14.36c0 .1-.04.16-.078.12-.082-.082-.723.86-.782 1.137a.305.305 0 01-.218.242zm0 0" fill="#44beb8"/><path d="M44.783 132.174c.613.36 1.45.598 2.274.598.64-.008 1.304-.172 1.8-.528.461-.332.778-.828.758-1.527-.043-1.441-1.687-1.934-2.84-2.242-.757-.215-1.328-.57-1.285-1.211.024-.332.153-.59.348-.766.308-.28.762-.402 1.219-.394.972.02 1.757.785 1.937 1.441h.18l-.25-1.254c-.586-.273-1.098-.398-1.875-.398-.649 0-1.192.16-1.594.433-.484.332-.707.829-.691 1.32.027.684.41 1.06.914 1.313.46.223 1.015.352 1.492.504.879.29 1.644.727 1.61 1.621-.044.989-.844 1.465-1.774 1.485-.945.007-1.899-.676-2.172-1.672l-.164.015zm5.83.376v.128h1.671v-.129c-.324-.05-.418-.203-.425-.355a342.21 342.21 0 010-5.664c.007-.137.101-.325.425-.375v-.125a39.76 39.76 0 00-1.671 0v.125c.324.05.382.207.425.375.02 1.867.02 3.77 0 5.644-.043.172-.101.324-.425.375zm2.557.128h1.41v-.129c-.395-.008-.618-.23-.606-.613l.074-5.125c.157.597.95 1.781 1.844 2.543 1.363 1.14 2.754 2.558 2.883 3.316h.203l.094-5.902c0-.406.246-.586.597-.613v-.125h-1.382v.125c.394.007.57.23.562.613l-.058 4.539c-.301-.77-1.356-1.629-2.301-2.508-.942-.863-1.723-2.055-1.88-2.77h-1.32v.204c.36.023.547.21.54.605l-.07 5.098c-.009.41-.239.59-.59.613zm7.29-3.258c0 1 .317 1.875.887 2.473.528.562 1.297.894 2.25.879.82-.008 1.707-.145 2.422-.535l.23-1.246h-.136c-.355.96-1.148 1.507-2.191 1.566-.93.043-1.688-.281-2.157-1.113-.347-.625-.484-1.41-.468-2.153.05-1.574.742-3.136 2.53-3.168.302 0 .556.016.856.125.614.23 1.055.72 1.192 1.203h.18l-.204-1.132c-.668-.317-1.261-.418-1.996-.418-.777.015-1.586.203-2.168.68-.816.667-1.226 1.75-1.226 2.84zm6.54-3.246c.437.031.437.168.437.332v5.508c0 .289-.035.477-.438.535v.129h5.016l.23-1.133h-.207c-.281.793-.824.938-2.566.953-.45 0-.774.02-1.227 0-.015-.96-.015-2.507-.015-3.468l1.457-.008c.367.015.629.27.691.562h.125l.012-1.355h-.137a.704.704 0 01-.691.613l-1.457.008c0-1.074.015-1.559.015-2.633.426-.02.715-.012 1.168 0 1.551.016 2.235.211 2.438.7l.187-.028-.21-.86h-2.43c-.426 0-.743-.011-1.153-.011l-.894.012h-.352zm11.945 3.152H75.62v.368h3.325zm3.353-1.523l.75-.648v5.02c-.02.194-.137.323-.461.374v.129c.511.008 1.195.008 1.714 0v-.129c-.324-.05-.437-.203-.445-.355v-6.133l-1.566 1.5zm4.507 2.375c.461.012.98-.168 1.29-.52l-.095.301c-.253.836-.683 1.68-1.414 2.207-.382.274-.793.41-1.382.477v.129c.152.008.308 0 .46-.008.915-.059 1.747-.547 2.344-1.227.64-.734 1.024-1.793 1.051-2.789.023-1.203-.426-2.718-1.953-2.703-1.246.008-1.918 1.117-1.945 2.192-.016.988.503 1.925 1.644 1.941zm-.773-2.172c0-.726.382-1.715 1.109-1.738.895-.035 1.063 1.25 1.09 1.96.016.4 0 .716-.067 1.09-.3.376-.66.54-1.007.52-.778-.023-1.133-.937-1.125-1.832zm4.247-.844c.312-.382.605-.418.937-.418l2.13-.007c-1.243 1.398-2.653 4.414-2.915 5.949h.836c.262-1.703 1.227-4.867 2.684-6.375v-.149h-3.664l-.188 1zm6.016 3.016c.46.012.98-.168 1.289-.52l-.094.301c-.254.836-.684 1.68-1.414 2.207-.383.274-.793.41-1.383.477v.129c.152.008.309 0 .461-.008.914-.059 1.746-.547 2.344-1.227.64-.734 1.023-1.793 1.05-2.789.024-1.203-.425-2.718-1.953-2.703-1.246.008-1.918 1.117-1.945 2.192-.015.988.504 1.925 1.645 1.941zm-.774-2.172c0-.726.383-1.715 1.11-1.738.894-.035 1.062 1.25 1.09 1.96.015.4 0 .716-.067 1.09-.3.376-.66.54-1.008.52-.777-.023-1.133-.937-1.125-1.832zm0 0" fill="#f4abaa" fill-opacity=".4"/><path d="M44.406 131.797c.614.36 1.45.598 2.274.598.64-.008 1.305-.172 1.8-.527.462-.332.778-.828.758-1.528-.043-1.441-1.687-1.933-2.84-2.242-.757-.215-1.328-.57-1.285-1.21.024-.333.153-.59.348-.766.309-.282.762-.403 1.219-.395.972.02 1.758.785 1.937 1.441h.18l-.25-1.253c-.586-.274-1.098-.399-1.875-.399-.648 0-1.191.16-1.594.434-.484.332-.707.828-.691 1.32.027.684.41 1.059.914 1.312.46.223 1.016.352 1.492.504.879.29 1.645.727 1.61 1.621-.043.989-.844 1.465-1.774 1.485-.945.008-1.898-.676-2.172-1.672l-.164.016zm5.83.375v.13h1.672v-.13c-.325-.05-.418-.203-.426-.355a342.21 342.21 0 010-5.664c.008-.137.101-.324.426-.375v-.125a39.76 39.76 0 00-1.672 0v.125c.324.05.383.207.426.375.02 1.867.02 3.77 0 5.644-.043.172-.102.325-.426.375zm2.557.129h1.41v-.129c-.395-.007-.617-.23-.606-.613l.075-5.125c.156.598.949 1.781 1.843 2.543 1.364 1.14 2.754 2.559 2.883 3.316h.203l.094-5.902c0-.406.246-.586.598-.613v-.125H57.91v.125c.394.008.57.23.562.613l-.058 4.54c-.301-.77-1.356-1.63-2.301-2.509-.941-.863-1.723-2.054-1.879-2.77h-1.32v.204c.36.023.547.21.539.605l-.07 5.098c-.008.41-.239.59-.59.613zm7.291-3.258c0 1 .316 1.875.887 2.473.527.563 1.296.895 2.25.879.82-.008 1.707-.145 2.421-.535l.231-1.246h-.137c-.355.96-1.148 1.508-2.191 1.566-.93.043-1.688-.281-2.156-1.113-.348-.625-.485-1.41-.47-2.152.052-1.575.743-3.137 2.532-3.168.3 0 .555.015.856.125.613.23 1.054.718 1.191 1.203h.18l-.203-1.133c-.668-.317-1.262-.418-1.997-.418-.777.016-1.586.203-2.168.68-.816.668-1.226 1.75-1.226 2.84zm6.538-3.246c.438.032.438.168.438.332v5.508c0 .29-.035.477-.438.535v.13h5.016l.23-1.134h-.207c-.28.793-.824.938-2.566.954-.45 0-.773.02-1.227 0-.015-.961-.015-2.508-.015-3.47l1.457-.007c.367.016.629.27.691.562h.125l.012-1.355h-.137a.704.704 0 01-.691.613l-1.457.008c0-1.074.015-1.558.015-2.633.426-.02.715-.011 1.168 0 1.551.016 2.235.211 2.438.7l.187-.028-.21-.86h-2.43c-.426 0-.742-.01-1.153-.01l-.894.01h-.352zm11.946 3.153h-3.324v.367h3.324zm3.352-1.524l.75-.648v5.02c-.019.195-.136.324-.46.374v.13a70.03 70.03 0 001.715 0v-.13c-.325-.05-.438-.203-.446-.355v-6.133l-1.566 1.5zm4.508 2.375c.461.012.98-.168 1.29-.52l-.094.301c-.254.836-.684 1.68-1.414 2.208-.383.273-.793.41-1.383.476v.129c.152.008.308 0 .46-.008.915-.058 1.747-.547 2.344-1.226.641-.735 1.024-1.793 1.051-2.79.024-1.203-.426-2.718-1.953-2.703-1.246.008-1.918 1.118-1.945 2.192-.016.988.504 1.926 1.644 1.941zm-.773-2.172c0-.726.383-1.714 1.11-1.738.894-.035 1.062 1.25 1.09 1.961.015.398 0 .715-.067 1.09-.301.375-.66.539-1.008.52-.777-.024-1.133-.938-1.125-1.833zm4.247-.843c.313-.383.606-.418.938-.418l2.129-.008c-1.243 1.398-2.653 4.414-2.915 5.949h.836c.262-1.703 1.227-4.867 2.684-6.375v-.148H89.91l-.188 1zm6.016 3.015c.46.012.98-.168 1.289-.52l-.094.301c-.254.836-.683 1.68-1.414 2.208-.383.273-.793.41-1.383.476v.129c.153.008.309 0 .461-.008.914-.058 1.746-.547 2.344-1.226.64-.735 1.023-1.793 1.05-2.79.024-1.203-.425-2.718-1.952-2.703-1.246.008-1.918 1.118-1.946 2.192-.015.988.504 1.926 1.645 1.941zm-.774-2.172c0-.726.383-1.714 1.11-1.738.894-.035 1.062 1.25 1.09 1.961.015.398 0 .715-.067 1.09-.3.375-.66.539-1.008.52-.777-.024-1.132-.938-1.125-1.833zm0 0" fill="#44beb8"/></svg>