<svg xmlns="http://www.w3.org/2000/svg" width="200" viewBox="0 0 150 150" height="200" version="1.0"><defs><clipPath id="a"><path d="M1.082 3.5h147.75v143.25H1.082zm0 0"/></clipPath></defs><g clip-path="url(#a)"><path fill="#787270" d="M148.45 39.227c.796-8.442-3.458-17-9.9-20.11-.976-2.52-2.452-4.265-3.902-5.453-4.64-3.879-11.523-4.324-15.632-2.754-1.536.594-2.868 1.422-3.93 2.488-3.133-1.242-6.41-1.421-9.574-.472a6.124 6.124 0 00-.028-2.074c-.562-2.727-2.367-4.77-5.293-5.922-6.707-2.668-17.582-.09-23.136 3.879-10.52-.95-20.89.445-30.848 4.207a69.21 69.21 0 00-23.406 14.66 68.388 68.388 0 00-15.336 21.71C-.098 66.122-.633 84.813 5.93 101.935c6.59 17.207 19.504 30.863 36.406 38.414 9.102 4.058 18.734 6.101 28.426 6.101 8.304 0 16.636-1.508 24.644-4.531 17.227-6.516 30.938-19.25 38.563-35.957 3.812-8.293 5.879-17.09 6.207-25.945.117-.032.234-.09.293-.211 2.484-2.754 4.492-6.395 5.703-10.22 1.273-3.995 1.508-7.878.652-10.929-.918-3.285-3.015-5.535-6.117-6.543 4.461-2.695 7.18-7.168 7.742-12.886zm-28.93-26.985c3.722-1.422 9.957-1.004 14.183 2.52 3.399 2.843 4.875 7.199 4.285 12.675a8.464 8.464 0 00-.945-1.066c-3.488-3.465-8.719-4.383-14.39-2.547-1.036-.86-2.22-1.449-3.489-1.687-2.039-.356-3.93.324-5.348 1.957 0 0 0 .027-.03.027-.15-.027-.294-.027-.415-.027-.973-5.512 1.36-10.043 6.149-11.852zm15.718 37.086c-.648 5.067-2.953 8.738-6.883 10.93-3.812 2.101-7.625 2.637-11.378 1.512-4.079-1.215-7.918-4.387-10.813-8.86 1.297.535 2.688.8 4.164.8a14.21 14.21 0 003.902-.562c3.16-.886 5.82-2.636 7.211-3.671 2.215-.239 4.961-1.157 7.356-3.97 2.484-.386 4.64-1.124 6.383-2.222.18 1.215.386 3.496.058 6.043zm3.489 28.492a25.697 25.697 0 01-4.493-3.582c1.684-2.133 2.809-4.058 3.813-6.281.473 3.29.68 6.578.68 9.863zm-4.168-21.797c-1.301 4.235-3.25 7.61-5.465 11.106-.797-1.688-1.301-3.375-1.418-4.945a29.5 29.5 0 001.36-.684c2.362-1.332 4.222-3.168 5.523-5.477zm1.093 1.301c.828 2.668 1.508 5.364 1.98 8.059-1.269 2.93-2.394 5.242-4.402 7.82a25.524 25.524 0 01-3.367-4.594c2.305-3.582 4.344-6.988 5.79-11.285zm3.106 6.16c-.504-2.398-1.156-4.765-1.895-7.105 3.844 2.871 6.918 6.101 8.809 9.27-.266 1.687-.738 3.406-1.39 5.124-1.536-2.398-3.075-4.53-5.524-7.289zM94.934 27.5c.265 2.605 1.449 5.121 3.488 7.227-.473 1.066-.8 2.191-.918 3.347-.563 4.707 1.656 9.832 5.676 13.031.144.118.324.239.472.356 1.18 2.16 2.54 4.117 4.075 5.805-6.41-.473-12.793-5.211-15.66-11.848-2.747-6.277-1.684-12.738 2.867-17.918zm3.722-13.184c-.297-.117-.59-.265-.886-.382-2.008-.832-4.047-1.602-6.118-2.223-.324-.414-.62-.828-.914-1.215-1.152-1.539-2.097-2.844-3.843-4.414 2.218-.531 4.492-.86 6.68-.86 2.718 2.61 4.64 6.489 5.081 9.094zm-9.308-3.285a68.1 68.1 0 00-10.016-1.984c1.711-.98 3.723-1.84 5.91-2.488 1.95 1.628 2.926 2.87 4.106 4.472zm-.707 1.274c-1.567.945-3.637 1.863-7.004 2.633-1.153-1.45-2.157-2.989-2.926-4.56a74.426 74.426 0 019.93 1.927zm1.832.53c1.918.563 3.812 1.247 5.672 1.985-2.688 2.043-6.176 3.524-10.196 4.325-.058-.028-.086-.06-.148-.118-1.09-.828-2.125-1.808-3.102-2.875 3.192-.77 5.528-1.777 7.774-3.316zm7.18 2.606c.648.27 1.269.563 1.921.86a14.59 14.59 0 00-2.277 2.61 16.227 16.227 0 00-1.625 3.077c-2.363.684-5.172.059-8.098-1.718 3.992-.977 7.45-2.633 10.078-4.829zm26.445 12.797c1.093 2.903 0 4.325-1.063 5.54-.265-.532-.562-1.067-.887-1.66.059-2.22-.5-4.263-1.3-5.477-.59-.918-1.328-1.422-2.125-1.485-1.067-.117-1.832.594-1.922.684-.59-.059-1.332.027-2.215.445-.063.027-.121.059-.18.086a2.34 2.34 0 01.563-1.36c1.36-1.57 2.926-1.66 3.988-1.484 2.156.418 4.227 2.282 5.14 4.711zm1.539 4.149c2.187 2.781 5.11 7.847 2.125 12.054-2.512 2.961-5.438 3.582-7.504 3.582h-.117c-1.922-.027-3.696-.62-4.907-1.332 3.871-.62 6.739-2.28 8.098-4.796.766-1.422 1.3-3.645.266-6.665.086-.09.148-.18.234-.27.621-.62 1.39-1.448 1.805-2.573zm-21.278 5.687c.711.77 1.567 1.242 2.512 1.508.977 1.688 2.453 2.637 4.375 2.816.176.028.352.028.559.028 3.254 0 6.855-2.25 8.453-4.5a9.466 9.466 0 001.508-3.348c1.18 2.574 1.3 4.856.293 6.664-1.477 2.696-5.317 4.324-10.34 4.324h-.059c-3.254 0-5.469-.828-6.62-2.457-1.036-1.629-.915-3.703-.68-5.035zm10.786-10.488c.859-.383 1.566-.441 2.07-.117.68.445.945 1.39.945 1.953v.09c.059.472-.031 1.039-.297 1.66a3.891 3.891 0 00-1.12-.445 4.528 4.528 0 00-.86-.09c-.68 0-1.27.18-1.774.328l-.617.176c-.265.058-.504 0-.62-.176-.18-.207-.18-.504-.06-.832.415-.918.973-1.922 2.333-2.547zm-1.653 7.348c-.207-.95.352-2.016.617-2.461.149-.028.297-.086.446-.118.62-.175 1.21-.382 1.863-.207.383.09.617.207.766.325-.739 1.156-1.86 2.37-3.16 3.406-.266-.293-.446-.59-.532-.945zm6.117-5.57c-.03-.919-.414-2.044-1.214-2.786h.148c.445.063.828.504 1.066.86 1.27 1.925 1.684 6.488-.535 9.597-1.476 2.074-4.933 4.117-7.71 3.88-1.063-.087-1.923-.5-2.602-1.212a9.24 9.24 0 002.218-.476c4.579-1.598 9.07-6.754 8.63-9.864zm-6.53-3.88c-.208.739-.18 1.422-.09 1.836-.77.742-1.212 1.598-1.477 2.25-.356.832-.239 1.72.293 2.313.207.234.445.414.742.531-.328.742-.652 1.777-.414 2.816a3 3 0 00.765 1.45c-.765.472-1.535.89-2.363 1.156-1.832.652-4.312.86-5.851-1.809-.887-1.507-.207-4.265 1.597-6.691 1.508-1.984 4.02-3.91 6.797-3.852zm-9.782 10.989c-.356 1.066-1.274 4.68.621 7.406 1.418 2.043 4.047 3.078 7.8 3.078h.06c.5 0 .976-.027 1.449-.059 1.09 1.098 3.128 2.164 5.703 2.461-3.578 2.25-9.664 4.797-14.836.59-3.633-2.933-5.645-7.523-5.14-11.758.292-2.34 1.444-5.421 5.081-7.968-1.21 2.34-1.508 4.652-.738 6.25zm26.476 7.347c2.332-5.183-1.625-10.785-3.78-13.3 0-.801-.15-1.72-.563-2.786a9.818 9.818 0 00-1.625-2.785c4.875-1.36 9.277-.531 12.234 2.403 2.598 2.574 3.574 6.367 2.45 9.683-1.122 3.465-4.196 5.836-8.716 6.785zm-15.722-29.297c-1.95 2.52-2.719 5.895-2.098 9.598-2.39.297-4.492 1.746-5.996 3.406-3.074 1.453-5.379 3.465-6.828 5.864-4.168-4.618-3.133-10.008-.649-13.625 2.954-4.352 8.98-7.641 15.57-5.243zm-9.989-3.406c.149.711.09 1.512-.144 2.34v.031c-1.125.473-2.16 1.094-3.133 1.805a5.566 5.566 0 01-.62-.293c-.177-2.902-2.071-6.844-4.552-9.688 1.45.149 2.836.446 4.047.918 2.485.977 3.961 2.606 4.403 4.887zm-9.16 129.469c-35.015 13.21-74.347-4.356-87.644-39.156-6.41-16.797-5.88-35.07 1.476-51.45C16.152 33.422 29.63 20.773 46.68 14.348c9.808-3.703 20.004-5.094 30.375-4.118 1.656 3.704 4.55 7.407 7.89 9.954 3.016 2.308 6.059 3.523 8.778 3.523.5 0 1.004-.059 1.476-.117a13.39 13.39 0 00-.297 1.863c-5.82 5.777-7.355 13.27-4.195 20.586 3.25 7.496 10.727 12.738 18.027 12.738h.414c2.247 2.075 4.758 3.582 7.387 4.383 1.418.414 2.867.653 4.313.653 1.804 0 3.636-.356 5.437-1.008.738 5.925 5.942 12.945 12.383 16.707-.86 26.418-17.434 51.152-43.766 61.074zm45.301-62.645c.031-3.882-.293-7.761-.914-11.613 1.774 2.133 3.012 3.969 4.313 6.074a28.521 28.521 0 01-3.399 5.54zm-.086-24.496c2.746.86 4.52 2.754 5.317 5.63.355 1.3.472 2.753.414 4.292-2.305-3.226-5.672-6.457-9.723-9.242.86-.234 1.684-.531 2.484-.887a4.02 4.02 0 011.508.207zm-4.11-.8c.298-1.008.532-2.075.68-3.2.415-3.285 0-6.07-.175-7.136 1.593-1.305 2.777-2.934 3.398-4.829.883-2.695.59-5.656-.68-8.207.56-3.285.473-5.98-.062-8.23 5.262 3.285 8.57 10.691 7.89 18.008-.68 6.781-4.699 11.668-11.05 13.594zm0 0"/></g><path d="M13.85 71.24c1.13 2.93 2.06 3.852 4.45 4.583.785.207 1.82.386 2.223.367 3.91-.207 4.87-.336 4.883-.532.007-.101.57-.257 1.28-.406 1.165-.21 3.391-1.242 6.15-2.73 1.51-.836 5.452-3.387 5.78-3.762.165-.187.743-.594 1.266-.902 1.68-1.075 5.3-4.047 9.797-8.008 4.172-3.68 5.113-4.906 3.578-4.426-.355.125-.703.098-.797-.008-.094-.11-.094-.058-.012.149.086.207.024.351-.222.332-.2-.016-.461.117-.578.355-.067.196-.325.328-.469.266-.2-.016-.356.074-.316.226.035.204-.122.29-.364.172-.336-.176-.39-.129-.261.13.18.312.078.308-.211.183-.336-.172-.754.043-1.454.691-.585.504-.906.781-.792.59.109-.14.074-.293-.079-.305-.148-.011-.355.121-.476.364-.113.191-.328.375-.477.363-.199-.016-.722.297-1.199.66-.48.41-.945.625-.992.574-.09-.11-.152.04-.168.235-.02.25-.133.441-.227.382-.39-.128-2.527 1.06-2.715 1.547-.07.243-.277.38-.37.27-.145-.059-.665.2-1.149.664-.531.41-1.004.723-1.055.719-.097-.008-.105.093-.066.246-.012.148-.063.144-.207.082-.188-.164-.867.234-4.07 2.293-.208.133-.688.496-1.06.82-.37.27-.788.488-.886.48-.289-.12-2.203.735-2.222.981-.008.102-.165.188-.364.176-.199-.016-.402.066-.465.215-.175.336-4.683 1.843-6.664 2.242-2.328.426-5.422.344-6.527-.192-.625-.347-.8-.66-1.062-1.828-.407-1.879-.231-3.562.574-5.652 2.73-7.04 10.222-14.316 18.484-17.89 2.582-1.102 4.586-1.852 6.059-2.141 1.468-.29 1.312-.2 1.59-1.227.316-1.574.285-1.777-.622-3.047l-.82-1.058-2.578.402c-1.414.246-2.977.426-3.379.445-1.398-.004-4.426-.28-5.601-.57-1.032-.227-1.125-.336-1.036-.879.344-1.871 5.57-6.273 10.778-9.078 1.457-.79 5.843-2.656 7.332-3.145 3.738-1.214 7.89-1.304 10.105-.187 1.254.594 1.39.754 1.332 1.55.016.45-.113.84-.265.829-.149-.012-.207.133-.13.39.083.254.024.352-.116.239-.282-.219-.903.734-.676 1 .144.11.09.156-.055.094-.144-.06-.3.027-.41.12-.059.145-.758.794-1.461 1.489-.703.695-1.25 1.355-1.207 1.457.09.105.035.203-.113.14-.387-.175-2.836 1.836-2.711 2.196.078.254-.024.297-.27.23-.191-.117-.496-.039-.707.145-.164.187-.48.363-.676.348-.3-.02-.421.27-.433 1.117-.02 1.547.21 1.816 1.242 1.394 1.754-.719 3.957-2.152 5.781-3.812 2.25-1.977 2.91-2.828 3.719-4.914.992-2.575.953-3.375-.5-5.985-.922-1.668-1.715-2.425-3.125-2.93-.781-.261-1.078-.28-1.246-.046-.168.238-.211.183-.195-.063.023-.3-.372-.379-1.774-.336a27.42 27.42 0 01-2.098-.008c-.195-.015-.304.079-.21.184.039.106-.364.172-.864.188-2.633-.2-12.039 3.937-15.707 6.906-.527.36-.953.68-1.05.672-.297-.024-1.43 1.09-1.301 1.351.043.102-.012.149-.153.035-.332-.222-3.242 2.555-4.093 3.942-.512.808-.657 1.398-.73 3.039-.231 3.73.526 5.637 2.546 6.637.34.125.379.28.176.312a.672.672 0 00-.336.527c-.016.196-.125.29-.27.227-.14-.11-.504.063-.781.441-.324.325-.64.551-.684.45-.183-.215-3.273 2.351-3.144 2.609.094.105-.059.145-.3.027-.337-.175-.395-.078-.317.227.078.254.008.55-.149.637-.207.086-.203.035-.09-.157.114-.14.075-.293-.074-.304-.152-.012-.308.078-.316.226-.012.149-.5.66-1.09 1.168-1.39 1.242-3.195 3.305-3.066 3.563.09.156-.02.3-.223.336-.563.156-2.371 2.918-3.613 5.52-2.13 4.386-2.23 7.726-.383 12.362zm41.897-18.036c.09.09.191.16.246.16.05 0 .367-.296.715-.648.332-.348.785-.75.996-.855.367-.207.367-.227.172-.332-.227-.121-.82-.051-.82.105 0 .055-.032.09-.067.055-.035-.035-.14 0-.246.086-.105.086-.14.105-.105.035.054-.086.035-.106-.051-.086-.07.031-.121.086-.121.156 0 .051-.035.121-.09.172-.05.035-.05.02-.016-.05.106-.177-.105-.122-.246.05a.995.995 0 01-.297.262c-.105.07-.172.16-.156.21.016.051-.035.106-.121.106-.125 0-.125.035-.035.207.07.106.172.281.242.367zm2.55 4.192c-.175.172-.331.363-.331.433s-.02.106-.055.07c-.035-.034-.137.036-.207.176-.09.122-.437.504-.77.856-.331.332-.574.644-.558.68.035.035 0 .05-.086.05s-.156.07-.156.141c0 .07-.055.14-.14.176a.152.152 0 00-.087.207c.031.07.016.105-.054.07-.051-.035-.122.035-.141.125a.446.446 0 01-.227.242c-.101.02-.156.086-.136.121.035.055-.036.125-.141.141-.105.035-.156.106-.121.156.05.09-.07.141-.246.106-.035 0-.07.02-.07.054 0 .157-.368.102-.47-.07-.105-.21-.09-1.555.016-1.922.036-.12.141-.468.227-.765.07-.317.176-.649.226-.735.036-.105.157-.437.282-.734.12-.313.363-.871.558-1.274.192-.402.348-.8.348-.89 0-.086-.121-.227-.281-.313-.278-.14-.293-.14-.59.121-.352.282-.719.875-.613.977.035.055.02.055-.051.02-.14-.086-.613.89-.524 1.046.036.051.016.07-.035.051-.054 0-.09.02-.105.055 0 .035-.07.242-.176.453-.73 1.746-.559 3.332.488 4.398.367.368.473.434.805.434.312 0 .437-.066.82-.434.242-.246.438-.488.438-.543 0-.07.05-.156.12-.19.141-.087.54-.63 1.083-1.45 1.238-1.902 1.621-2.703.96-2.04zm0 0" fill="#787270"/><path d="M64.701 49.208c-.054 0-.191.07-.332.157-.14.105-.312.21-.402.226-.106.035-.14.106-.121.16.035.051-.035.086-.176.086-.121 0-.262.07-.297.121a.518.518 0 01-.226.211c-.262.156-1.254 1.098-1.274 1.239-.015.07-.176.226-.332.347-.191.125-.297.262-.262.352.036.07.02.105-.015.07-.16-.09-1.504 1.656-1.52 1.938 0 .066-.015.12-.05.12-.09 0-.368.524-.317.575.02.035.02.055-.016.02-.07-.036-.84 1.394-.89 1.62 0 .07-.106.247-.227.422-.125.157-.191.328-.156.383.031.051.016.176-.035.278-.09.14-.07.175 0 .175.066 0 .05.051-.035.121-.09.055-.176.227-.211.387-.156.766-.211 1.184-.156 1.254.035.055.015.07-.036.035-.261-.156-.261 1.903 0 2.637.192.539.926 1.465 1.395 1.781.91.59 2.043.227 3.648-1.187.82-.7 1.887-1.832 1.832-1.922-.035-.051 0-.086.07-.086.157 0 1.415-1.535 1.364-1.676 0-.035.016-.05.066-.016.036.016.282-.23.524-.578.246-.332.558-.75.699-.925.14-.172.297-.368.352-.434.171-.211.296-.578.226-.649-.035-.035-.09-.015-.105.036a8.5 8.5 0 01-.403.507c-.21.227-.367.438-.367.47 0 .034-.05.07-.121.07-.07 0-.191.07-.262.16-.105.12-.105.136.016.066.07-.035.055.02-.066.125-.106.102-.211.227-.211.277 0 .07-.036.086-.086.055-.055-.035-.09-.02-.09.031 0 .055-.121.211-.278.368-.156.14-.28.316-.28.367 0 .07-.052.12-.137.156-.07.035-.106.09-.07.14.015.036 0 .087-.055.087-.122 0-.368.21-.368.316 0 .035-.226.262-.488.523-.262.262-.418.438-.348.403.086-.07.106-.055.07.015-.034.055-.14.106-.226.106-.07 0-.121.015-.09.05.055.055-.418.594-.523.594-.067 0-.399.352-.363.387.015.016-.141.156-.368.293-.226.14-.418.297-.418.332 0 .035-.125.106-.261.16-.16.051-.282.156-.282.242s-.05.106-.14.086a.15.15 0 00-.192.07c-.015.071-.086.141-.156.141-.086 0-.61.192-.976.383-.07.035-.317.07-.524.09-.422.016-.648-.156-.91-.684-.383-.695-.227-2.441.402-4.394.141-.438.176-.492.473-.543.871-.156 2.11-.715 3.262-1.485 3.437-2.32 5.238-6.246 3.281-7.187a1.73 1.73 0 00-1.324-.055c-.02.02-.07.02-.106 0zm1.395.75l.316.02-.02.594c-.015.453-.105.75-.347 1.253-.176.368-.316.72-.316.77 0 .05-.051.086-.102.086-.055 0-.07.035-.035.09.016.035-.02.101-.09.12-.086.036-.137.106-.137.157 0 .05-.07.156-.14.246-.07.07-.106.172-.07.227.015.05.015.07-.036.05-.12-.085-.347.176-.261.297.035.051 0 .086-.086.086-.07 0-.141.055-.141.106 0 .055-.035.07-.086.035-.09-.05-.14.086-.105.281.015.051 0 .051-.055.016-.035-.035-.156.035-.262.156-.12.14-.242.227-.277.227-.035 0-.14.105-.227.21-.105.106-.176.157-.176.141 0-.07-.402.242-.8.645-.125.105-.262.176-.297.156-.055-.035-.09 0-.09.055 0 .07-.035.086-.07.05-.032-.035-.157.02-.293.106a1.958 1.958 0 01-.367.227c-.09.035-.262.14-.422.246-.157.086-.348.172-.434.172-.09.02-.156.054-.156.105 0 .05-.035.086-.09.05-.035-.034-.227.02-.402.09-.418.172-.418.122 0-.769.593-1.187 1.87-3.105 2.601-3.855.07-.09.317-.332.524-.579.507-.539 1.78-1.535 2.27-1.742.21-.09.507-.14.679-.125zm0 0" fill="#787270"/><path d="M67.841 61.443c.106.035.227.054.297.07.137 0 1.238-.348 1.29-.438.034-.035.195-.156.366-.277.192-.12.383-.281.473-.351.926-.801 1.414-1.274 1.379-1.344 0-.035.016-.05.05-.016.122.07 1.606-1.449 1.52-1.554-.035-.036-.02-.051.035-.016.051.035.192-.035.297-.176.227-.297.106-.402-.156-.156-.105.086-.297.246-.422.332-.137.086-.226.207-.191.262.035.035-.07.105-.227.14-.156.035-.277.102-.277.192 0 .07-.035.105-.07.07-.055-.02-.317.191-.614.453-.277.277-.504.469-.504.434 0-.032-.054 0-.105.09-.05.085-.14.14-.176.12-.05-.035-.086-.035-.086.02-.015.121-.437.559-.574.59a.797.797 0 00-.23.16c-.051.086-.172.137-.262.137-.102 0-.156.055-.137.125 0 .07-.02.105-.055.086-.086-.051-.68.246-.629.312.036.035-.101.055-.714.07-.47.036-.645-.05-.766-.382-.262-.715-.055-1.676.594-2.738.015-.036.156-.02.297.066.382.195.82.16 1.359-.102.645-.316 1.012-.718 1.168-1.293.125-.382.125-.558.035-.8-.137-.438-.75-.856-1.168-.82-.332.05-.96.347-.87.433.05.055-.106.09-.177.055-.02-.02-.226.171-.488.418-.578.558-1.031 1.238-1.066 1.55-.016.125-.051.211-.086.176-.121-.07-.383 1.031-.383 1.66 0 .54.05.75.297 1.29.312.679.644 1.081.976 1.152zm.7-4.625c.207-.297.851-.836 1.238-1.047.347-.192.558-.14.539.12 0 .126-.07.247-.121.263-.07.035-.086.105-.07.195.05.101.019.121-.087.086-.105-.055-.156-.02-.125.07.02.07 0 .121-.015.121a8.774 8.774 0 00-.453.227c-.227.105-.578.226-.77.246l-.347.035zm0 0" fill="#787270"/><path d="M74.123 61.443c.105.035.227.054.297.07.137 0 1.238-.348 1.289-.438.035-.035.195-.156.367-.277.192-.12.383-.281.473-.351.926-.801 1.414-1.274 1.379-1.344 0-.035.015-.05.05-.016.122.07 1.606-1.449 1.52-1.554-.035-.036-.02-.051.035-.016.05.035.192-.035.297-.176.227-.297.105-.402-.156-.156-.106.086-.297.246-.422.332-.137.086-.227.207-.192.262.036.035-.07.105-.226.14-.156.035-.277.102-.277.192 0 .07-.036.105-.07.07-.055-.02-.317.191-.614.453-.277.277-.504.469-.504.434 0-.032-.055 0-.105.09-.051.085-.141.14-.176.12-.051-.035-.086-.035-.086.02-.016.121-.438.559-.574.59a.797.797 0 00-.23.16c-.052.086-.173.137-.263.137-.101 0-.156.055-.136.125 0 .07-.02.105-.055.086-.086-.051-.68.246-.629.312.035.035-.101.055-.715.07-.468.036-.644-.05-.765-.382-.262-.715-.055-1.676.593-2.738.016-.036.157-.02.297.066.383.195.82.16 1.36-.102.644-.316 1.011-.718 1.168-1.293.125-.382.125-.558.035-.8-.137-.438-.75-.856-1.168-.82-.332.05-.961.347-.871.433.05.055-.106.09-.176.055-.02-.02-.227.171-.488.418-.578.558-1.032 1.238-1.067 1.55-.015.125-.05.211-.086.176-.12-.07-.382 1.031-.382 1.66 0 .54.05.75.296 1.29.313.679.645 1.081.977 1.152zm.7-4.625c.206-.297.85-.836 1.237-1.047.348-.192.56-.14.54.12 0 .126-.07.247-.122.263-.07.035-.085.105-.07.195.05.101.02.121-.086.086-.105-.055-.156-.02-.125.07.02.07 0 .121-.015.121a8.774 8.774 0 00-.454.227c-.226.105-.578.226-.77.246l-.347.035zm0 0" fill="#787270"/><path d="M82.287 56.556c-.12.055-.261.176-.277.262-.055.175-.332.523-.805 1.011-.136.157-.226.317-.207.352.036.05 0 .066-.07.035-.09-.02-.156.031-.191.192-.035.136-.09.207-.14.19-.052-.034-.106 0-.122.071-.02.051-.07.086-.09.07-.07-.07.422-1.66.7-2.234.12-.297.245-.543.245-.578 0-.016.122-.262.297-.523.192-.297.293-.559.278-.73-.035-.317-.07-.352-.559-.544l-.383-.156-.386.383c-.192.226-.383.508-.418.644-.016.14-.086.246-.137.246-.125 0-.649 1.203-.594 1.395.035.105.035.16 0 .125-.105-.106-.297.73-.297 1.324 0 .578.016.649.383 1.117.473.63.734.77 1.031.578.242-.16.871-.945 1.36-1.71.175-.282.382-.579.437-.63.07-.07.367-.472.664-.87a13.56 13.56 0 011.149-1.329c.98-.976 1.222-1.011.82-.12-.102.226-.156.452-.121.503.02.035 0 .09-.05.09-.09 0-.247.348-.212.488.02.035 0 .051-.05.016-.07-.035-.63 1.066-.997 1.937-.07.192-.246.559-.367.82-.191.419-.207.509-.105.579.105.066.105.086-.016.086-.176 0-.578 1.187-.418 1.187.05 0 .05.035-.035.086-.156.106-.192.246-.227 1.117-.035.473 0 .82.086 1.012.121.317.574.84.785.926.227.086.262.07.68-.176.227-.12.387-.277.367-.312-.035-.055 0-.086.07-.086.141 0 .977-.961 1.52-1.782 1.047-1.52 1.465-2.199 2.18-3.437.508-.91.613-1.188.437-1.188-.07 0-.14.086-.14.172 0 .106-.035.196-.086.196-.055 0-.09.035-.09.086a.56.56 0 01-.086.21c-.453.54-.559.715-.504.715.031 0-.055.106-.195.243-.137.14-.313.386-.383.558-.07.16-.211.387-.297.473-.105.105-.176.226-.14.262.019.05-.036.105-.137.14-.106.016-.176.086-.16.121.07.106-.262.664-.383.664-.051 0-.106.07-.106.137 0 .07-.035.14-.086.14-.05 0-.105.106-.14.227-.035.125-.106.211-.157.176-.05-.05-.07-.016-.035.086.035.09.02.14-.05.125-.07 0-.106.05-.106.137.016.09-.02.14-.05.125-.036-.02-.126.05-.196.156-.07.105-.262.312-.398.453-.16.14-.387.348-.508.473-.278.261-.801.453-.871.312-.141-.191.172-1.57.523-2.41.102-.242.227-.539.262-.645.035-.085.172-.417.312-.699.121-.293.227-.558.227-.59 0-.035.262-.593.578-1.257.836-1.696 1.012-2.27 1.012-3.004 0-.54-.02-.66-.227-.856a1.51 1.51 0 00-.594-.312c-.296-.07-.386-.051-.648.176-.156.12-.293.296-.293.347 0 .07-.055.106-.125.086-.05 0-.156.106-.227.246-.07.121-.191.246-.261.246s-.106.032-.086.086c.035.051.015.086-.035.086-.141 0-.473.578-.418.715.015.055-.02.09-.09.055-.137-.055-.594.468-.594.664 0 .066-.102.172-.227.242zm6.091-9.215c0-.348.418-1.047 1.082-1.781.508-.559.559-.82.262-1.047-.242-.207-.63-.137-.77.125-.05.102-.172.262-.277.363-.106.106-.156.227-.121.297.035.055.035.07 0 .035-.09-.07-.367.282-.297.367.035.02 0 .106-.07.176-.262.262-.282 1.344-.036 1.657.157.19.246.125.227-.192zm-1.206 20.473c.262.156 1.031.07 1.555-.176.472-.227 1.152-.629 1.238-.715.02-.035.192-.156.367-.277.453-.297 1.57-1.485 2.043-2.149.907-1.273 1.203-2.18 1.133-3.543l-.035-.906 1.238-.82a36.027 36.027 0 001.363-.91c.051-.051.106-.07.106-.035s.137-.051.297-.172a5.67 5.67 0 01.87-.489c.317-.14.579-.297.579-.316 0-.121-.402-.172-.473-.07a.11.11 0 01-.156.035.118.118 0 00-.16.035c-.031.055-.086.07-.137.055-.035-.036-.105 0-.125.035-.031.05-.156.101-.277.101-.121 0-.227.036-.246.09-.016.051-.121.106-.227.137-.101.02-.363.105-.593.21a5.44 5.44 0 01-.61.247c-.105.035-.21.102-.21.156 0 .051-.032.051-.087.035-.05-.035-.086-.035-.086.016 0 .035-.14.125-.316.191a3.42 3.42 0 00-.75.438l-.402.316-.454-.422c-.226-.226-.468-.418-.523-.418-.05 0-.277-.12-.54-.277a3.845 3.845 0 00-.487-.281.595.595 0 01-.176-.07c-.121-.07-.121-.141.035-.47.348-.784 1.711-2.374 2.008-2.374.086 0 .137-.086.137-.211 0-.297-.559-.645-.922-.559-.14.035-.262.125-.262.196 0 .066-.055.101-.105.066-.141-.086-.56.227-.508.387.035.086.02.101-.035.07-.172-.105-1.118.957-1.204 1.344a.581.581 0 01-.14.242c-.172.191-.137.578.105 1.066.418.801.785 1.184 1.45 1.516.347.176.664.367.714.422.106.121-.242.523-.382.453-.036-.035-.106 0-.141.086-.016.07-.086.121-.121.086-.055-.016-.121.02-.156.09-.036.07-.196.191-.352.261-.137.086-.367.227-.469.332-.125.102-.246.192-.297.192-.054 0-.105.086-.105.172 0 .105-.035.21-.106.246-.05.05-.07.035-.035-.035.035-.051.035-.106.02-.106-.14 0-1.344 1.153-1.344 1.274 0 .054-.055.105-.125.105s-.156.07-.191.176c-.036.105-.086.176-.106.14-.035-.019-.156.102-.262.297-.12.192-.242.332-.277.332-.055 0-.156.086-.246.207-.121.157-.137.211-.05.227.07 0 .034.035-.071.07-.086.035-.176.106-.176.157 0 .054-.101.21-.242.351-.14.156-.262.348-.262.434 0 .09-.035.16-.09.16-.05 0-.086.101-.086.242 0 .121-.05.211-.105.176-.035-.035-.086.05-.105.172 0 .125-.016.367-.032.543-.02.488.364 1.097.922 1.414zm-.035-1.555c.316-.785 1.137-1.867 2.289-3 .977-.976 2.27-2.113 2.406-2.113.035 0 .176-.086.297-.207.176-.176.262-.211.317-.125.035.054.035.156-.036.226-.054.055-.07.106-.035.106s.016.086-.035.191a1.847 1.847 0 00-.14.438c-.036.14-.086.261-.141.297a2.06 2.06 0 00-.227.418 6.52 6.52 0 01-.61.976c-.245.352-.417.664-.382.719.035.05 0 .066-.07.05-.07 0-.106.036-.106.106.016.05 0 .106-.035.086-.035-.016-.367.281-.75.645-.367.351-.7.664-.75.664-.035 0-.09.02-.09.07 0 .035-.086.121-.207.191-.14.07-.21.157-.175.211.035.051.019.07-.051.035-.055-.035-.176.051-.282.192-.105.121-.226.21-.242.176-.035-.02-.191.015-.351.086a2.26 2.26 0 01-.524.226c-.332.086-.332 0-.07-.664zM75.284 84.836c.473-1.3.945-2.563 1.063-2.84.16-.434 1.027-3.273 1.105-3.746.04-.117.16-.512.277-.828.473-1.262 1.262-4.613 1.38-5.996.316-3.668.277-6.664-.079-6.664-.156 0-.55 1.773-.75 3.39a28.364 28.364 0 01-.433 2.485c-.157.71-.356 1.422-.395 1.617-.039.2-.078.433-.117.473 0 .082-.04.238-.078.355 0 .121-.16.555-.356.988-.199.395-.394.985-.433 1.34-.078.356-.2.79-.317.906-.156.239-.672 1.778-.75 2.29 0 .078-.195.55-.394 1.066a13.52 13.52 0 00-.473 1.574c-.078.356-.195.633-.316.633-.117 0-.156.156-.078.355.039.196 0 .395-.078.473-.118.078-.317.473-.512.906-.16.395-.516 1.344-.828 2.051-.278.75-.516 1.461-.516 1.617 0 .121-.117.239-.234.239-.082 0-.2.195-.2.472 0 .238-.078.473-.195.473-.12 0-.2.078-.16.16 0 .117-.156.629-.434 1.184-.234.55-.394.984-.273.984.078 0 .039.078-.082.195-.274.2-1.379 2.645-1.184 2.645.043 0-.156.316-.433.71-.512.669-.63.985-.473 1.262 0 .04-.156.317-.394.63-.551.671-1.34 2.21-1.34 2.644 0 .156-.117.394-.317.473-.156.078-.433.472-.629.906-.476 1.183-.91 1.933-.91 1.699 0-.16-.234.273-.511.945-.278.63-.551 1.106-.63 1.024-.081-.04-.316.238-.476.672-.195.394-.473.75-.629.75-.16 0-.2.156-.16.355.082.234.043.317-.078.234-.117-.078-.195-.039-.195.122 0 .117-.317.59-.672 1.023-.985 1.105-2.563 3.078-2.88 3.59-.155.238-.59.672-.945.984-.355.278-.632.633-.554.75.078.121 0 .2-.156.16-.157-.039-.239.079-.2.235 0 .199-.039.238-.156.16-.117-.082-.434.117-.71.434-.274.312-.59.511-.63.433-.078-.039-.12 0-.12.117 0 .239-1.696 1.184-2.407 1.38-.195.042-.55.12-.707.237-1.422.633-1.344-5.523.117-11.949.79-3.55 2.445-8.402 5.047-14.91.832-2.012 1.105-3.078 1.183-4.101.122-1.618.083-1.696-1.062-2.446l-.828-.554-.473.671c-.238.356-.789 1.262-1.222 1.973-.438.711-.872 1.3-.95 1.34-.078.039-.156.238-.156.434 0 .199-.078.277-.16.238-.117-.078-.274 0-.313.234-.082.238-.039.278.118.2.195-.118.195-.079 0 .156-.157.16-.395.316-.512.316-.16 0-.238.156-.2.316 0 .157-.038.274-.156.274-.078 0-.355.355-.593.75-.235.433-.63 1.066-.907 1.383-1.144 1.496-1.183 1.617-.945 1.656.156 0 .156.039-.039.117-.316.16-.555.434-1.539 1.856a158.28 158.28 0 00-1.734 2.406c-.594.828-1.028 1.578-.95 1.695.04.117 0 .195-.156.156-.16-.039-.238.118-.2.356.04.316-.077.433-.312.355-.238-.039-.476.157-.554.434-.117.238-.512.71-.907 1.027-.355.313-.75.785-.789 1.024-.078.238-.195.355-.238.316-.156-.2-.668.395-.55.59.038.121.038.16-.079.16-.316-.121-1.105.512-.945.79.078.155.039.195-.082.077-.234-.117-1.457.473-1.734.828-.04.079-.317.157-.59.118-.477-.04-.555-.118-.594-1.301-.156-2.957 1.223-8.324 3.512-13.688 2.011-4.613 4.574-8.836 7.691-12.422 1.418-1.617 1.54-2.488.512-3.195-.75-.515-1.461-.472-2.09.195-.238.278-.512.473-.633.473-.078 0-.273.277-.394.594-.118.316-.313.512-.395.433-.117-.078-.234.04-.312.235-.082.2-.2.316-.317.238-.078-.078-.16.04-.16.238 0 .196-.117.352-.234.352-.118 0-.157.16-.079.277.079.16.079.239-.078.118-.437-.313-3.59 4.183-5.207 7.496-1.304 2.64-1.816 3.824-1.699 3.945.043.078 0 .156-.117.156s-.316.356-.473.75a12.741 12.741 0 01-.511 1.461c-.555 1.574-.75 2.168-.79 2.758 0 .2-.078.355-.16.277-.117-.078-.394 1.262-.746 3.43-.082.316-.12 1.578-.12 2.8 0 2.012.038 2.368.632 3.669 1.34 3.156 2.996 4.851 4.258 4.418.71-.235 2.605-1.38 2.605-1.578 0-.079.156-.157.317-.157.195 0 .312-.078.312-.195 0-.082.75-.988 1.617-2.055.91-1.023 2.172-2.718 2.84-3.746a44.061 44.061 0 011.54-2.207c.277-.316.277-.316.116.117-.117.239-.394 1.383-.668 2.524-1.5 6.59-1.46 11.441.196 14.515.988 1.856 2.21 3.512 2.918 3.868 1.222.629 3.55 0 4.617-1.223.156-.2.394-.356.473-.356.195 0 3.43-3.59 4.3-4.851a34.36 34.36 0 011.063-1.422c.16-.273.473-.707.672-.984.672-.868 4.297-7.22 4.297-7.457 0-.118.082-.274.16-.313.195-.121.75-1.144 1.261-2.328.196-.434.434-.945.551-1.105.239-.274 3.59-7.848 4.496-10.137.278-.711.91-2.367 1.383-3.63zm-.681 14.597c.121.04.262.059.34.078.16 0 1.422-.398 1.48-.5.04-.039.22-.18.423-.32.218-.137.437-.32.539-.398 1.058-.918 1.617-1.461 1.578-1.54 0-.038.02-.062.062-.019.137.078 1.836-1.66 1.738-1.781-.039-.04-.019-.059.04-.02.058.04.218-.039.34-.199.261-.34.12-.46-.18-.18-.121.098-.34.278-.48.38-.16.1-.259.238-.22.3.04.04-.082.121-.261.16-.18.04-.32.117-.32.219 0 .082-.04.121-.079.082-.058-.023-.359.219-.699.52-.32.32-.582.539-.582.5 0-.043-.059 0-.117.097-.063.102-.16.16-.203.14-.059-.038-.098-.038-.098.02-.02.14-.5.64-.66.68a.95.95 0 00-.262.18c-.058.101-.199.16-.297.16-.12 0-.18.062-.16.14 0 .083-.02.122-.062.102-.098-.062-.778.277-.719.36.039.038-.121.058-.82.078-.54.039-.739-.06-.88-.438-.3-.82-.058-1.922.68-3.14.02-.04.18-.02.34.078.442.222.942.183 1.559-.118.742-.359 1.16-.82 1.34-1.48.14-.442.14-.64.039-.922-.156-.496-.86-.977-1.336-.937-.383.058-1.102.398-1 .5.058.058-.121.097-.203.058-.02-.02-.258.2-.559.48-.66.641-1.18 1.422-1.219 1.782-.02.137-.062.238-.101.199-.14-.082-.438 1.18-.438 1.898 0 .622.059.86.34 1.48.36.782.738 1.24 1.117 1.321zm.801-5.3c.238-.34.98-.958 1.418-1.2.402-.218.64-.16.621.14 0 .142-.078.282-.14.302-.079.039-.098.117-.079.218.059.122.02.141-.101.102-.117-.063-.18-.02-.14.078.023.082 0 .14-.02.14-.04.02-.258.122-.52.262-.258.118-.66.258-.879.278l-.398.039zm0 0" fill="#787270"/><path d="M83.96 93.836c-.14.058-.3.199-.32.296-.058.2-.379.602-.918 1.16-.16.18-.261.36-.242.403.043.059 0 .078-.078.039-.102-.02-.18.04-.219.219-.043.16-.101.242-.16.219-.062-.04-.12 0-.14.082-.02.058-.083.097-.102.078-.078-.078.48-1.899.8-2.559.141-.34.282-.621.282-.66 0-.02.137-.3.34-.598.219-.34.34-.64.32-.84-.043-.359-.082-.402-.64-.62l-.442-.18-.441.441c-.219.258-.438.578-.477.738-.02.16-.101.282-.16.282-.14 0-.742 1.379-.68 1.597.04.121.04.18 0 .14-.12-.12-.34.84-.34 1.52 0 .66.02.739.438 1.282.539.718.84.879 1.18.656.28-.18 1-1.078 1.562-1.957.2-.32.438-.66.496-.719.082-.082.422-.543.762-1 .34-.46.941-1.14 1.32-1.52 1.117-1.12 1.399-1.16.938-.14-.117.258-.18.52-.137.578.02.04 0 .102-.062.102-.098 0-.278.398-.239.558.02.04 0 .059-.062.02-.078-.04-.719 1.219-1.137 2.219-.082.222-.281.64-.422.94-.219.481-.238.58-.12.661.12.078.12.102-.02.102-.2 0-.66 1.359-.48 1.359.062 0 .062.04-.04.098-.18.12-.219.28-.258 1.28-.043.54 0 .938.098 1.161.14.36.66.957.902 1.059.258.101.297.078.778-.2.261-.14.441-.32.421-.359-.039-.062 0-.101.079-.101.16 0 1.12-1.098 1.742-2.04 1.199-1.738 1.68-2.52 2.496-3.937.582-1.043.703-1.363.5-1.363-.078 0-.16.101-.16.203 0 .117-.04.219-.098.219-.062 0-.102.039-.102.101a.61.61 0 01-.097.238c-.52.622-.64.82-.582.82.039 0-.059.122-.219.282a2.24 2.24 0 00-.441.637 2.28 2.28 0 01-.34.543c-.117.117-.2.257-.16.297.02.062-.04.12-.16.16-.118.02-.2.101-.18.14.082.121-.297.762-.438.762-.062 0-.12.078-.12.16 0 .078-.04.156-.102.156-.059 0-.118.122-.16.262-.04.14-.118.238-.18.2-.059-.06-.078-.02-.04.1.04.099.02.161-.058.142-.082 0-.121.058-.121.16.02.097-.02.16-.059.136-.043-.02-.14.063-.222.18a4.43 4.43 0 01-.457.524c-.18.16-.442.398-.582.539-.32.3-.918.52-1 .359-.16-.219.199-1.8.601-2.758.121-.281.258-.62.301-.742.04-.098.2-.48.36-.8.14-.34.257-.637.257-.68 0-.04.301-.68.66-1.438.961-1.941 1.16-2.602 1.16-3.441 0-.618-.019-.758-.257-.977-.14-.14-.442-.3-.68-.363-.34-.078-.441-.059-.742.203-.18.137-.34.34-.34.398 0 .078-.059.121-.14.102-.06 0-.18.117-.258.277-.082.14-.223.282-.301.282-.082 0-.121.039-.102.101.043.059.02.098-.039.098-.16 0-.539.66-.48.82.02.059-.02.102-.098.059-.16-.059-.68.543-.68.761 0 .078-.12.2-.261.282zm0 0" fill="#787270"/><path d="M90.338 99.074c.48.437.578.476.942.418.539-.059 1.02-.461 1.976-1.64.461-.54.902-1.079.98-1.16.083-.099.32-.419.54-.72.222-.277.421-.5.441-.48.04.02 0 .422-.082.902-.137.84-.078 3.34.082 3.598.04.058.078.219.102.32.117.8 1.117 2.02 2.058 2.52.578.3.957.28 1.68-.082.48-.239 2.258-2.02 2.258-2.278 0-.039.101-.16.218-.261.102-.098.204-.239.204-.297 0-.063.078-.18.16-.262.398-.398 1.68-2.32 1.558-2.32-.039 0 .02-.078.14-.18.298-.258.88-1.277.821-1.398-.043-.059-.023-.102.04-.102.14 0 .64-.86.64-1.098 0-.16-.063-.14-.281.118-.48.523-.66.78-.621.78.043 0-.059.122-.2.282-.14.16-.238.32-.238.36.02.038-.101.18-.262.3-.18.14-.28.297-.238.38.04.12.02.14-.101.1-.098-.042-.141 0-.098.157.02.16 0 .203-.121.16-.14-.059-.2.043-.16.262 0 .058-.063.078-.141.078-.16 0-.2.121-.18.402.02.059-.082.14-.199.18-.121.039-.2.102-.16.121.02.04-.04.137-.16.258-.102.12-.2.281-.2.36 0 .081-.042.16-.101.16-.059 0-.078.038-.059.1.04.06 0 .099-.101.099-.078 0-.18.082-.219.16-.039.101-.219.32-.422.52-.219.222-.34.421-.297.5.059.062.04.081-.043.042-.058-.043-.14 0-.18.078-.038.102-.097.18-.14.18-.059 0-.316.223-.617.52-.281.28-.602.52-.68.52a.39.39 0 00-.262.14c-.078.082-.34.199-.597.281-.422.121-.5.121-.703-.059-.239-.222-.38-.543-.438-1.023-.281-1.898 0-3.898.84-6.477.34-1 .418-1.14.7-1.257.84-.34 2.8-1.84 3.84-2.922.757-.758 2.097-2.578 2.097-2.82 0-.06.039-.118.101-.137.098-.043.598-1.082 1.02-2.14.238-.602.281-.88.3-1.72 0-.882-.019-1.062-.203-1.261-.578-.641-1.398-.7-2.359-.18-.258.14-.476.32-.476.402a.2.2 0 01-.141.18c-.102.039-.121.02-.063-.082.063-.14.063-.14-.097-.02-.102.079-.14.2-.121.239.039.062.02.082-.02.082-.14-.04-1.078.758-1.078.918 0 .062-.121.222-.262.363-.14.117-.218.277-.199.34.04.058.02.078-.039.039-.121-.082-.66.52-.66.719 0 .082-.063.18-.14.261-.102.059-.141.16-.102.22.02.058-.02.097-.098.097-.082 0-.242.12-.32.261-.16.239-.16.262 0 .262s.14.04-.063.117c-.219.121-1.156 1.54-1.156 1.782 0 .039-.043.078-.082.078-.102.02-.5.941-.48 1.082.019.039 0 .078-.06.078-.1 0-.859 1.621-.878 1.898 0 .102-.043.203-.082.203-.078 0-.418.7-.418.918 0 .141-.043.122-.203-.097-.438-.563-1.977-.903-2.7-.582-.617.261-1.257.718-1.777 1.3-.3.32-.558.622-.558.66 0 .04-.082.18-.203.321-.118.117-.18.277-.16.32.042.059.023.098-.04.098-.078 0-.12.082-.257.52-.02.019-.102.16-.204.32-.199.32-.418 1.12-.359 1.3.043.079.02.18-.02.2-.097.12-.12.941 0 1.281.063.2.34.559.641.84zm8.738-8.078c.239-.563 1.82-3.762 2.04-4.14.12-.2.261-.38.32-.4a.152.152 0 00.097-.14c0-.2 1.743-2.5 2.243-2.96.32-.259.957-.599 1.199-.599.258 0 .281.22.12 1.06-.081.32-.14.64-.14.698a.454.454 0 01-.101.2.462.462 0 00-.078.261c0 .121-.16.52-.36.918-.402.781-.441.903-.242.781.063-.039.082-.02.04.059-.04.063-.138.082-.2.043-.059-.043-.078.02-.04.18.02.117.02.199 0 .18-.1-.102-.46.359-.421.519.043.059-.04.16-.137.2a.608.608 0 00-.32.28c-.18.399-.383.72-.52.84-.12.098-.12.098 0-.082.079-.12-.082.02-.32.32-.66.739-1.36 1.399-1.48 1.399-.059 0-.082.082-.04.16.04.102 0 .14-.101.102-.078-.04-.16-.02-.16.02 0 .058-.14.16-.3.237-.18.083-.317.204-.317.301 0 .082-.043.121-.102.082-.059-.02-.16.04-.242.16-.078.118-.18.18-.219.141-.039-.043-.078-.023-.078.059 0 .058-.02.097-.082.097-.04-.02-.18.024-.3.102-.278.16-.278.14.241-1.078zm-6.418 3.437c1.02-1.02 1.2-1.14 2.059-1.46.5-.18.8-.098 1 .261.121.258.121.32-.082.621-.117.18-.258.34-.316.34-.043 0-.082.059-.043.137.043.101-.04.183-.2.222-.14.02-.257.098-.257.16 0 .079-.262.38-.582.7-.399.379-.559.62-.52.738.059.121.04.14-.078.043-.121-.102-.18-.102-.242-.023-.04.082-.04.14 0 .18.02.042-.18.28-.461.562-.297.258-.52.578-.52.699 0 .14-.02.16-.097.039-.082-.121-.122-.098-.243.082-.078.117-.18.219-.257.219-.16 0-.38.281-.282.34.059.039.04.039-.039.02-.058-.02-.218.058-.36.179-.3.262-.3.262-.3-.098 0-1.02.961-3.12 1.82-3.96zm0 0" fill="#787270"/><path d="M103.391 98.093l.02.957.523.622c.297.32.657.64.797.68.36.1.383.1.742-.06.457-.199 1.86-1.738 1.86-2.019 0-.082.039-.14.097-.14.043 0 .223-.282.383-.622.297-.617.32-.636.7-.636.378 0 1.359-.16 1.66-.282a.78.78 0 01.257-.082c.32-.039.68-.199.68-.277 0-.039.063-.102.14-.102.2 0 1.38-.578 1.919-.96.562-.36.601-.618.12-.54-.198.04-.398.122-.48.18-.058.043-.16.063-.218.02-.059-.04-.121-.02-.121.043 0 .058-.079.117-.18.117-.098 0-.461.14-.82.3-.34.16-.66.282-.7.262-.039-.043-.078 0-.078.059s-.082.082-.16.039c-.082-.04-.16-.02-.16.043 0 .059-.18.137-.379.2-.223.038-.48.097-.563.116-.437.102-.937.141-.937.043 0-.043.059-.3.16-.543.36-1.02.438-2.117.219-2.836-.3-.882-.68-1.222-1.64-1.441-.38-.102-.52-.078-.88.102-.238.117-.46.277-.5.34-.058.058-.082.078-.082.039 0-.102-.539.44-.539.539 0 .039-.039.12-.117.199-.16.16-.203.441-.062.441.082 0 .039.059-.059.14-.16.118-.2.24-.14.7.038.52.019.578-.52 1.398-.301.461-.559.922-.559 1a.51.51 0 01-.12.301c-.083.078-.102.121-.06.121.04 0 0 .137-.081.297-.102.18-.141.582-.122 1.242zm3-5.5c.461-.48 1.16-.699 1.52-.48.18.102.2.223.2.68-.02.68-.079 1.222-.2 1.52-.04.12-.14.359-.219.542-.082.2-.101.317-.039.297.04-.04.117 0 .16.063.04.078.04.097-.023.058-.117-.078-.38.18-.277.262.019.039-.04.16-.16.277-.18.18-.2.18-.56 0-.183-.097-.46-.3-.6-.437-.24-.262-.24-.282-.06-.563.239-.398.778-.879.958-.879.101 0 .14-.058.101-.16a.65.65 0 01-.058-.2c0-.1-.641-.358-.903-.358-.36 0-.32-.122.16-.622zm-1.8 5.18a.53.53 0 00.082-.262c.039-.257.879-1.898.96-1.898.06 0 .16.082.239.18.082.082.34.3.582.46.36.239.418.34.379.56-.02.16-.14.32-.242.378-.118.063-.18.16-.137.223.039.039 0 .097-.082.097-.102 0-.102.02.02.102.14.078.12.102-.04.102-.101 0-.16.039-.12.097.038.059 0 .121-.06.121-.16 0-.46.418-.421.559.02.062 0 .082-.04.039-.058-.04-.218.043-.359.203-.16.16-.398.36-.52.418-.28.18-.32.16-.339-.04-.02-.378.039-1.241.098-1.339zm0 0" fill="#787270"/><path d="M113.29 95.394c.18-.601.34-1.14.36-1.199.019-.063.199-.543.398-1.063.52-1.296.5-1.558-.098-1.777-.281-.101-.36-.082-.543.117-.36.383-1.039 1.922-1.558 3.52-.258.8-.301 2.742-.078 3.379.078.281.199.5.257.5.063 0 .102.062.102.12 0 .18.719.981.937 1.06.622.222 1.141-.22 2.141-1.797.36-.54.742-1.141.86-1.34.12-.18.742-1.262 1.359-2.36.62-1.12 1.2-2.18 1.3-2.34.102-.18.52-.96.942-1.761.68-1.34.84-1.758.66-1.758-.12 0-.422.2-.3.219.038 0-.04.082-.18.199-.16.121-.282.3-.282.383 0 .058-.101.199-.218.277-.14.102-.2.223-.14.3.038.083.038.102-.06.04-.101-.059-.12-.04-.082.082.04.121.02.16-.101.098-.137-.04-.156-.02-.098.12.04.102.02.16-.039.122-.062-.04-.101-.02-.101.039 0 .062-.102.219-.22.34-.12.12-.198.281-.16.36.02.062-.019.16-.1.179-.079.043-.161.14-.161.222 0 .098-.04.16-.098.16-.043 0-.062.079-.02.18.04.117.02.16-.081.078-.102-.058-.121-.039-.078.102.039.098.039.16-.024.117-.078-.058-.476.66-.437.82 0 .043-.02.063-.082.043-.059-.023-.098.02-.117.079 0 .058-.083.14-.16.199-.083.039-.141.12-.102.16.02.039-.04.18-.16.3-.121.122-.2.282-.2.34 0 .06-.058.102-.12.102-.06 0-.098.059-.06.137.02.082-.038.203-.14.262a.433.433 0 00-.2.34c0 .14-.058.199-.12.14-.098-.039-.121 0-.078.16.039.117.02.2-.063.2-.058-.02-.117.078-.137.199-.023.14-.082.218-.12.199-.063-.04-.122 0-.16.101-.04.102-.02.141.058.079.082-.04.101-.02.039.062a.299.299 0 01-.219.117.16.16 0 00-.16.16c0 .082-.04.141-.098.141-.062 0-.101.102-.101.223 0 .136-.04.199-.121.156-.059-.059-.098.023-.078.16.039.203 0 .242-.141.223-.102-.02-.18.039-.18.117 0 .082-.16.3-.36.48-.198.204-.359.403-.32.422.02.04-.14.16-.34.278-.5.261-.581.12-.5-.899.102-1.238.122-1.277.481-2.418zm6.895 4.039c.121.04.262.059.34.078.16 0 1.422-.398 1.48-.5.04-.039.22-.18.423-.32.218-.137.437-.32.539-.398 1.058-.918 1.617-1.461 1.578-1.54 0-.038.02-.062.062-.019.137.078 1.836-1.66 1.739-1.781-.04-.04-.02-.059.039-.02.058.04.218-.039.34-.199.261-.34.12-.46-.18-.18-.121.098-.34.278-.48.38-.16.1-.259.238-.22.3.04.04-.082.121-.261.16-.18.04-.32.117-.32.219 0 .082-.04.121-.079.082-.058-.023-.359.219-.699.52-.32.32-.582.539-.582.5 0-.043-.058 0-.117.097-.063.102-.16.16-.203.14-.059-.038-.098-.038-.098.02-.02.14-.5.64-.66.68a.95.95 0 00-.262.18c-.058.101-.199.16-.297.16-.12 0-.18.062-.16.14 0 .083-.02.122-.062.102-.098-.062-.778.277-.719.36.039.038-.121.058-.82.078-.54.039-.739-.06-.88-.438-.3-.82-.058-1.922.68-3.14.02-.04.18-.02.34.078.442.222.942.183 1.559-.118.742-.359 1.16-.82 1.34-1.48.14-.442.14-.64.039-.922-.156-.496-.86-.977-1.336-.937-.383.058-1.102.398-1 .5.058.058-.121.097-.203.058-.02-.02-.258.2-.559.48-.66.641-1.18 1.422-1.219 1.782-.02.137-.062.238-.101.199-.14-.082-.438 1.18-.438 1.898 0 .622.059.86.34 1.48.36.782.738 1.24 1.117 1.321zm.801-5.3c.238-.34.98-.958 1.418-1.2.402-.218.64-.16.621.14 0 .142-.078.282-.14.302-.079.039-.098.117-.079.218.059.122.02.141-.101.102-.117-.063-.18-.02-.14.078.023.082 0 .14-.02.14-.04.02-.258.122-.52.262-.258.118-.66.258-.879.278l-.398.039zm0 0" fill="#787270"/><path d="M125.906 100.71c-.184 1.044-.023 1.52.719 2.223.48.457.64.54.98.54.578 0 1-.321 1.797-1.36.14-.203.3-.402.34-.422.062-.039.46-.68.762-1.18.3-.46 3.68-5.437 4-5.84.199-.257.359-.539.359-.597 0-.238-.34-.34-.621-.18-.16.078-.219.14-.16.14.058.02.02.06-.078.118-.102.063-.18.18-.18.262 0 .078-.121.258-.242.379-.14.14-.36.402-.5.601-.14.2-.301.418-.36.48-.218.239-1.101 1.419-1.101 1.477 0 .024-.098.14-.2.242-.097.098-.257.32-.378.48-.121.18-.32.438-.461.599-.14.16-.2.34-.16.421.043.079.043.098-.02.059-.098-.102-.777.82-.777 1.04 0 .081-.082.14-.16.14-.082 0-.16.101-.16.218 0 .102-.063.243-.16.262a.267.267 0 00-.141.219c0 .082-.04.121-.102.101-.078-.062-.437.301-.379.38.04.019-.058.1-.219.18-.14.081-.261.198-.261.26 0 .06-.16.2-.36.298l-.36.183v-.34c0-.203.161-.82.36-1.402.219-.578.442-1.2.5-1.418.059-.2.16-.379.2-.422.039-.02.222-.5.421-1.039.559-1.66.418-3.039-.382-3.797l-.297-.261.258-.34c.14-.18.402-.5.582-.739.34-.441 1.078-1.68 1.18-1.98.097-.36.038-1.262-.122-1.48-.14-.22-.8-.52-1.16-.52-.461 0-1.14.52-1.18.898 0 .063-.058.102-.14.102-.2 0-.66.598-.52.7.063.038.02.1-.121.14-.117.039-.2.101-.16.16.043.059 0 .098-.059.098-.058 0-.078.043-.058.101.039.04-.02.121-.102.16-.14.04-.16.078-.039.239.14.14.121.16-.02.101-.14-.058-.199.04-.3.461-.16.64-.102 1 .261 1.52.2.277.239.418.16.52-.081.097-.042.218.2.46.277.277.36.317.48.2.38-.301.637.238.418.878-.101.282-.101.418-.02.5.102.102.102.121 0 .059-.058-.04-.16.082-.238.281-.382.98-.683 1.719-.761 1.84-.059.059-.078.16-.04.2.04.038 0 .14-.081.218-.18.223-.48 1.223-.637 2.18zm1.7-8.156c-.18.04-.18.02 0-.359.359-.781.859-1.559 1.179-1.879.34-.3.34-.3.258-.043-.04.14-.141.34-.22.422a.651.651 0 00-.14.36c0 .1-.039.16-.078.12-.082-.082-.722.86-.781 1.137a.305.305 0 01-.219.242zm0 0" fill="#787270"/><path d="M45.866 132.174c.613.36 1.449.598 2.273.598.64-.008 1.305-.172 1.8-.528.462-.332.778-.828.759-1.527-.043-1.441-1.688-1.933-2.84-2.242-.758-.215-1.328-.57-1.285-1.211.023-.332.152-.59.347-.766.309-.28.762-.402 1.22-.394.972.02 1.757.785 1.937 1.441h.18l-.25-1.254c-.587-.273-1.098-.398-1.876-.398-.648 0-1.191.16-1.593.433-.485.333-.707.829-.692 1.32.028.684.41 1.06.914 1.313.461.223 1.016.352 1.492.504.88.29 1.645.727 1.61 1.621-.043.989-.844 1.465-1.774 1.485-.945.007-1.898-.676-2.172-1.672l-.164.015zm5.829.376v.128h1.672v-.129c-.324-.05-.418-.203-.426-.355a342.21 342.21 0 010-5.664c.008-.137.102-.325.426-.375v-.125a39.76 39.76 0 00-1.672 0v.125c.324.05.383.207.426.375.02 1.867.02 3.77 0 5.644-.043.172-.102.324-.426.375zm2.557.128h1.41v-.129c-.394-.008-.617-.23-.605-.613l.074-5.125c.156.598.95 1.781 1.844 2.543 1.363 1.14 2.753 2.558 2.882 3.316h.204l.093-5.902c0-.406.246-.586.598-.613v-.125h-1.383v.125c.395.007.57.23.563.613l-.059 4.539c-.3-.77-1.355-1.629-2.3-2.508-.942-.863-1.723-2.055-1.88-2.77h-1.32v.204c.36.023.547.21.54.605l-.071 5.098c-.008.41-.239.59-.59.613zm7.291-3.258c0 1 .317 1.875.887 2.473.527.562 1.297.894 2.25.879.82-.008 1.707-.145 2.422-.535l.23-1.246h-.136c-.356.96-1.149 1.507-2.192 1.566-.93.043-1.687-.281-2.156-1.113-.348-.625-.484-1.41-.469-2.153.05-1.574.742-3.136 2.531-3.168.301 0 .555.016.856.125.613.23 1.055.72 1.191 1.203h.18l-.203-1.132c-.668-.317-1.262-.418-1.996-.418-.778.015-1.586.203-2.168.68-.817.667-1.227 1.75-1.227 2.84zm6.539-3.246c.437.031.437.168.437.332v5.508c0 .289-.035.477-.437.535v.129h5.015l.23-1.133h-.206c-.281.793-.824.938-2.567.953-.449 0-.773.02-1.226 0-.016-.96-.016-2.507-.016-3.468l1.457-.008c.367.015.63.27.692.562h.125l.011-1.355h-.136a.704.704 0 01-.692.613l-1.457.008c0-1.074.016-1.559.016-2.633.426-.02.715-.012 1.168 0 1.55.016 2.234.211 2.437.7l.188-.028-.211-.86h-2.43c-.426 0-.742-.011-1.152-.011l-.895.012h-.351zm11.945 3.152h-3.324v.368h3.324zm3.353-1.523l.75-.648v5.02c-.02.194-.137.323-.46.374v.129c.51.008 1.194.008 1.714 0v-.129c-.324-.05-.438-.203-.445-.355v-6.133l-1.567 1.5zm4.508 2.375c.46.012.98-.168 1.289-.52l-.094.301c-.254.836-.684 1.68-1.414 2.207-.383.274-.793.41-1.383.477v.129c.152.008.309 0 .461-.008.914-.059 1.746-.547 2.344-1.227.64-.734 1.023-1.793 1.05-2.789.024-1.203-.425-2.718-1.953-2.703-1.246.008-1.918 1.117-1.945 2.192-.016.988.504 1.925 1.645 1.941zm-.774-2.172c0-.726.383-1.715 1.11-1.738.894-.035 1.062 1.25 1.09 1.96.015.4 0 .716-.067 1.09-.3.376-.66.54-1.008.52-.777-.023-1.133-.937-1.125-1.832zm4.247-.844c.313-.382.606-.418.938-.418l2.129-.007c-1.242 1.398-2.653 4.414-2.914 5.949h.836c.261-1.703 1.226-4.867 2.683-6.375v-.149H91.37l-.187 1zm6.016 3.016c.461.012.98-.168 1.29-.52l-.094.301c-.254.836-.684 1.68-1.415 2.207-.382.274-.793.41-1.382.477v.129c.152.008.308 0 .46-.008.915-.059 1.747-.547 2.344-1.227.641-.734 1.024-1.793 1.051-2.789.024-1.203-.426-2.718-1.953-2.703-1.246.008-1.918 1.117-1.945 2.192-.016.988.504 1.925 1.644 1.941zm-.773-2.172c0-.726.383-1.715 1.11-1.738.894-.035 1.062 1.25 1.089 1.96.016.4 0 .716-.066 1.09-.301.376-.66.54-1.008.52-.778-.023-1.133-.937-1.125-1.832zm0 0" fill="#f4abaa" fill-opacity=".4"/><path d="M45.489 131.797c.613.36 1.45.598 2.273.598.641-.008 1.305-.172 1.801-.527.461-.332.777-.828.758-1.528-.043-1.441-1.688-1.933-2.84-2.242-.758-.215-1.328-.57-1.285-1.21.023-.333.152-.59.348-.766.308-.282.761-.403 1.218-.395.973.02 1.758.785 1.938 1.441h.18l-.25-1.253c-.586-.274-1.098-.399-1.875-.399-.649 0-1.192.16-1.594.434-.485.332-.707.828-.692 1.32.028.684.41 1.059.914 1.312.461.223 1.016.352 1.493.504.879.29 1.644.727 1.609 1.621-.043.989-.844 1.465-1.773 1.485-.946.008-1.899-.676-2.172-1.672l-.164.016zm5.829.375v.13h1.672v-.13c-.324-.05-.418-.203-.426-.355a342.21 342.21 0 010-5.664c.008-.137.102-.324.426-.375v-.125a39.76 39.76 0 00-1.672 0v.125c.325.05.383.207.426.375.02 1.867.02 3.77 0 5.644-.043.172-.101.325-.426.375zm2.557.129h1.41v-.129c-.394-.007-.617-.23-.605-.613l.074-5.125c.156.598.95 1.781 1.844 2.543 1.363 1.14 2.754 2.559 2.883 3.316h.203l.093-5.902c0-.406.247-.586.598-.613v-.125h-1.383v.125c.395.008.57.23.563.613l-.059 4.54c-.3-.77-1.355-1.63-2.3-2.509-.942-.863-1.723-2.054-1.88-2.77h-1.32v.204c.36.023.547.21.54.605l-.071 5.098c-.008.41-.238.59-.59.613zm7.291-3.258c0 1 .317 1.875.887 2.473.527.563 1.297.895 2.25.879.82-.008 1.707-.145 2.422-.535l.23-1.246h-.136c-.356.96-1.149 1.508-2.192 1.566-.93.043-1.687-.281-2.156-1.113-.348-.625-.484-1.41-.469-2.152.051-1.575.743-3.137 2.532-3.168.3 0 .554.015.855.125.613.23 1.055.718 1.191 1.203h.18l-.203-1.133c-.668-.317-1.262-.418-1.996-.418-.777.016-1.586.203-2.168.68-.816.668-1.227 1.75-1.227 2.84zm6.539-3.246c.437.032.437.168.437.332v5.508c0 .29-.035.477-.437.535v.13h5.016l.23-1.134h-.207c-.281.793-.824.938-2.566.954-.45 0-.774.02-1.227 0-.016-.961-.016-2.508-.016-3.47l1.457-.007c.368.016.63.27.692.562h.125l.012-1.355h-.137a.704.704 0 01-.692.613l-1.457.008c0-1.074.016-1.558.016-2.633.426-.02.715-.011 1.168 0 1.55.016 2.234.211 2.437.7l.188-.028-.211-.86h-2.43c-.425 0-.742-.01-1.152-.01l-.895.01h-.351zm11.945 3.153h-3.324v.367h3.324zm3.353-1.524l.75-.648v5.02c-.02.195-.136.324-.46.374v.13a69.95 69.95 0 001.714 0v-.13c-.324-.05-.437-.203-.445-.355v-6.133l-1.567 1.5zm4.507 2.375c.462.012.981-.168 1.29-.52l-.094.301c-.254.836-.683 1.68-1.414 2.208-.383.273-.793.41-1.383.476v.129c.153.008.309 0 .461-.008.914-.058 1.746-.547 2.344-1.226.64-.735 1.023-1.793 1.05-2.79.024-1.203-.425-2.718-1.952-2.703-1.246.008-1.918 1.118-1.946 2.192-.015.988.504 1.926 1.645 1.941zm-.773-2.172c0-.726.383-1.714 1.11-1.738.894-.035 1.062 1.25 1.09 1.961.015.398 0 .715-.067 1.09-.3.375-.66.539-1.008.52-.777-.024-1.132-.938-1.125-1.833zm4.248-.843c.312-.383.605-.418.937-.418l2.129-.008c-1.242 1.398-2.652 4.414-2.914 5.95h.836c.262-1.704 1.226-4.868 2.684-6.376v-.148h-3.665l-.187 1zM97 129.801c.461.012.98-.168 1.29-.52l-.094.301c-.254.836-.684 1.68-1.414 2.208-.383.273-.793.41-1.383.476v.129c.152.008.308 0 .46-.008.915-.058 1.747-.547 2.345-1.226.64-.735 1.023-1.793 1.05-2.79.024-1.203-.425-2.718-1.953-2.703-1.246.008-1.918 1.118-1.945 2.192-.016.988.504 1.926 1.644 1.941zm-.773-2.172c0-.726.383-1.714 1.11-1.738.894-.035 1.062 1.25 1.09 1.961.015.398 0 .715-.067 1.09-.301.375-.66.539-1.008.52-.777-.024-1.133-.938-1.125-1.833zm0 0" fill="#787270"/></svg>