<svg xmlns="http://www.w3.org/2000/svg" width="500" viewBox="0 0 375 322.5" height="430" version="1.0"><defs><clipPath id="a"><path d="M3.21 16h368.43v132H3.21zm0 0"/></clipPath></defs><g clip-path="url(#a)"><path fill="#f4f8f3" d="M153.672 33.887h67.789c32.887-.754 65.215 2.082 89.16 12.949 23.91 10.86 39.922 28.465 43.656 61.773v14.106c0 1.555-.187 1.77-1.152 2.687-.938.883-3.04 2.086-6.074 2.95-6.074 1.707-15.27 1.988-22.738 1.394h-.696c-17.699 0-23.742-2.715-26.765-5.61-3.036-2.886-4.895-9.046-9.664-18.593l-9.333-18.582c-4.625-9.258-11.14-15.777-18.488-19.523-7.355-3.739-15.14-4.743-22.523-4.743h-98.559c-7.355 0-15.156 1.004-22.512 4.742-7.328 3.747-13.843 10.266-18.468 19.524l-9.332 18.582c-4.797 9.539-6.657 15.703-9.664 18.582-3.036 2.895-9.067 5.613-26.77 5.613h-.719c-7.468.594-16.652.313-22.71-1.394-3.036-.864-5.137-2.063-6.102-2.95-.938-.917-1.153-1.128-1.153-2.69v-14.106C24.61 75.297 40.63 57.688 64.52 46.824c23.964-10.855 56.265-13.683 89.152-12.937zm.215-17.39c-34.012-.774-68.512 1.73-96.63 14.515C29.079 43.816 7.748 68.25 3.427 106.789c-.028.332-.047.645-.074.961v14.965c0 5.969 2.722 11.656 6.609 15.32 3.887 3.672 8.578 5.684 13.36 7.028 9.425 2.656 19.714 2.683 28.468 2.015 19.316-.047 31.055-3.144 38.645-10.355 7.625-7.297 9.312-15.637 13.195-23.387l9.324-18.633c3.281-6.55 6.797-9.762 10.797-11.797 3.984-2.039 8.824-2.828 14.535-2.828h98.559c5.742 0 10.562.79 14.566 2.828 3.973 2.035 7.516 5.246 10.797 11.797l9.324 18.633c3.887 7.75 5.551 16.09 13.192 23.387 7.574 7.21 19.308 10.308 38.648 10.355 8.727.668 19.043.645 28.442-2.016 4.804-1.343 9.484-3.359 13.359-7.027 3.914-3.66 6.61-9.351 6.61-15.32V107.75c0-.316-.02-.629-.075-.96-4.293-38.544-25.625-62.974-53.805-75.778-28.14-12.782-62.636-15.282-96.629-14.516zm0 0"/></g><path fill="#f4f8f3" d="M33.508 270.145c-.074.382-.094.77-.117 1.148zm105.668-152.278h18.11c6.655 10.668 17.359 18.395 30.284 18.395 12.95-.028 23.602-7.727 30.254-18.395H236c3.11 20.188 11.602 37.508 31.375 51.54 9.285 6.59 18.484 12.566 25.91 18.581 7.55 6.114 12.895 11.778 14.777 18.707.028.14.06.29.075.43l16.226 65.563c0 .113.028.238.028.34.746 4.074-1.137 8.269-3.957 10.91-3.157 2.945-7.157 4.625-11.641 4.625H66.375c-4.488 0-8.488-1.657-11.64-4.625-2.82-2.614-4.731-6.833-3.985-10.91l16.277-65.903c.028-.14.047-.29.075-.43 1.855-6.93 7.21-12.593 14.75-18.707 7.425-6.015 16.683-11.965 25.964-18.582 19.774-14.031 28.254-31.344 31.395-51.539zm202.449 152.04l.113 1.386a7.908 7.908 0 00-.113-1.387zm-202.45-169.43c-8.554 0-15.976 6.332-17.284 14.753-2.696 17.477-7.715 28.247-24.254 39.997-8.848 6.285-18.352 12.375-26.856 19.285-8.406 6.804-17.21 15.172-20.566 27.648-.016.024-.016.04-.043.07-.031.172-.098.5-.172.743l-16.367 66.332c-.047.187-.074.41-.098.597-1.976 10.766 2.578 20.532 9.184 26.711a34.631 34.631 0 0023.656 9.356h242.39a34.627 34.627 0 0023.65-9.356c6.608-6.18 11.167-15.918 9.183-26.71-.028-.192-.047-.415-.098-.598l-16.367-66.332a7.91 7.91 0 00-.172-.743c-.016-.023-.016-.042-.047-.07-3.351-12.476-12.148-20.844-20.566-27.648-8.508-6.91-17.961-12.98-26.828-19.285-16.536-11.75-21.528-22.52-24.25-39.997-1.31-8.421-8.739-14.753-17.286-14.753H214.02a8.76 8.76 0 00-8.22 5.707c-2.82 7.629-10.058 12.664-18.234 12.691-8.187-.027-15.457-5.035-18.293-12.691-1.25-3.426-4.53-5.707-8.199-5.707zm0 0"/><path fill="#f4f8f3" d="M187.57 172.184c20.856 0 37.563 16.644 37.563 37.367 0 20.722-16.707 37.363-37.563 37.363-20.832 0-37.539-16.64-37.539-37.363s16.707-37.367 37.54-37.367zm0-17.387c-30.285 0-55.043 24.605-55.043 54.75 0 30.113 24.758 54.75 55.043 54.75 30.305 0 55.067-24.633 55.067-54.75-.004-30.145-24.762-54.75-55.067-54.75zm0 0"/></svg>